<svg xmlns="http://www.w3.org/2000/svg" width="25" height="20" viewBox="0 0 25 20">
  <g id="그룹_8808" data-name="그룹 8808" transform="translate(-441.339 -875.195)">
    <path id="패스_10156" data-name="패스 10156" d="M466.339,895.2H442l-.659-.6v-15.7l.659-.6h5.595l1.3-2.733.6-.363h8.682l.6.363,1.3,2.733h5.6l.659.6v15.7H465.02V879.5h-5.368l-.6-.363-1.3-2.733h-7.817l-1.3,2.733-.6.363h-5.368v14.49h23.681Z" transform="translate(0 0)" fill="#fff"/>
    <path id="패스_10157" data-name="패스 10157" d="M468.391,906.213a5.824,5.824,0,1,1,2.735-.68A5.84,5.84,0,0,1,468.391,906.213Zm0-10.268a4.435,4.435,0,1,0,4.435,4.435A4.44,4.44,0,0,0,468.391,895.945Z" transform="translate(-14.552 -14.076)" fill="#fff"/>
    <rect id="사각형_3262" data-name="사각형 3262" width="2.97" height="1.398" transform="translate(444.623 881.24)" fill="#fff"/>
  </g>
</svg>
