<svg id="Vector_Smart_Object" data-name="Vector Smart Object" xmlns="http://www.w3.org/2000/svg" xmlns:xlink="http://www.w3.org/1999/xlink" width="218.532" height="161.708" viewBox="0 0 218.532 161.708">
  <defs>
    <clipPath id="clip-path">
      <rect id="사각형_1" data-name="사각형 1" width="218.532" height="161.708" fill="none"/>
    </clipPath>
  </defs>
  <g id="그룹_2" data-name="그룹 2">
    <g id="그룹_1" data-name="그룹 1" clip-path="url(#clip-path)">
      <path id="패스_1" data-name="패스 1" d="M0,210.112a12.516,12.516,0,0,1,.855-4.82,8.09,8.09,0,0,1,2.464-3.078,10.825,10.825,0,0,1,3.915-1.827,20.7,20.7,0,0,1,5.167-.6q5.724,0,9,2.423c2.186,1.615,3.279,4.535,3.279,7.9v.6a10.5,10.5,0,0,1-.854,4.408,7.982,7.982,0,0,1-2.444,3.078,10.815,10.815,0,0,1-3.876,1.807,20.643,20.643,0,0,1-5.187.6,20.224,20.224,0,0,1-5.128-.6A11.023,11.023,0,0,1,3.319,218.2,7.894,7.894,0,0,1,.855,215.12,10.494,10.494,0,0,1,0,210.712Zm16.337-.432a22.478,22.478,0,0,0-.318-4.15,8.416,8.416,0,0,0-.874-2.6,3.511,3.511,0,0,0-1.272-1.35,3.147,3.147,0,0,0-1.55-.4,3.18,3.18,0,0,0-1.531.4,3.446,3.446,0,0,0-1.292,1.35,8.68,8.68,0,0,0-.894,2.6,21.19,21.19,0,0,0-.338,4.15v1.032a21.18,21.18,0,0,0,.338,4.15,8.3,8.3,0,0,0,.914,2.6,3.565,3.565,0,0,0,1.312,1.35,3.25,3.25,0,0,0,1.57.4,3.066,3.066,0,0,0,1.511-.4,3.37,3.37,0,0,0,1.252-1.35,8.8,8.8,0,0,0,.854-2.6,22.468,22.468,0,0,0,.318-4.15ZM29.45,222.11a.672.672,0,0,1-.672-.672V203.882a3.053,3.053,0,0,0-.259-1.568q-.3-.536-.656-1.211a3.341,3.341,0,0,1-.576-1.41q-.021-.5.775-.5h7.25a2.549,2.549,0,0,1,1.392.377,1.781,1.781,0,0,1,.6,1.608v2.378a.924.924,0,0,0,.925.923h4.746a.048.048,0,0,1,.048.048v2.481a.048.048,0,0,1-.048.048H38.315a1.014,1.014,0,0,0-1.014,1.014v4.077a1.07,1.07,0,0,0,1.07,1.07h4.6a.048.048,0,0,1,.048.048v2.481a.048.048,0,0,1-.048.048H38.315a1.014,1.014,0,0,0-1.014,1.014v3.314q0,1.232-.6,1.609a2.54,2.54,0,0,1-1.392.377Z" transform="translate(0 -105.901)" fill="#009174"/>
      <path id="패스_2" data-name="패스 2" d="M115.162,238.05V222.83a2.335,2.335,0,0,0-2.336-2.334h-12.49a.048.048,0,0,1-.048-.048v-2.481a.048.048,0,0,1,.048-.048h21.448a.046.046,0,0,0,.028-.009,11,11,0,0,0,2.753-2.873A12.9,12.9,0,0,0,126.056,211a34.867,34.867,0,0,0,.5-3.673q.139-1.767.139-3.2v-.363a1.151,1.151,0,0,0-1.152-1.15H103.646a.048.048,0,0,1-.048-.048v-2.481a.048.048,0,0,1,.048-.048H133.33a2.548,2.548,0,0,1,1.391.377,1.781,1.781,0,0,1,.6,1.608v2.423a40.5,40.5,0,0,1-.2,4.07,14.149,14.149,0,0,1-.676,3.733,8.4,8.4,0,0,1-2.253,3.371,14.6,14.6,0,0,1-3.379,2.2.047.047,0,0,0,.02.089h9.534a.048.048,0,0,1,.048.048v2.481a.048.048,0,0,1-.048.048H125.941a2.153,2.153,0,0,0-2.154,2.152v12.928a3.947,3.947,0,0,1-.364,2,2.872,2.872,0,0,1-1.8,1.042c-.462.077-3.621.337-5.346.467a1.04,1.04,0,0,1-1.119-1.04" transform="translate(-53.318 -106.352)" fill="#009174"/>
      <path id="패스_3" data-name="패스 3" d="M29.268,247.922c10.352,0,13.641,4.9,13.641,7.887v.656c0,2.992-3.289,7.887-13.641,7.887H26.681c-10.352,0-13.694-4.9-13.694-7.887v-.656c0-2.991,3.343-7.887,13.694-7.887Zm5.158,8.243a6.9,6.9,0,0,0-4.139-6.058,6.294,6.294,0,0,0-4.626,0,6.463,6.463,0,0,0,0,12.061,6.287,6.287,0,0,0,4.626,0,6.948,6.948,0,0,0,4.139-6" transform="translate(-6.904 -131.805)" fill="#009174"/>
      <path id="패스_4" data-name="패스 4" d="M230.966,246.689H191.024a.048.048,0,0,0-.048.048v2.481a.048.048,0,0,0,.048.048h14.409a2.122,2.122,0,0,1,2.123,2.121v8.926h0v2.535a1.04,1.04,0,0,0,1.119,1.04c1.725-.131,4.884-.391,5.346-.468a2.873,2.873,0,0,0,1.8-1.043,3.945,3.945,0,0,0,.364-2v-9.14a1.969,1.969,0,0,1,1.97-1.968h12.81a.047.047,0,0,0,.048-.048v-2.481a.048.048,0,0,0-.048-.048" transform="translate(-101.531 -131.15)" fill="#009174"/>
      <path id="패스_5" data-name="패스 5" d="M210.827,213.549a32.636,32.636,0,0,0,3.971-3.938.043.043,0,0,1,.041-.016,8.918,8.918,0,0,1,3.511,1.982,24.357,24.357,0,0,1,6,6.419c1.016,1.625,2.012,1.053,3.761-.112,2.928-1.95,4.331-2.407,1.861-5.393a14.123,14.123,0,0,0-6.95-4.6h0a27.364,27.364,0,0,0-3.454-.694c-1.054-.144-1.778-.253-2.675-.312a.269.269,0,0,1-.243-.352,7.148,7.148,0,0,0,.944-3.812V200.8a1.566,1.566,0,0,0-.427-1.259,1.862,1.862,0,0,0-1.342-.352h-8.133q-.809,0-.789.51c.009.247.234.431.576.827a6.975,6.975,0,0,1,.528.65c.366.569.224.883.224,2.763a10.973,10.973,0,0,1-1.565,5.2,15.608,15.608,0,0,1-2.843,3.2,19.051,19.051,0,0,1-4.386,2.7,17.9,17.9,0,0,1-4.767,1.434l.032,2.478a49.312,49.312,0,0,0,8.446-1.565,26.964,26.964,0,0,0,7.685-3.839" transform="translate(-103.491 -105.898)" fill="#009174"/>
      <path id="패스_6" data-name="패스 6" d="M391.132,214.106a11.661,11.661,0,0,0,3.836,1.588,22.147,22.147,0,0,0,5.088.536q5.8,0,9-2.124a6.81,6.81,0,0,0,3.2-6.016v-.159a6.822,6.822,0,0,0-3.18-6.016q-3.18-2.124-8.943-2.124a21.825,21.825,0,0,0-5.148.556,12.246,12.246,0,0,0-3.856,1.588,7.209,7.209,0,0,0-2.4,2.542,7.02,7.02,0,0,0-.835,3.455v.159a7.016,7.016,0,0,0,.835,3.455,7.361,7.361,0,0,0,2.4,2.561m5.028-6.175a14.489,14.489,0,0,1,.3-3.2,6.242,6.242,0,0,1,.834-2.085,3.163,3.163,0,0,1,1.253-1.132,3.5,3.5,0,0,1,1.51-.337,3.594,3.594,0,0,1,1.55.337,2.914,2.914,0,0,1,1.212,1.132,6.889,6.889,0,0,1,.8,2.085,14.489,14.489,0,0,1,.3,3.2v.159a14.485,14.485,0,0,1-.3,3.2,6.877,6.877,0,0,1-.8,2.085,2.936,2.936,0,0,1-1.193,1.131,3.358,3.358,0,0,1-1.49.338,3.709,3.709,0,0,1-1.57-.338,3.105,3.105,0,0,1-1.272-1.131,6.232,6.232,0,0,1-.834-2.085,14.485,14.485,0,0,1-.3-3.2Z" transform="translate(-206.219 -106.217)" fill="#009174"/>
      <path id="패스_7" data-name="패스 7" d="M405.724,261.625a1.781,1.781,0,0,0-.6-1.608,2.549,2.549,0,0,0-1.391-.377h-7.354q-.795,0-.775.5a3.327,3.327,0,0,0,.576,1.41q.358.675.656,1.211a3.051,3.051,0,0,1,.259,1.568v3.521c0,.82-.241,1.544.6,2.2a4.328,4.328,0,0,0,2.5.377h28.463a.047.047,0,0,0,.048-.048v-2.481a.047.047,0,0,0-.048-.048H406.962a1.237,1.237,0,0,1-1.238-1.236Z" transform="translate(-210.322 -138.035)" fill="#009174"/>
      <path id="패스_8" data-name="패스 8" d="M422.188,201.181a1.781,1.781,0,0,0-.6-1.608,2.548,2.548,0,0,0-1.391-.377h-7.354q-.795,0-.775.5a3.327,3.327,0,0,0,.576,1.41q.359.675.656,1.211a3.053,3.053,0,0,1,.259,1.568V215h0v2.539a.048.048,0,0,1-.048.048H383.849a.048.048,0,0,0-.048.048v2.481a.048.048,0,0,0,.048.048h8.8a1.452,1.452,0,0,1,1.452,1.451v3.879a.552.552,0,0,0,.553.552h4.892a2.541,2.541,0,0,0,1.392-.377q.6-.377.6-1.608v-2.729a1.169,1.169,0,0,1,1.169-1.168h10.809a.048.048,0,0,1,.048.048v1.672a1.214,1.214,0,0,1-1.214,1.213h-7.009a.048.048,0,0,0-.048.048v2.555a.048.048,0,0,0,.048.048h6.7a1.452,1.452,0,0,1,1.519,1.489v4.456a1.04,1.04,0,0,0,1.119,1.04c1.725-.131,4.885-.391,5.346-.467a2.873,2.873,0,0,0,1.8-1.043,3.946,3.946,0,0,0,.364-2v-1.776c0-.015,0-.029,0-.044Z" transform="translate(-204.045 -105.901)" fill="#009174"/>
      <path id="패스_9" data-name="패스 9" d="M326.964,255.277a1.781,1.781,0,0,0-.6-1.608,2.543,2.543,0,0,0-1.391-.377H295.759a.048.048,0,0,0-.048.048v2.481a.048.048,0,0,0,.048.048h20.973a1.566,1.566,0,0,1,1.567,1.565v7.822h.007v1.069a1.041,1.041,0,0,0,1.12,1.041c1.732-.131,4.908-.391,5.372-.468a2.887,2.887,0,0,0,1.8-1.044,3.937,3.937,0,0,0,.366-2.007v-8.43h0Z" transform="translate(-157.212 -134.66)" fill="#009174"/>
      <path id="패스_10" data-name="패스 10" d="M311.543,218.834a1.284,1.284,0,0,1-1.285-1.284v-3.046h9.818a2.543,2.543,0,0,0,1.391-.377q.6-.377.6-1.608V201.967a1.781,1.781,0,0,0-.6-1.608,2.543,2.543,0,0,0-1.391-.377H290.186q-.795,0-.775.5a3.326,3.326,0,0,0,.576,1.41q.359.676.656,1.212a3.05,3.05,0,0,1,.259,1.568v7.853a1.781,1.781,0,0,0,.6,1.608,2.544,2.544,0,0,0,1.392.377h8.7a.048.048,0,0,1,.048.048v2.871a1.411,1.411,0,0,1-1.411,1.411h-13.6a.048.048,0,0,0-.048.048v2.481a.048.048,0,0,0,.048.048h39.324a.048.048,0,0,0,.048-.048v-2.481a.048.048,0,0,0-.048-.048Zm-11.986-6.952v-9.155a.048.048,0,0,1,.048-.048h13.746a.048.048,0,0,1,.048.048v9.155a.047.047,0,0,1-.048.048H299.605a.048.048,0,0,1-.048-.048" transform="translate(-152.352 -106.318)" fill="#009174"/>
      <path id="패스_11" data-name="패스 11" d="M227.875,20.28c.821,2.3-.765,3.883-3.3,4.334-3.723.662-7.078,1.281-10.381,2.111-2.032.511-7.431-1.258-9.495-.528-1.73.612-.109,3.681-1.956,4.524a66.78,66.78,0,0,0-19.613,14.043,1.128,1.128,0,0,1-1.475.118c-.34-.305-.417-.848.11-1.477,12.143-14.472,24.621-22.464,42.067-25.015,0,0,3.068-.846,4.046,1.891" transform="translate(-96.43 -9.711)" fill="#f68a53"/>
      <path id="패스_12" data-name="패스 12" d="M291.537.332l1.615,4.383a1.263,1.263,0,0,0,.873.787l4.636,1.183a.453.453,0,0,1,.168.794l-3.812,3a1.135,1.135,0,0,0-.431.965l.316,4.909a.418.418,0,0,1-.649.373l-4.1-2.742a1.115,1.115,0,0,0-1.03-.11l-4.5,1.787A.463.463,0,0,1,284,15.1l1.324-4.679a1.065,1.065,0,0,0-.205-.97l-3.169-3.817a.415.415,0,0,1,.3-.68l4.9-.189a1.178,1.178,0,0,0,.95-.547L290.632.236a.507.507,0,0,1,.9.1" transform="translate(-149.846 0)" fill="#f68a53"/>
      <path id="패스_13" data-name="패스 13" d="M253.918,44.412c-.076,1.695-1.424,2.353-3.189,2.045-5.515-.964-9.9-1.661-15.708-1.2a46.44,46.44,0,0,0-16.15,4.508.784.784,0,0,1-.991-.273c-.149-.28-.07-.653.424-.938a65.6,65.6,0,0,1,8.334-4.108c1.507-.605,5.933.858,7.43.422s.064-2.769,1.567-3.033a42.144,42.144,0,0,1,16.093.382s2.268.5,2.191,2.2" transform="translate(-115.798 -21.922)" fill="#f68a53"/>
      <path id="패스_14" data-name="패스 14" d="M229.57,136.782c-3.782-.856-3.916-5.942-3.916-5.942v-9.06l14.184-.615V130.7a1.855,1.855,0,0,1-.9,1.681,5.013,5.013,0,0,1-2.261.509c-3.079,0-2.586,4.918-7.111,3.893" transform="translate(-119.967 -64.416)" fill="#ec7fa4"/>
      <path id="패스_15" data-name="패스 15" d="M237.225,64.461l-7.778-11.647a.476.476,0,0,1,.474-.733l1.751.29a.476.476,0,0,0,.474-.733l-8.014-12a.476.476,0,0,1,.432-.739l.661.051a.476.476,0,0,0,.422-.754l-6.89-9.461a.476.476,0,0,1,.385-.756h.741a.475.475,0,0,0,.381-.76l-6.1-8.148a.475.475,0,0,1,.382-.76.476.476,0,0,0,.386-.754s-3.649-5.157-4.33-6.1-1.456-.96-2.1,0-4.261,6.1-4.261,6.1a.476.476,0,0,0,.386.754.475.475,0,0,1,.382.76l-6.1,8.148a.475.475,0,0,0,.381.76h.741a.476.476,0,0,1,.385.756l-6.89,9.461a.476.476,0,0,0,.422.754l.661-.051a.476.476,0,0,1,.432.739l-8.014,12a.476.476,0,0,0,.474.733l1.751-.29a.476.476,0,0,1,.474.733l-7.778,11.647a.476.476,0,0,0,.474.733l10.032-1.664-1.327,1.987a.476.476,0,0,0,.474.733L202.2,64.493l6.051,3.613a2.375,2.375,0,0,0,2.556-.078l5.339-3.646L227.4,66.25a.476.476,0,0,0,.474-.733L226.528,63.5l10.223,1.7a.476.476,0,0,0,.474-.733M217.517,36.532c0,1.535-.813,2.779-1.817,2.779s-1.816-1.244-1.816-2.779.813-2.779,1.816-2.779,1.817,1.244,1.817,2.779m-3.779-12.943,1.922,3.5-1.439.789-1.921-3.5Zm-4.906-.173,1.639.077-.2,4.3-1.639-.077Zm-3.384-.027,1.394.864-2.186,3.522-1.394-.864Zm-1.965,10.364c1,0,1.816,1.244,1.816,2.779s-.813,2.779-1.816,2.779-1.817-1.244-1.817-2.779.813-2.779,1.817-2.779m-9.93,24.92-1.546-.965,3.766-6.024,1.546.965Zm7.3,3.191-1.7-.666,2.307-5.868,1.7.666Zm9.273-.332-1.823-.02.069-6.171,1.823.02Zm-.243-11.472c-4.009,0-7.688-2.478-8.558-5.765a1.185,1.185,0,0,1,2.291-.605c.594,2.244,3.346,4,6.267,4a6.336,6.336,0,0,0,5.716-4.1,1.185,1.185,0,0,1,2.227.81,8.67,8.67,0,0,1-7.942,5.662m6.705,11.177-1.167-5.452L217.2,55.4l1.167,5.452Zm9.3,1.3-.1-.143h.119Zm-.252-3.5-3.912-6.1,1.536-.983,3.912,6.1Z" transform="translate(-96.693 -5.71)" fill="#009174"/>
      <path id="패스_16" data-name="패스 16" d="M19.877,309.311a4.183,4.183,0,0,0-1,3.3,9.152,9.152,0,0,0,.3,3.21c.3.616,1.426.489,1.426,1.488,0,1.531-3.362,1.531-4.4,1.531-3.36,0-4.3-.763-4.3-1.338,0-1.148.865-.687,1.248-1.559.392-.316.261-1.7.261-3.758a3.32,3.32,0,0,0-.936-2.572l-2.4-2.785c-1.043-1.212-2.255-1.349-2.255-2.152,0-.489.655-1.445,4.165-1.445,2.808,0,4.329.26,4.329.962,0,.553-.7.9-.7,1.345,0,.467,1.388,3.008,1.813,2.689a7.033,7.033,0,0,0,1.815-2.513c0-.6-.612-.7-.612-1.228,0-1.254,1.665-1.254,3.276-1.254,1.548,0,2.894.319,2.894,1.254,0,1.134-.772,1.027-1.717,1.553a3.267,3.267,0,0,0-.81.658Z" transform="translate(-4.153 -161.207)" fill="#009174"/>
      <path id="패스_17" data-name="패스 17" d="M49.616,318.64c0,3.741,1.276,1.7,1.276,2.849,0,1.212-1.66,2.53-3.213,2.53-1.681,0-1.724-1.084-2.255-1.084-.255,0-.532.277-1,.532a3.889,3.889,0,0,1-2.085.553c-1.766,0-3.532-.936-3.532-3.04,0-1.509,1.447-3.38,5.191-3.38.66,0,.957.043.957-.723,0-.7-.021-2.168-1-2.168-1.277,0-1.4,2.3-3.3,2.3a1.146,1.146,0,0,1-1.192-1.17c0-1.807,3.6-2.976,5.617-2.976,1.213,0,4.532.467,4.532,3.656Zm-6.383,1.871c0,.553.3,1.148.915,1.148.808,0,.873-.871.873-1.509,0-.468.021-1-.575-1a1.3,1.3,0,0,0-1.213,1.36" transform="translate(-20.632 -166.328)" fill="#009174"/>
      <path id="패스_18" data-name="패스 18" d="M72.7,320.244c0,2.062.723,1.7.723,2.508,0,1.318-2.83,1.276-3.7,1.276-.851,0-3.021,0-3.021-1.276,0-1.021.979-.106,1.043-2.19l.085-3.188c.043-1.573-1.255-1.063-1.255-2.19s4.893-2.19,5.319-2.19a.79.79,0,0,1,.766.829c0,.128-.021.256-.021.383,0,.255.106.553.425.553.341,0,.532-.446.957-.893a2.963,2.963,0,0,1,2.277-.871c4.4,0,3.66,4.315,3.872,7.547.106,1.68.979,1.3.979,2.211,0,.383.085,1.276-3.915,1.276-.766,0-2.809.042-2.809-1.148,0-.766.7-.4.809-1.786.106-1.509.7-4.911-1.3-4.911-1.362,0-1.234,1.467-1.234,2.423Z" transform="translate(-35.394 -166.401)" fill="#009174"/>
      <path id="패스_19" data-name="패스 19" d="M105.526,327.361c-3.936,0-5.426-1.488-5.426-2.849,0-1.233,1.17-1.254,1.17-1.573,0-.277-1.149-.872-1.149-1.807,0-1.509,1.724-1.956,1.724-2.253,0-.255-1.447-1.233-1.447-2.806,0-2.572,3.213-3.763,5.362-3.763,1.085,0,2.553.4,3.3.4,1.617,0,2.425-1.126,2.745-1.126.489,0,.7.637.7,1.041,0,1.191-1.192,2.041-1.192,2.275,0,.212.064.446.064.659,0,2.87-3.341,3.848-5.681,3.848-.362,0-.724-.064-1.107-.064a.536.536,0,0,0-.574.574c0,.659.936.787,1.426.787.66,0,3.128-.361,3.979-.361,2.213,0,3.149,1.254,3.149,2.529,0,1.914-1.83,4.486-7.043,4.486m.213-1.828c.7,0,2.3-.106,2.3-1.084,0-.446-.425-.638-.829-.638-.32,0-1.149.128-1.83.128-.49,0-1.639-.17-1.872-.17-.192,0-.255.191-.255.34,0,1.126,1.66,1.424,2.489,1.424m.128-11.67c-.83,0-1.192.787-1.192,1.531,0,.808.213,2.572,1.3,2.572.957,0,1.277-.829,1.277-1.658,0-.871-.192-2.445-1.383-2.445" transform="translate(-53.218 -165.653)" fill="#009174"/>
      <path id="패스_20" data-name="패스 20" d="M134.267,327.361c-3.936,0-5.426-1.488-5.426-2.849,0-1.233,1.17-1.254,1.17-1.573,0-.277-1.149-.872-1.149-1.807,0-1.509,1.724-1.956,1.724-2.253,0-.255-1.447-1.233-1.447-2.806,0-2.572,3.213-3.763,5.362-3.763,1.085,0,2.553.4,3.3.4,1.617,0,2.425-1.126,2.745-1.126.489,0,.7.637.7,1.041,0,1.191-1.192,2.041-1.192,2.275,0,.212.064.446.064.659,0,2.87-3.341,3.848-5.681,3.848-.362,0-.724-.064-1.107-.064a.536.536,0,0,0-.574.574c0,.659.936.787,1.426.787.66,0,3.128-.361,3.979-.361,2.213,0,3.149,1.254,3.149,2.529,0,1.914-1.83,4.486-7.043,4.486m.213-1.828c.7,0,2.3-.106,2.3-1.084,0-.446-.425-.638-.829-.638-.32,0-1.149.128-1.83.128-.49,0-1.639-.17-1.872-.17-.192,0-.255.191-.255.34,0,1.126,1.66,1.424,2.489,1.424m.128-11.67c-.83,0-1.192.787-1.192,1.531,0,.808.213,2.572,1.3,2.572.957,0,1.277-.829,1.277-1.658,0-.871-.192-2.445-1.383-2.445" transform="translate(-68.497 -165.653)" fill="#009174"/>
      <path id="패스_21" data-name="패스 21" d="M161.971,319.2c0,.85.064,2.168,1.213,2.168,1.532,0,1.32-2,1.32-3.018a16.455,16.455,0,0,0-.085-2.3c-.171-1.063-1.213-.7-1.213-1.594,0-1.254,4.277-1.467,5.085-1.467.766,0,1.085.446,1.085,1.19,0,.68-.043,1.339-.043,2.02v4.273c0,1.276,1.17.68,1.17,1.7,0,1.446-3.766,1.85-4.936,1.85-1.639,0-.553-1.276-1.4-1.276-.234,0-.575.319-1.085.638a3.886,3.886,0,0,1-2.128.638c-4.042,0-3.7-3.189-3.7-6.378,0-3.252-1.468-1.828-1.468-3.231,0-1.36,5.362-1.424,5.532-1.424.6,0,.66.276.66.808Z" transform="translate(-82.819 -166.401)" fill="#009174"/>
      <path id="패스_22" data-name="패스 22" d="M201.515,311.052a13.365,13.365,0,0,0,1.532-5.017,2.3,2.3,0,0,1,2.575-2.572c1.851,0,2.521,2,3.351,3.4.362.616,2.839,6.937,3.667,8.651.6,1.247,1.382.9,1.46,1.871.094,1.165-.992,1.571-2.52,1.571-3.043,0-4.872-.012-4.872-1.339,0-1.02,1.3-.638,1.3-1.382,0-.957-.532-1.041-3.958-1.041-1.106,0-1.766.042-1.766,1.084,0,.829,1.362.277,1.362,1.382,0,1.275-1.3,1.3-3.149,1.3-3.042,0-3.319-.574-3.319-1.254,0-1,1.149-.7,1.766-1.467a12.292,12.292,0,0,0,1.234-2.274Zm4.468,1.531c.213,0,.851.043.851-.276a10.5,10.5,0,0,0-.675-1.84c-.264-.643-.542-1.3-1.009-1.3-.511,0-1,1.567-1.081,1.8a7.379,7.379,0,0,0-.447,1.318c0,.361.532.3.766.3Z" transform="translate(-104.826 -161.334)" fill="#009174"/>
      <path id="패스_23" data-name="패스 23" d="M236.031,317.353c0-2.083-1.319-.914-1.319-2.211,0-1.68,4.979-2.147,5.17-2.147.808,0,.83.212.915.936.022.255,0,.744.362.744.511,0,.829-1.68,2.66-1.68a2.318,2.318,0,0,1,2.362,2.466,2.6,2.6,0,0,1-2.617,2.551c-1.383,0-1.766-1.212-2.32-1.212-.6,0-.49,1.425-.49,1.807a19.516,19.516,0,0,0,.171,2.339c.127.935,1.745.361,1.745,1.637,0,1.339-1.873,1.446-4.213,1.446-.978,0-3.7.168-3.7-1.3,0-.893.8-1.019,1.038-1.763a10.484,10.484,0,0,0,.234-2.338Z" transform="translate(-124.782 -166.401)" fill="#009174"/>
      <path id="패스_24" data-name="패스 24" d="M265.176,309.251c0,.106-.021.34.149.34.106,0,.447-.34,1-.659a4.212,4.212,0,0,1,2.234-.659c2.255,0,4.17,1.892,4.17,4.7a6.3,6.3,0,0,1-6.383,6.463,8.243,8.243,0,0,1-4.277-1.382c-.34,0-.681.319-1.383.319-.3,0-.638-.085-.638-.425a13.924,13.924,0,0,0,.425-3.784v-5.655c0-1.233-1.6-.68-1.6-1.892,0-1.424,4.128-2.381,5.893-2.381.575,0,.553.446.532.914Zm1.085,2.3c-.936,0-1.043.765-1.043,1.488,0,4.124.234,4.464,1.085,4.464,1.4,0,1.638-1.594,1.638-2.679,0-1-.277-3.273-1.681-3.273" transform="translate(-137.631 -161.743)" fill="#009174"/>
      <path id="패스_25" data-name="패스 25" d="M290.519,318.81c0-3.805,3.341-5.952,6.851-5.952a5.659,5.659,0,0,1,5.851,5.548c0,3.486-3.745,5.612-6.872,5.612-3.149,0-5.83-1.849-5.83-5.208m5.937-3.444a1.117,1.117,0,0,0-1.043,1.275c.085,1.339.468,4.613,1.936,4.7.808.043.978-.637.978-1.318,0-.957-.425-4.655-1.872-4.655" transform="translate(-154.452 -166.328)" fill="#009174"/>
      <path id="패스_26" data-name="패스 26" d="M319.9,317.353c0-2.083-1.319-.914-1.319-2.211,0-1.68,4.979-2.147,5.17-2.147.808,0,.83.212.915.936.022.255,0,.744.362.744.511,0,.829-1.68,2.66-1.68a2.318,2.318,0,0,1,2.362,2.466,2.6,2.6,0,0,1-2.617,2.551c-1.383,0-1.767-1.212-2.32-1.212-.6,0-.49,1.425-.49,1.807a19.51,19.51,0,0,0,.171,2.339c.127.935,1.745.361,1.745,1.637,0,1.339-1.873,1.446-4.213,1.446-.978,0-3.872.043-3.872-1.425,0-.893.979-.893,1.213-1.637a10.481,10.481,0,0,0,.234-2.338Z" transform="translate(-169.305 -166.401)" fill="#009174"/>
      <path id="패스_27" data-name="패스 27" d="M348.654,318.832c-.234,0-.574-.064-.574.3,0,1.063,1.383,1.956,2.383,1.956,1.6,0,2.383-.957,2.83-.957s.829.659.829,1.063c0,1.637-3,2.827-4.915,2.827a5.461,5.461,0,0,1-5.809-5.506,5.8,5.8,0,0,1,5.979-5.655,4.9,4.9,0,0,1,5.213,4.379c0,1.4-.638,1.594-1.319,1.594Zm1.851-2.679a1.246,1.246,0,0,0-1.255-1.36,1.411,1.411,0,0,0-1.277,1.4c0,.765.724.6,1.277.6.574,0,1.255.127,1.255-.638" transform="translate(-182.565 -166.328)" fill="#009174"/>
      <path id="패스_28" data-name="패스 28" d="M374.191,316.131c0,1.424.6,1.764,1.17,1.764.66,0,1.043-.489,1.426-.489.425,0,.723.6.723.978,0,1.4-2.425,2.636-4.574,2.636a3.586,3.586,0,0,1-3.809-3.848v-4.379c0-.383,0-.532-.106-.6a2.782,2.782,0,0,0-.83-.021c-.553,0-.829.021-.936-.085-.149-.149-.106-.361-.106-.85,0-.3-.064-.532.192-.7l4.851-3.083c.49-.3.468-.233,1.106-.233.851,0,.894-.085.894.893a6.516,6.516,0,0,0,.064,1.573c.064.17.213.17.766.17h1.489c.915,0,.915.064.915,1.021,0,1.212-.149,1.3-.979,1.3h-1.468c-.745,0-.787.021-.787.787Z" transform="translate(-195.187 -163.33)" fill="#009174"/>
      <path id="패스_29" data-name="패스 29" d="M396.159,319.176c0,.85.064,2.168,1.213,2.168,1.532,0,1.32-2,1.32-3.018a16.455,16.455,0,0,0-.085-2.3c-.171-1.063-1.213-.7-1.213-1.594,0-1.254,4.277-1.467,5.085-1.467.766,0,1.085.446,1.085,1.19,0,.681-.043,1.339-.043,2.02v4.273c0,1.276.785.842.785,1.862,0,1.446-3.381,1.689-4.551,1.689-1.639,0-.553-1.276-1.4-1.276-.234,0-.575.319-1.085.638a3.886,3.886,0,0,1-2.128.638c-4.042,0-3.5-3.537-3.5-6.726,0-3.712-.965-2.075-.946-3.225.023-1.36,4.637-1.083,4.808-1.083.6,0,.659.276.659.808Z" transform="translate(-207.708 -166.374)" fill="#009174"/>
      <path id="패스_30" data-name="패스 30" d="M422.755,317.863c0-1.36-.277-1.743-.49-1.935-.276-.234-.574-.212-.574-.765,0-1.573,5.277-2.168,5.319-2.168.532,0,.575.467.575.914,0,.255-.085.978.362.978.213,0,.553-.467,1.149-.957a4.209,4.209,0,0,1,2.7-.935c2.532,0,2.553,1.891,3,1.891.17,0,.553-.467,1.17-.957a4.316,4.316,0,0,1,2.574-.935,2.945,2.945,0,0,1,3.277,3.188v4.486c0,1.233.787,1.339.787,1.956,0,1.339-2.426,1.4-3.255,1.4-.7,0-3.171-.149-3.171-1.254,0-.787.745-.765.745-2v-1.913c0-.893.106-2.679-1.106-2.679-1.192,0-1.085,1.446-1.085,2.232v1.318c0,2.615.766,2.169.766,2.955,0,1.318-2.553,1.339-3.32,1.339-3.213,0-3.383-.6-3.362-1.19.022-1.127,1.085-.234,1.022-2.764v-1.212c0-.766.106-2.679-1.107-2.679-1.191,0-1.085,1.446-1.085,2.232v1.722c0,1.956.574,1.828.574,2.594,0,.553-.49,1.3-3.4,1.3-.829,0-3.341.022-3.341-1.105,0-.957,1.277-.446,1.277-3.1Z" transform="translate(-224.075 -166.401)" fill="#009174"/>
    </g>
  </g>
</svg>
