<svg xmlns="http://www.w3.org/2000/svg" width="104" height="28" viewBox="0 0 104 28">
  <g id="logo_c" transform="translate(-126.48 -284.873)">
    <g id="한글" transform="translate(155.881 288.29)">
      <path id="패스_10024" data-name="패스 10024" d="M274.57,305.848a4.265,4.265,0,0,1,.291-1.64,2.754,2.754,0,0,1,.837-1.047,3.681,3.681,0,0,1,1.331-.622,7.021,7.021,0,0,1,1.756-.2,5.048,5.048,0,0,1,3.06.824,3.243,3.243,0,0,1,1.115,2.686v.2a3.576,3.576,0,0,1-.291,1.5,2.714,2.714,0,0,1-.831,1.047,3.678,3.678,0,0,1-1.317.615,7,7,0,0,1-1.763.2,6.863,6.863,0,0,1-1.743-.2,3.75,3.75,0,0,1-1.317-.615,2.685,2.685,0,0,1-.837-1.047,3.576,3.576,0,0,1-.291-1.5Zm5.552-.147a7.665,7.665,0,0,0-.108-1.412,2.861,2.861,0,0,0-.3-.885,1.192,1.192,0,0,0-.432-.459,1.082,1.082,0,0,0-1.047,0,1.173,1.173,0,0,0-.439.459,2.953,2.953,0,0,0-.3.885,7.219,7.219,0,0,0-.115,1.412v.351a7.219,7.219,0,0,0,.115,1.412,2.83,2.83,0,0,0,.311.885,1.214,1.214,0,0,0,.446.459,1.1,1.1,0,0,0,.533.135,1.041,1.041,0,0,0,.513-.135,1.147,1.147,0,0,0,.426-.459,3,3,0,0,0,.29-.885,7.666,7.666,0,0,0,.108-1.412Zm4.457,4.228a.228.228,0,0,1-.229-.228v-5.972a1.039,1.039,0,0,0-.088-.534q-.1-.182-.223-.412a1.136,1.136,0,0,1-.2-.48q-.007-.168.263-.169h2.464a.867.867,0,0,1,.473.128.606.606,0,0,1,.2.547v.809a.314.314,0,0,0,.314.314h1.613a.016.016,0,0,1,.016.016v.844a.016.016,0,0,1-.016.016h-1.582a.345.345,0,0,0-.345.345v1.387a.364.364,0,0,0,.364.364h1.563a.016.016,0,0,1,.016.016v.844a.016.016,0,0,1-.016.016h-1.582a.345.345,0,0,0-.345.345v1.128a.606.606,0,0,1-.2.547.864.864,0,0,1-.473.128Z" transform="translate(-274.57 -302.134)" fill="#139274"/>
      <path id="패스_10025" data-name="패스 10025" d="M360.239,315.746v-5.177a.794.794,0,0,0-.794-.794H355.2a.016.016,0,0,1-.016-.016v-.844a.016.016,0,0,1,.016-.016h7.289a.017.017,0,0,0,.01,0,3.748,3.748,0,0,0,.935-.978,4.387,4.387,0,0,0,.507-1.372,11.851,11.851,0,0,0,.169-1.249q.047-.6.047-1.088v-.124a.391.391,0,0,0-.391-.392h-7.441a.016.016,0,0,1-.016-.016v-.844a.016.016,0,0,1,.016-.016h10.088a.865.865,0,0,1,.473.128.606.606,0,0,1,.2.547v.824a13.807,13.807,0,0,1-.068,1.385,4.822,4.822,0,0,1-.23,1.27,2.856,2.856,0,0,1-.766,1.147,4.966,4.966,0,0,1-1.149.75.016.016,0,0,0,.007.03h3.24a.016.016,0,0,1,.016.016v.844a.016.016,0,0,1-.016.016H363.9a.732.732,0,0,0-.732.732v4.4a1.343,1.343,0,0,1-.124.682.977.977,0,0,1-.61.355c-.157.026-1.231.115-1.817.159a.354.354,0,0,1-.38-.354" transform="translate(-339.181 -302.681)" fill="#139274"/>
      <path id="패스_10026" data-name="패스 10026" d="M290.543,341.338c3.518,0,4.636,1.665,4.636,2.683v.223c0,1.018-1.118,2.683-4.636,2.683h-.88c-3.518,0-4.654-1.665-4.654-2.683v-.223c0-1.018,1.136-2.683,4.654-2.683Zm1.753,2.8a2.346,2.346,0,0,0-1.407-2.061,2.138,2.138,0,0,0-1.572,0,2.2,2.2,0,0,0,0,4.1,2.138,2.138,0,0,0,1.572,0,2.364,2.364,0,0,0,1.407-2.042" transform="translate(-282.94 -333.926)" fill="#139274"/>
      <path id="패스_10027" data-name="패스 10027" d="M441.671,340.345H428.1a.016.016,0,0,0-.016.016v.844a.016.016,0,0,0,.016.016h4.9a.722.722,0,0,1,.722.722v3.036h0v.863a.354.354,0,0,0,.38.354c.586-.044,1.66-.133,1.817-.159a.977.977,0,0,0,.61-.355,1.343,1.343,0,0,0,.124-.682v-3.109a.669.669,0,0,1,.669-.669h4.354a.016.016,0,0,0,.016-.016v-.844a.016.016,0,0,0-.016-.016" transform="translate(-397.605 -333.127)" fill="#139274"/>
      <path id="패스_10028" data-name="패스 10028" d="M436.537,307.015a11.109,11.109,0,0,0,1.35-1.339.014.014,0,0,1,.014-.006,3.03,3.03,0,0,1,1.193.674,8.284,8.284,0,0,1,2.038,2.184c.346.553.684.358,1.278-.038,1-.663,1.472-.819.632-1.835a4.8,4.8,0,0,0-2.362-1.564h0a9.258,9.258,0,0,0-1.174-.236c-.358-.049-.6-.086-.909-.106a.091.091,0,0,1-.082-.12,2.434,2.434,0,0,0,.321-1.3v-.653a.533.533,0,0,0-.145-.428.632.632,0,0,0-.456-.12h-2.764q-.275,0-.268.173c0,.084.079.147.2.281a2.408,2.408,0,0,1,.18.221c.124.193.076.3.076.94a3.736,3.736,0,0,1-.532,1.769,5.3,5.3,0,0,1-.966,1.09,6.464,6.464,0,0,1-1.49.917,6.086,6.086,0,0,1-1.62.488l.011.843a16.777,16.777,0,0,0,2.87-.532,9.166,9.166,0,0,0,2.612-1.306" transform="translate(-399.982 -302.13)" fill="#139274"/>
      <path id="패스_10029" data-name="패스 10029" d="M587.464,307.482a3.958,3.958,0,0,0,1.3.541,7.532,7.532,0,0,0,1.729.182,5.5,5.5,0,0,0,3.06-.723,2.317,2.317,0,0,0,1.088-2.046v-.054a2.321,2.321,0,0,0-1.081-2.047,5.439,5.439,0,0,0-3.04-.723,7.42,7.42,0,0,0-1.749.189,4.163,4.163,0,0,0-1.31.541,2.451,2.451,0,0,0-.817.864,2.391,2.391,0,0,0-.284,1.175v.054a2.39,2.39,0,0,0,.284,1.175,2.5,2.5,0,0,0,.817.871m1.709-2.1a4.941,4.941,0,0,1,.1-1.088,2.126,2.126,0,0,1,.284-.709,1.075,1.075,0,0,1,.426-.385,1.189,1.189,0,0,1,.513-.115,1.219,1.219,0,0,1,.527.115.988.988,0,0,1,.412.385,2.342,2.342,0,0,1,.27.709,4.937,4.937,0,0,1,.1,1.088v.054a4.937,4.937,0,0,1-.1,1.088,2.337,2.337,0,0,1-.27.709,1,1,0,0,1-.405.385,1.143,1.143,0,0,1-.507.115,1.26,1.26,0,0,1-.533-.115,1.057,1.057,0,0,1-.432-.385,2.122,2.122,0,0,1-.284-.709,4.941,4.941,0,0,1-.1-1.088Z" transform="translate(-524.466 -302.516)" fill="#139274"/>
      <path id="패스_10030" data-name="패스 10030" d="M596,351.44a.606.606,0,0,0-.2-.547.865.865,0,0,0-.473-.129h-2.5q-.27,0-.263.169a1.132,1.132,0,0,0,.2.48q.121.229.223.412a1.041,1.041,0,0,1,.088.534v1.2c0,.279-.082.525.2.748a1.471,1.471,0,0,0,.849.128H603.8a.016.016,0,0,0,.016-.016v-.844a.016.016,0,0,0-.016-.016h-7.373a.421.421,0,0,1-.421-.421Z" transform="translate(-529.439 -341.511)" fill="#139274"/>
      <path id="패스_10031" data-name="패스 10031" d="M596.122,302.81a.606.606,0,0,0-.2-.547.865.865,0,0,0-.473-.129h-2.5q-.271,0-.263.169a1.128,1.128,0,0,0,.2.48q.121.23.223.412a1.04,1.04,0,0,1,.088.534v3.781h0v.864a.016.016,0,0,1-.016.016H583.092a.016.016,0,0,0-.016.016v.844a.016.016,0,0,0,.016.016h2.991a.493.493,0,0,1,.494.493v1.32a.188.188,0,0,0,.188.188h1.663a.863.863,0,0,0,.473-.128q.2-.128.2-.547v-.928a.4.4,0,0,1,.4-.4h3.674a.016.016,0,0,1,.016.016v.569a.413.413,0,0,1-.413.412H590.4a.016.016,0,0,0-.016.016v.869a.016.016,0,0,0,.016.016h2.279a.494.494,0,0,1,.516.507v1.516a.354.354,0,0,0,.38.354c.586-.044,1.66-.133,1.817-.159a.976.976,0,0,0,.61-.355,1.346,1.346,0,0,0,.124-.682v-.6c0-.005,0-.01,0-.015Z" transform="translate(-521.83 -302.134)" fill="#139274"/>
      <path id="패스_10032" data-name="패스 10032" d="M522.889,346.332a.606.606,0,0,0-.2-.547.863.863,0,0,0-.473-.129h-9.93a.016.016,0,0,0-.016.016v.844a.016.016,0,0,0,.016.016h7.128a.532.532,0,0,1,.532.532v2.661h0v.364a.354.354,0,0,0,.381.354c.589-.044,1.668-.133,1.826-.159a.982.982,0,0,0,.613-.355,1.341,1.341,0,0,0,.124-.683V346.38h0Z" transform="translate(-465.084 -337.403)" fill="#139274"/>
      <path id="패스_10033" data-name="패스 10033" d="M513.406,309.179a.437.437,0,0,1-.437-.437v-1.036h3.337a.864.864,0,0,0,.473-.128.606.606,0,0,0,.2-.547v-3.59a.606.606,0,0,0-.2-.547.864.864,0,0,0-.473-.128H506.147q-.27,0-.263.169a1.132,1.132,0,0,0,.2.479q.122.23.223.412a1.04,1.04,0,0,1,.088.534v2.671a.606.606,0,0,0,.2.547.865.865,0,0,0,.473.128h2.956a.016.016,0,0,1,.016.016v.976a.48.48,0,0,1-.48.48h-4.624a.016.016,0,0,0-.016.016v.844a.016.016,0,0,0,.016.016H518.3a.016.016,0,0,0,.016-.016V309.2a.016.016,0,0,0-.016-.016Zm-4.074-2.365V303.7a.016.016,0,0,1,.016-.016h4.672a.016.016,0,0,1,.016.016v3.114a.016.016,0,0,1-.016.016h-4.672a.016.016,0,0,1-.016-.016" transform="translate(-459.149 -302.64)" fill="#139274"/>
    </g>
    <path id="패스_10034" data-name="패스 10034" d="M144.278,302.2c.314.881-.293,1.488-1.265,1.661-1.425.254-2.71.491-3.974.809-.778.2-2.845-.482-3.635-.2-.662.234-.042,1.411-.749,1.733a25.57,25.57,0,0,0-7.508,5.381.431.431,0,0,1-.565.045c-.13-.117-.159-.325.042-.566,4.648-5.545,9.425-8.607,16.1-9.585a1.269,1.269,0,0,1,1.549.724" transform="translate(0 -13.275)" fill="#f68a53"/>
    <path id="패스_10035" data-name="패스 10035" d="M221.154,285l.618,1.68a.484.484,0,0,0,.334.3l1.775.453a.174.174,0,0,1,.064.3l-1.459,1.149a.435.435,0,0,0-.165.37l.121,1.881a.16.16,0,0,1-.249.143l-1.57-1.051a.427.427,0,0,0-.394-.042l-1.723.685a.178.178,0,0,1-.236-.213l.507-1.793a.408.408,0,0,0-.079-.372l-1.213-1.462a.159.159,0,0,1,.116-.261l1.877-.073a.45.45,0,0,0,.364-.209l.966-1.527a.194.194,0,0,1,.346.037" transform="translate(-72.911)" fill="#f68a53"/>
    <path id="패스_10036" data-name="패스 10036" d="M173.285,323.456c-.029.649-.545.9-1.221.784a22.042,22.042,0,0,0-6.013-.46,17.764,17.764,0,0,0-6.182,1.727.3.3,0,0,1-.379-.1c-.057-.107-.027-.25.162-.359a25.108,25.108,0,0,1,3.19-1.574c.577-.232,2.271.329,2.844.162s.024-1.061.6-1.162a16.118,16.118,0,0,1,6.161.146s.868.192.839.841" transform="translate(-26.452 -29.901)" fill="#f68a53"/>
    <path id="패스_10037" data-name="패스 10037" d="M168.063,400.658c-1.448-.328-1.5-2.277-1.5-2.277v-3.472l5.43-.235v3.653a.711.711,0,0,1-.343.644,1.915,1.915,0,0,1-.866.2c-1.179,0-.99,1.884-2.722,1.492" transform="translate(-32.146 -87.839)" fill="#ec7fa4"/>
    <path id="패스_10038" data-name="패스 10038" d="M148.117,315.392l-2.977-4.507a.184.184,0,0,1,.181-.284l.67.112a.184.184,0,0,0,.181-.284l-3.068-4.644a.184.184,0,0,1,.166-.286l.253.02a.184.184,0,0,0,.162-.292l-2.638-3.661a.184.184,0,0,1,.147-.292h.284a.184.184,0,0,0,.146-.294l-2.334-3.153a.184.184,0,0,1,.146-.294.184.184,0,0,0,.148-.292s-1.4-2-1.658-2.361-.557-.372-.8,0-1.631,2.362-1.631,2.362a.184.184,0,0,0,.148.292.184.184,0,0,1,.146.294l-2.334,3.153a.184.184,0,0,0,.146.294h.284a.184.184,0,0,1,.147.292l-2.638,3.661a.184.184,0,0,0,.161.292l.253-.02a.184.184,0,0,1,.166.286L128.9,310.43a.184.184,0,0,0,.181.284l.67-.112a.184.184,0,0,1,.181.284l-2.977,4.507a.184.184,0,0,0,.181.284l3.84-.644-.508.769a.184.184,0,0,0,.181.284l4.053-.68,2.316,1.4a.9.9,0,0,0,.978-.03l2.044-1.411,4.31.723a.184.184,0,0,0,.181-.284l-.516-.781,3.913.656a.184.184,0,0,0,.181-.284m-7.545-10.807c0,.594-.311,1.075-.7,1.075s-.7-.481-.7-1.075.311-1.075.7-1.075.7.481.7,1.075m-1.446-5.008.736,1.353-.551.305-.736-1.353Zm-1.878-.067.627.03L137.8,301.2l-.627-.03Zm-1.3-.01.534.334-.836,1.363-.534-.334Zm-.752,4.01c.384,0,.7.481.7,1.075s-.311,1.075-.7,1.075-.7-.481-.7-1.075.312-1.075.7-1.075m-3.8,9.643-.592-.373,1.442-2.331.592.373Zm2.795,1.235-.65-.258.883-2.27.65.258Zm3.55-.129-.7-.008.026-2.388.7.008Zm-.093-4.439a3.348,3.348,0,0,1-3.276-2.23.458.458,0,0,1,.322-.56.453.453,0,0,1,.555.326,2.459,2.459,0,0,0,2.4,1.548,2.428,2.428,0,0,0,2.188-1.588.452.452,0,0,1,.582-.274.459.459,0,0,1,.271.587,3.323,3.323,0,0,1-3.041,2.191m2.567,4.325-.447-2.109.683-.147L140.9,314Zm3.559.5-.036-.055h.046Zm-.1-1.355-1.5-2.361.588-.38,1.5,2.361Z" transform="translate(-0.36 -7.805)" fill="#009174"/>
    <g id="영문" transform="translate(156.757 304.971)">
      <path id="패스_10039" data-name="패스 10039" d="M283.145,387.345a1.435,1.435,0,0,0-.342,1.129,3.138,3.138,0,0,0,.1,1.1c.1.211.488.168.488.51,0,.525-1.151.525-1.508.525-1.15,0-1.471-.262-1.471-.458,0-.393.3-.235.427-.534.134-.109.089-.581.089-1.288a1.139,1.139,0,0,0-.32-.881l-.823-.954c-.357-.415-.772-.462-.772-.737,0-.168.224-.5,1.426-.5.962,0,1.482.089,1.482.329,0,.19-.24.308-.24.461s.475,1.031.621.922a2.41,2.41,0,0,0,.621-.861c0-.2-.209-.24-.209-.421,0-.43.57-.43,1.122-.43.53,0,.991.109.991.43,0,.389-.264.352-.587.532a1.111,1.111,0,0,0-.278.225Z" transform="translate(-279.014 -385.26)" fill="#139274"/>
      <path id="패스_10040" data-name="패스 10040" d="M307.814,395.048c0,1.282.437.583.437.976,0,.415-.568.867-1.1.867-.575,0-.59-.371-.772-.371-.087,0-.182.095-.342.182a1.332,1.332,0,0,1-.714.189,1.079,1.079,0,0,1-1.209-1.042c0-.517.5-1.158,1.777-1.158.226,0,.328.015.328-.248,0-.24-.007-.743-.342-.743-.437,0-.481.787-1.129.787a.392.392,0,0,1-.408-.4c0-.619,1.231-1.02,1.923-1.02.415,0,1.552.16,1.552,1.253Zm-2.185.641c0,.189.1.393.313.393.277,0,.3-.3.3-.517,0-.16.007-.342-.2-.342a.446.446,0,0,0-.415.466" transform="translate(-299.133 -391.521)" fill="#139274"/>
      <path id="패스_10041" data-name="패스 10041" d="M328.695,395.662c0,.707.248.583.248.86,0,.452-.969.437-1.268.437s-1.034,0-1.034-.437c0-.35.335-.036.357-.75l.029-1.093c.015-.539-.43-.364-.43-.75s1.675-.75,1.821-.75a.271.271,0,0,1,.262.284c0,.044-.007.087-.007.131,0,.087.036.189.146.189s.182-.153.328-.306a1.013,1.013,0,0,1,.779-.3c1.508,0,1.253,1.479,1.326,2.586.036.575.335.444.335.758,0,.131.029.437-1.34.437-.262,0-.961.014-.961-.393,0-.262.24-.138.277-.612.037-.517.241-1.683-.444-1.683-.466,0-.423.5-.423.83Z" transform="translate(-317.153 -391.61)" fill="#139274"/>
      <path id="패스_10042" data-name="패스 10042" d="M355.6,397.442c-1.348,0-1.858-.51-1.858-.976,0-.422.4-.43.4-.539s-.393-.3-.393-.619c0-.517.59-.67.59-.772s-.5-.422-.5-.961c0-.881,1.1-1.289,1.836-1.289.371,0,.874.138,1.129.138.554,0,.831-.386.94-.386.168,0,.24.218.24.357,0,.408-.408.7-.408.78s.022.153.022.226c0,.983-1.144,1.319-1.945,1.319-.124,0-.248-.022-.379-.022a.184.184,0,0,0-.2.2c0,.226.32.27.488.27.226,0,1.071-.124,1.362-.124.758,0,1.078.43,1.078.867,0,.656-.627,1.537-2.411,1.537m.073-.626c.24,0,.787-.036.787-.372,0-.153-.146-.218-.284-.218-.109,0-.393.044-.627.044-.168,0-.561-.058-.641-.058s-.088.065-.088.116c0,.386.568.488.852.488m.044-4c-.284,0-.408.27-.408.525,0,.277.073.881.444.881.328,0,.437-.284.437-.568s-.066-.838-.473-.838" transform="translate(-338.913 -390.695)" fill="#139274"/>
      <path id="패스_10043" data-name="패스 10043" d="M378.873,397.442c-1.348,0-1.857-.51-1.857-.976,0-.422.4-.43.4-.539s-.393-.3-.393-.619c0-.517.59-.67.59-.772s-.5-.422-.5-.961c0-.881,1.1-1.289,1.836-1.289.372,0,.874.138,1.129.138.554,0,.831-.386.94-.386.168,0,.24.218.24.357,0,.408-.408.7-.408.78s.022.153.022.226c0,.983-1.144,1.319-1.945,1.319-.124,0-.248-.022-.379-.022a.184.184,0,0,0-.2.2c0,.226.32.27.488.27.226,0,1.071-.124,1.362-.124.758,0,1.078.43,1.078.867,0,.656-.627,1.537-2.411,1.537m.073-.626c.24,0,.787-.036.787-.372,0-.153-.146-.218-.284-.218-.109,0-.393.044-.627.044-.168,0-.561-.058-.641-.058s-.088.065-.088.116c0,.386.568.488.852.488m.044-4c-.284,0-.408.27-.408.525,0,.277.073.881.444.881.328,0,.437-.284.437-.568s-.066-.838-.474-.838" transform="translate(-357.566 -390.695)" fill="#139274"/>
      <path id="패스_10044" data-name="패스 10044" d="M400.949,395.3c0,.291.022.743.415.743.524,0,.451-.685.451-1.035a5.635,5.635,0,0,0-.029-.786c-.058-.364-.415-.24-.415-.547,0-.43,1.464-.5,1.741-.5s.372.153.372.408c0,.233-.015.459-.015.692v1.464c0,.437.4.233.4.583,0,.5-1.289.634-1.69.634-.561,0-.19-.437-.481-.437-.08,0-.2.109-.371.219a1.331,1.331,0,0,1-.729.218c-1.384,0-1.268-1.093-1.268-2.185,0-1.115-.5-.626-.5-1.107s1.836-.488,1.894-.488c.2,0,.226.095.226.277Z" transform="translate(-375.048 -391.609)" fill="#139274"/>
      <path id="패스_10045" data-name="패스 10045" d="M433.834,388.053a4.585,4.585,0,0,0,.525-1.719.788.788,0,0,1,.881-.881c.634,0,.863.685,1.147,1.166.124.211.972,2.377,1.255,2.965.206.427.473.307.5.641.032.4-.34.538-.863.538-1.042,0-1.668,0-1.668-.459,0-.35.444-.219.444-.474,0-.328-.182-.357-1.355-.357-.379,0-.6.014-.6.371,0,.284.466.095.466.474,0,.437-.446.444-1.078.444-1.042,0-1.136-.2-1.136-.43,0-.342.393-.241.6-.5a4.228,4.228,0,0,0,.423-.779Zm1.53.524c.073,0,.291.015.291-.095a3.58,3.58,0,0,0-.231-.63c-.09-.221-.185-.446-.346-.446s-.341.537-.37.617a2.531,2.531,0,0,0-.153.452c0,.124.182.1.262.1Z" transform="translate(-401.913 -385.415)" fill="#139274"/>
      <path id="패스_10046" data-name="패스 10046" d="M463.194,394.671c0-.714-.452-.313-.452-.758,0-.575,1.7-.736,1.77-.736.277,0,.284.073.313.321.007.087,0,.255.124.255.175,0,.284-.575.911-.575a.794.794,0,0,1,.809.845.891.891,0,0,1-.9.874c-.473,0-.6-.415-.794-.415s-.168.488-.168.619a6.687,6.687,0,0,0,.058.8c.044.32.6.124.6.561,0,.459-.641.5-1.442.5-.335,0-1.266.058-1.266-.445,0-.306.275-.349.355-.6a3.594,3.594,0,0,0,.08-.8Z" transform="translate(-426.277 -391.61)" fill="#139274"/>
      <path id="패스_10047" data-name="패스 10047" d="M484.468,387.8c0,.036-.007.117.051.117.036,0,.153-.117.342-.226a1.443,1.443,0,0,1,.765-.226,1.493,1.493,0,0,1,1.428,1.61,2.158,2.158,0,0,1-2.185,2.215,2.821,2.821,0,0,1-1.464-.473c-.116,0-.233.109-.473.109-.1,0-.219-.029-.219-.146a4.771,4.771,0,0,0,.146-1.3v-1.938c0-.423-.546-.233-.546-.648,0-.488,1.413-.816,2.018-.816.2,0,.189.153.182.313Zm.372.787c-.321,0-.357.262-.357.51,0,1.413.08,1.53.372,1.53.481,0,.561-.546.561-.918,0-.342-.095-1.122-.575-1.122" transform="translate(-441.962 -385.915)" fill="#139274"/>
      <path id="패스_10048" data-name="패스 10048" d="M507.933,395.107a2.149,2.149,0,0,1,2.346-2.04,1.938,1.938,0,0,1,2,1.9c0,1.195-1.282,1.923-2.353,1.923a1.811,1.811,0,0,1-2-1.785m2.032-1.18a.383.383,0,0,0-.357.437c.029.459.16,1.581.663,1.61.277.015.335-.219.335-.452,0-.328-.146-1.6-.641-1.6" transform="translate(-462.497 -391.521)" fill="#139274"/>
      <path id="패스_10049" data-name="패스 10049" d="M531.051,394.671c0-.714-.452-.313-.452-.758,0-.575,1.7-.736,1.77-.736.277,0,.284.073.313.321.007.087,0,.255.124.255.175,0,.284-.575.911-.575a.794.794,0,0,1,.808.845.891.891,0,0,1-.9.874c-.474,0-.6-.415-.794-.415s-.168.488-.168.619a6.687,6.687,0,0,0,.058.8c.044.32.6.124.6.561,0,.459-.641.5-1.442.5-.335,0-1.326.015-1.326-.488,0-.306.335-.306.415-.561a3.6,3.6,0,0,0,.08-.8Z" transform="translate(-480.631 -391.61)" fill="#139274"/>
      <path id="패스_10050" data-name="패스 10050" d="M552.549,395.114c-.08,0-.2-.022-.2.1,0,.364.474.67.816.67.546,0,.816-.328.969-.328s.284.226.284.364c0,.561-1.027.969-1.683.969A1.871,1.871,0,0,1,550.75,395a1.985,1.985,0,0,1,2.047-1.938,1.679,1.679,0,0,1,1.785,1.5c0,.481-.219.546-.452.546Zm.634-.918a.427.427,0,0,0-.43-.466.483.483,0,0,0-.437.481c0,.262.248.2.437.2s.43.044.43-.218" transform="translate(-496.78 -391.521)" fill="#139274"/>
      <path id="패스_10051" data-name="패스 10051" d="M572.39,391.55c0,.488.2.6.4.6.226,0,.357-.168.488-.168s.248.2.248.335c0,.481-.831.9-1.566.9a1.228,1.228,0,0,1-1.3-1.318v-1.5c0-.131,0-.182-.036-.2a.942.942,0,0,0-.284-.007c-.189,0-.284.007-.32-.029s-.036-.124-.036-.292c0-.1-.022-.182.066-.24l1.661-1.056c.168-.1.16-.08.379-.08.292,0,.306-.029.306.306a2.244,2.244,0,0,0,.022.539c.022.058.073.058.262.058h.51c.313,0,.313.022.313.35,0,.415-.051.444-.335.444h-.5c-.255,0-.27.007-.27.269Z" transform="translate(-512.2 -387.855)" fill="#139274"/>
      <path id="패스_10052" data-name="패스 10052" d="M590.917,395.272c0,.291.022.743.415.743.524,0,.452-.685.452-1.035a5.636,5.636,0,0,0-.029-.787c-.058-.364-.415-.24-.415-.547,0-.43,1.464-.5,1.741-.5s.372.153.372.408c0,.233-.015.459-.015.692v1.464c0,.437.269.289.269.638,0,.5-1.157.578-1.558.578-.561,0-.19-.437-.481-.437-.08,0-.2.109-.371.219a1.33,1.33,0,0,1-.729.218c-1.384,0-1.2-1.212-1.2-2.3,0-1.272-.331-.711-.324-1.105.008-.466,1.588-.371,1.646-.371.2,0,.226.095.226.277Z" transform="translate(-527.492 -391.577)" fill="#139274"/>
      <path id="패스_10053" data-name="패스 10053" d="M614.412,394.846c0-.466-.095-.6-.168-.663-.095-.08-.2-.073-.2-.262,0-.539,1.807-.743,1.821-.743.182,0,.2.16.2.313,0,.087-.029.335.124.335.073,0,.189-.16.393-.328a1.439,1.439,0,0,1,.925-.321c.867,0,.874.648,1.027.648.058,0,.189-.16.4-.328a1.476,1.476,0,0,1,.881-.321,1.009,1.009,0,0,1,1.122,1.093v1.537c0,.422.27.459.27.67,0,.459-.83.481-1.115.481-.24,0-1.085-.051-1.085-.43,0-.27.255-.262.255-.685v-.656c0-.306.036-.918-.379-.918s-.372.5-.372.765v.452c0,.9.262.743.262,1.013,0,.452-.874.459-1.136.459-1.1,0-1.158-.2-1.151-.408.007-.386.371-.08.35-.947v-.415c0-.262.036-.918-.379-.918s-.371.5-.371.765v.59c0,.67.2.627.2.889,0,.19-.168.444-1.166.444-.284,0-1.144.007-1.144-.379,0-.328.437-.153.437-1.064Z" transform="translate(-547.486 -391.61)" fill="#139274"/>
    </g>
  </g>
</svg>
