<svg id="체험" xmlns="http://www.w3.org/2000/svg" width="52" height="52" viewBox="0 0 52 52">
  <rect id="사각형_7074" data-name="사각형 7074" width="52" height="52" fill="none"/>
  <g id="그룹_9436" data-name="그룹 9436" transform="translate(-1580 -1256)">
    <path id="패스_10953" data-name="패스 10953" d="M515.354,209.355h-2.371v2.422a2.453,2.453,0,0,1-4.906,0v-2.422H496.443v2.422a2.453,2.453,0,0,1-4.9,0v-2.422h-2.372a4.875,4.875,0,0,0-4.906,4.844v20.338a4.874,4.874,0,0,0,4.906,4.841h26.189a4.873,4.873,0,0,0,4.906-4.841V214.2A4.874,4.874,0,0,0,515.354,209.355Z" transform="translate(1103.74 1060.622)" fill="none" stroke="#3f3c3c" stroke-linecap="round" stroke-linejoin="round" stroke-width="2.5"/>
    <path id="패스_10954" data-name="패스 10954" d="M496.992,202.451a2.487,2.487,0,0,0-2.488,2.488v4.979a2.489,2.489,0,1,0,4.977,0v-4.979A2.489,2.489,0,0,0,496.992,202.451Z" transform="translate(1100.757 1062.549)" fill="none" stroke="#3f3c3c" stroke-linecap="round" stroke-linejoin="round" stroke-width="2.5"/>
    <path id="패스_10955" data-name="패스 10955" d="M520.274,202.451a2.489,2.489,0,0,0-2.489,2.488v4.979a2.489,2.489,0,1,0,4.978,0v-4.979A2.488,2.488,0,0,0,520.274,202.451Z" transform="translate(1093.976 1062.549)" fill="none" stroke="#3f3c3c" stroke-linecap="round" stroke-linejoin="round" stroke-width="2.5"/>
    <line id="선_1004" data-name="선 1004" x2="11.577" transform="translate(1600.211 1282.525)" fill="#fff" stroke="#139274" stroke-linecap="round" stroke-linejoin="round" stroke-width="2.5"/>
    <line id="선_1005" data-name="선 1005" x2="11.577" transform="translate(1600.211 1290.691)" fill="#fff" stroke="#139274" stroke-linecap="round" stroke-linejoin="round" stroke-width="2.5"/>
  </g>
</svg>
