<svg id="안내도" xmlns="http://www.w3.org/2000/svg" width="52" height="52" viewBox="0 0 52 52">
  <g id="그룹_9434" data-name="그룹 9434" transform="translate(2.869 12.933)">
    <rect id="사각형_7077" data-name="사각형 7077" width="52" height="52" transform="translate(-2.869 -12.933)" fill="none"/>
    <path id="패스_10958" data-name="패스 10958" d="M270.177,842.1a9.06,9.06,0,0,1-5.558.114l-8.691-3.1a9.088,9.088,0,0,0-5.56.114L243.25,842.1a4.777,4.777,0,0,0-2.758,4.089v19.063a1.869,1.869,0,0,0,2.758,1.861l7.117-2.877a9.077,9.077,0,0,1,5.56-.114l8.691,3.1a9.07,9.07,0,0,0,5.558-.112l7.119-2.877a4.777,4.777,0,0,0,2.758-4.089V841.091a1.869,1.869,0,0,0-2.758-1.861Z" transform="translate(-235.3 -838.666)" fill="none" stroke="#3f3c3c" stroke-linecap="round" stroke-linejoin="round" stroke-width="2.5"/>
    <line id="선_1006" data-name="선 1006" y1="20.985" transform="translate(17.703 0.983)" fill="#fff" stroke="#3f3c3c" stroke-linecap="round" stroke-linejoin="round" stroke-width="2.5"/>
    <line id="선_1007" data-name="선 1007" y1="20.985" transform="translate(32.12 7.176)" fill="#fff" stroke="#3f3c3c" stroke-linecap="round" stroke-linejoin="round" stroke-width="2.5"/>
    <line id="선_1008" data-name="선 1008" y2="20.985" transform="translate(17.703 2.294)" fill="#fff" stroke="#3f3c3c" stroke-linecap="round" stroke-linejoin="round" stroke-width="2.5"/>
    <line id="선_1009" data-name="선 1009" y2="20.985" transform="translate(32.12 4.553)" fill="#fff" stroke="#3f3c3c" stroke-linecap="round" stroke-linejoin="round" stroke-width="2.5"/>
  </g>
  <ellipse id="타원_226" data-name="타원 226" cx="3.899" cy="3.899" rx="3.899" ry="3.899" transform="translate(3 25.684)" fill="#edf7f5" stroke="#139274" stroke-linecap="round" stroke-linejoin="round" stroke-width="2.5"/>
  <path id="패스_10959" data-name="패스 10959" d="M0,0,4,1.684" transform="matrix(0.996, -0.087, 0.087, 0.996, 23.934, 20.178)" fill="#fff" stroke="#139274" stroke-linecap="round" stroke-width="2"/>
  <path id="패스_10960" data-name="패스 10960" d="M0,0,4,1.684" transform="matrix(0.996, -0.087, 0.087, 0.996, 23.934, 24.178)" fill="#fff" stroke="#139274" stroke-linecap="round" stroke-width="2"/>
</svg>
