<svg id="교통" xmlns="http://www.w3.org/2000/svg" width="52" height="52" viewBox="0 0 52 52">
  <rect id="사각형_7078" data-name="사각형 7078" width="52" height="52" fill="none"/>
  <g id="그룹_9440" data-name="그룹 9440" transform="translate(-106.469 -198.785)">
    <path id="패스_10961" data-name="패스 10961" d="M146.124,207.785H128.36v14.144H114.469v10.586a4.282,4.282,0,0,0,3.324,4.147,4.986,4.986,0,0,1,9.955.124h9.287a4.985,4.985,0,0,1,9.955-.085,4.292,4.292,0,0,0,3.48-4.185V212.057A4.309,4.309,0,0,0,146.124,207.785Z" transform="translate(0)" fill="none" stroke="#3f3c3c" stroke-linecap="round" stroke-linejoin="round" stroke-width="2.5"/>
    <path id="패스_10962" data-name="패스 10962" d="M129.012,246.527a4.995,4.995,0,0,0-9.981-.126c0,.088-.012.174-.012.261a5,5,0,1,0,10,0C129.019,246.616,129.013,246.572,129.012,246.527Z" transform="translate(-1.001 -9.877)" fill="#eef7f5" stroke="#139274" stroke-linecap="round" stroke-linejoin="round" stroke-width="2.5"/>
    <path id="패스_10963" data-name="패스 10963" d="M155.452,246.44a4.994,4.994,0,0,0-9.981.087c0,.045-.007.09-.007.135a5,5,0,1,0,10,0C155.464,246.586,155.456,246.515,155.452,246.44Z" transform="translate(-8.544 -9.877)" fill="#eef7f5" stroke="#139274" stroke-linecap="round" stroke-linejoin="round" stroke-width="2.5"/>
    <line id="선_1010" data-name="선 1010" y2="4.824" transform="translate(138.484 215.411)" fill="none" stroke="#3f3c3c" stroke-linecap="round" stroke-linejoin="round" stroke-width="2.5"/>
  </g>
</svg>
