<svg id="시설" xmlns="http://www.w3.org/2000/svg" width="52" height="52" viewBox="0 0 52 52">
  <rect id="사각형_7076" data-name="사각형 7076" width="52" height="52" fill="none"/>
  <g id="그룹_9438" data-name="그룹 9438" transform="translate(-1373.725 -1255.725)">
    <path id="사각형_7075" data-name="사각형 7075" d="M3.516,0H32.483A3.517,3.517,0,0,1,36,3.517V32.484A3.516,3.516,0,0,1,32.484,36H3.517A3.517,3.517,0,0,1,0,32.483V3.516A3.516,3.516,0,0,1,3.516,0Z" transform="translate(1381.725 1263.725)" fill="none" stroke="#3f3c3c" stroke-linecap="round" stroke-linejoin="round" stroke-width="2.5"/>
    <path id="패스_10956" data-name="패스 10956" d="M145.464,360.883l-5.322-9.613c-.349-.63-.919-.63-1.268,0l-2.9,5.238-3.88-7.009c-.406-.734-1.07-.734-1.477,0l-6.2,11.195c-.406.734-.073,1.335.738,1.335H144.83C145.527,362.029,145.812,361.513,145.464,360.883Z" transform="translate(1264.795 928.929)" fill="none" stroke="#139274" stroke-linecap="round" stroke-linejoin="round" stroke-width="2.5"/>
    <path id="패스_10957" data-name="패스 10957" d="M151.82,342.57a2.62,2.62,0,1,1-2.62-2.62A2.62,2.62,0,0,1,151.82,342.57Z" transform="translate(1258.5 931.526)" fill="none" stroke="#3f3c3c" stroke-linecap="round" stroke-linejoin="round" stroke-width="2.5"/>
  </g>
</svg>
