<svg xmlns="http://www.w3.org/2000/svg" width="202" height="42" viewBox="0 0 202 42">
  <g id="그룹_4642" data-name="그룹 4642" transform="translate(-132.513 -475.529)">
    <g id="그룹_4638" data-name="그룹 4638" transform="translate(176.891 483.02)">
      <path id="패스_9781" data-name="패스 9781" d="M245.217,503.32a9.05,9.05,0,0,1,.617-3.482,5.849,5.849,0,0,1,1.779-2.223,7.816,7.816,0,0,1,2.826-1.32,14.9,14.9,0,0,1,3.729-.43,10.725,10.725,0,0,1,6.5,1.75c1.577,1.167,2.367,3.276,2.367,5.706v.434a7.6,7.6,0,0,1-.617,3.185,5.767,5.767,0,0,1-1.765,2.223,7.8,7.8,0,0,1-2.8,1.305,14.871,14.871,0,0,1-3.744.43,14.568,14.568,0,0,1-3.7-.43,7.949,7.949,0,0,1-2.8-1.305,5.7,5.7,0,0,1-1.779-2.223,7.591,7.591,0,0,1-.617-3.185Zm11.791-.312a16.285,16.285,0,0,0-.229-3,6.074,6.074,0,0,0-.631-1.879,2.536,2.536,0,0,0-.918-.976,2.3,2.3,0,0,0-2.223,0,2.487,2.487,0,0,0-.932.976,6.263,6.263,0,0,0-.646,1.879,15.315,15.315,0,0,0-.244,3v.746a15.32,15.32,0,0,0,.244,3,6,6,0,0,0,.66,1.879,2.58,2.58,0,0,0,.947.975,2.344,2.344,0,0,0,1.133.287,2.211,2.211,0,0,0,1.09-.287,2.433,2.433,0,0,0,.9-.975,6.362,6.362,0,0,0,.617-1.879,16.29,16.29,0,0,0,.229-3Zm9.465,8.98a.485.485,0,0,1-.485-.485V498.819a2.21,2.21,0,0,0-.187-1.133q-.215-.388-.473-.875a2.4,2.4,0,0,1-.416-1.018c-.01-.239.177-.358.559-.358H270.7a1.84,1.84,0,0,1,1,.273,1.288,1.288,0,0,1,.43,1.162v1.717a.667.667,0,0,0,.667.667h3.426a.035.035,0,0,1,.034.034v1.792a.035.035,0,0,1-.034.035h-3.361a.732.732,0,0,0-.732.732v2.946a.773.773,0,0,0,.773.773h3.32a.035.035,0,0,1,.034.034v1.793a.035.035,0,0,1-.034.034h-3.361a.732.732,0,0,0-.732.732v2.395a1.288,1.288,0,0,1-.43,1.162,1.836,1.836,0,0,1-1,.273Z" transform="translate(-245.217 -495.432)" fill="#fff"/>
      <path id="패스_9782" data-name="패스 9782" d="M340.778,523.608v-11a1.686,1.686,0,0,0-1.686-1.686h-9.015a.035.035,0,0,1-.034-.034V509.1a.034.034,0,0,1,.034-.034h15.48a.034.034,0,0,0,.02-.007,7.945,7.945,0,0,0,1.987-2.076,9.326,9.326,0,0,0,1.076-2.914,25.192,25.192,0,0,0,.359-2.654q.1-1.276.1-2.309v-.263a.831.831,0,0,0-.831-.831h-15.8a.035.035,0,0,1-.034-.034v-1.792a.034.034,0,0,1,.034-.034h21.425a1.838,1.838,0,0,1,1,.273,1.287,1.287,0,0,1,.43,1.161v1.75a29.281,29.281,0,0,1-.143,2.941,10.227,10.227,0,0,1-.488,2.7,6.069,6.069,0,0,1-1.626,2.436A10.541,10.541,0,0,1,350.629,509a.034.034,0,0,0,.014.065h6.882a.034.034,0,0,1,.034.034v1.792a.034.034,0,0,1-.034.034h-8.967A1.555,1.555,0,0,0,347,512.481v9.339a2.854,2.854,0,0,1-.263,1.448,2.074,2.074,0,0,1-1.3.753c-.333.056-2.614.243-3.859.338A.751.751,0,0,1,340.778,523.608Z" transform="translate(-296.141 -495.863)" fill="#fff"/>
      <path id="패스_9783" data-name="패스 9783" d="M267.953,536.685c7.471,0,9.845,3.537,9.845,5.7v.474c0,2.161-2.374,5.7-9.845,5.7h-1.868c-7.471,0-9.884-3.537-9.884-5.7v-.474c0-2.161,2.412-5.7,9.884-5.7Zm3.723,5.955a4.981,4.981,0,0,0-2.987-4.376,4.54,4.54,0,0,0-3.339,0,4.671,4.671,0,0,0,0,8.714,4.54,4.54,0,0,0,3.339,0A5.02,5.02,0,0,0,271.675,542.64Z" transform="translate(-251.811 -520.196)" fill="#fff"/>
      <g id="그룹_4635" data-name="그룹 4635" transform="translate(64.559 0)">
        <path id="패스_9784" data-name="패스 9784" d="M435.611,535.641H406.782a.034.034,0,0,0-.034.034v1.792a.034.034,0,0,0,.034.034h10.4a1.533,1.533,0,0,1,1.532,1.532v6.449h0v1.832a.751.751,0,0,0,.807.751c1.245-.094,3.525-.282,3.859-.338a2.072,2.072,0,0,0,1.3-.753,2.849,2.849,0,0,0,.263-1.448v-6.6a1.422,1.422,0,0,1,1.422-1.422h9.246a.034.034,0,0,0,.034-.034v-1.792A.034.034,0,0,0,435.611,535.641Z" transform="translate(-406.748 -519.569)" fill="#fff"/>
        <path id="패스_9785" data-name="패스 9785" d="M421.533,505.8a23.635,23.635,0,0,0,2.866-2.845.03.03,0,0,1,.029-.012,6.428,6.428,0,0,1,2.534,1.432,17.586,17.586,0,0,1,4.329,4.637c.734,1.174,1.453.761,2.715-.081,2.113-1.408,3.125-1.739,1.343-3.9a10.184,10.184,0,0,0-5.016-3.322h0a19.6,19.6,0,0,0-2.494-.5c-.761-.1-1.283-.183-1.931-.226a.193.193,0,0,1-.175-.254,5.17,5.17,0,0,0,.681-2.754v-1.387a1.134,1.134,0,0,0-.308-.91,1.344,1.344,0,0,0-.969-.254h-5.87q-.584,0-.569.369c.007.178.169.311.416.6a5.046,5.046,0,0,1,.382.47c.264.411.161.638.161,2a7.927,7.927,0,0,1-1.13,3.757,11.272,11.272,0,0,1-2.052,2.315,13.753,13.753,0,0,1-3.165,1.948,12.948,12.948,0,0,1-3.44,1.036l.023,1.79a35.56,35.56,0,0,0,6.1-1.13A19.459,19.459,0,0,0,421.533,505.8Z" transform="translate(-408.62 -495.428)" fill="#fff"/>
      </g>
      <g id="그룹_4636" data-name="그룹 4636" transform="translate(129.744 0.002)">
        <path id="패스_9786" data-name="패스 9786" d="M575.641,506.278a8.4,8.4,0,0,0,2.769,1.148,16,16,0,0,0,3.672.387,11.678,11.678,0,0,0,6.5-1.535,4.92,4.92,0,0,0,2.309-4.346v-.115a4.93,4.93,0,0,0-2.3-4.347,11.548,11.548,0,0,0-6.455-1.535,15.74,15.74,0,0,0-3.715.4,8.845,8.845,0,0,0-2.783,1.148,5.2,5.2,0,0,0-1.735,1.836,5.073,5.073,0,0,0-.6,2.5v.115a5.073,5.073,0,0,0,.6,2.5A5.319,5.319,0,0,0,575.641,506.278Zm3.629-4.461a10.477,10.477,0,0,1,.215-2.31,4.516,4.516,0,0,1,.6-1.506,2.28,2.28,0,0,1,.9-.817,2.519,2.519,0,0,1,1.09-.244,2.586,2.586,0,0,1,1.119.244,2.1,2.1,0,0,1,.875.817,4.984,4.984,0,0,1,.574,1.506,10.473,10.473,0,0,1,.215,2.31v.115a10.472,10.472,0,0,1-.215,2.309,4.968,4.968,0,0,1-.574,1.506,2.119,2.119,0,0,1-.861.818,2.421,2.421,0,0,1-1.076.244,2.675,2.675,0,0,1-1.133-.244,2.24,2.24,0,0,1-.918-.818,4.5,4.5,0,0,1-.6-1.506,10.476,10.476,0,0,1-.215-2.309Z" transform="translate(-571.92 -495.735)" fill="#fff"/>
        <path id="패스_9787" data-name="패스 9787" d="M587.13,548.039a1.286,1.286,0,0,0-.43-1.161,1.836,1.836,0,0,0-1-.273h-5.308q-.574,0-.56.358a2.412,2.412,0,0,0,.416,1.019q.258.487.474.875a2.2,2.2,0,0,1,.186,1.133v2.544c0,.593-.174,1.115.43,1.587a3.121,3.121,0,0,0,1.8.273h20.544a.034.034,0,0,0,.034-.034v-1.793a.034.034,0,0,0-.034-.034H588.023a.893.893,0,0,1-.893-.893Z" transform="translate(-575.837 -526.153)" fill="#fff"/>
        <path id="패스_9788" data-name="패스 9788" d="M597.549,496.868a1.287,1.287,0,0,0-.43-1.162,1.837,1.837,0,0,0-1-.273h-5.308q-.574,0-.559.358a2.4,2.4,0,0,0,.416,1.018q.259.488.474.875a2.206,2.206,0,0,1,.187,1.133v8.029h0v1.834a.034.034,0,0,1-.034.034H569.877a.035.035,0,0,0-.034.034v1.793a.035.035,0,0,0,.034.034h6.352a1.048,1.048,0,0,1,1.048,1.048v2.8a.4.4,0,0,0,.4.4h3.531a1.835,1.835,0,0,0,1-.273q.43-.272.43-1.162v-1.971a.844.844,0,0,1,.844-.844h7.8a.034.034,0,0,1,.034.034v1.208a.877.877,0,0,1-.876.877h-5.059a.035.035,0,0,0-.034.034v1.846a.034.034,0,0,0,.034.034h4.839a1.049,1.049,0,0,1,1.1,1.076v3.219a.751.751,0,0,0,.807.751c1.245-.094,3.526-.282,3.859-.338a2.073,2.073,0,0,0,1.3-.753,2.853,2.853,0,0,0,.263-1.448v-1.283c0-.011,0-.021,0-.032Z" transform="translate(-569.843 -495.434)" fill="#fff"/>
      </g>
      <g id="그룹_4637" data-name="그룹 4637" transform="translate(96.874 0.268)">
        <path id="패스_9789" data-name="패스 9789" d="M517.892,542.665a1.286,1.286,0,0,0-.43-1.161,1.835,1.835,0,0,0-1-.273H495.369a.034.034,0,0,0-.034.034v1.792a.034.034,0,0,0,.034.034h15.138a1.13,1.13,0,0,1,1.13,1.131v5.651h0v.772a.752.752,0,0,0,.809.752c1.25-.094,3.542-.283,3.877-.338a2.081,2.081,0,0,0,1.3-.754,2.848,2.848,0,0,0,.265-1.45v-6.09h0Z" transform="translate(-492.244 -523.193)" fill="#fff"/>
        <path id="패스_9790" data-name="패스 9790" d="M505.627,509.718a.927.927,0,0,1-.927-.927v-2.2h7.086a1.836,1.836,0,0,0,1-.273q.43-.272.43-1.162v-7.623a1.288,1.288,0,0,0-.43-1.162,1.839,1.839,0,0,0-1-.273H490.212q-.574,0-.56.359a2.411,2.411,0,0,0,.416,1.018q.259.488.474.875a2.2,2.2,0,0,1,.186,1.133v5.673q0,.89.43,1.162a1.835,1.835,0,0,0,1,.273h6.277a.034.034,0,0,1,.034.034V508.7a1.019,1.019,0,0,1-1.019,1.019h-9.819a.034.034,0,0,0-.034.034v1.793a.034.034,0,0,0,.034.034h28.383a.035.035,0,0,0,.034-.034v-1.793a.035.035,0,0,0-.034-.034Zm-8.65-5.022v-6.614a.034.034,0,0,1,.034-.034h9.921a.035.035,0,0,1,.034.034V504.7a.035.035,0,0,1-.034.034h-9.921A.034.034,0,0,1,496.977,504.7Z" transform="translate(-487.602 -496.098)" fill="#fff"/>
      </g>
    </g>
    <g id="그룹_4641" data-name="그룹 4641" transform="translate(132.513 475.529)">
      <g id="그룹_4639" data-name="그룹 4639" transform="translate(0 5.01)">
        <path id="패스_9791" data-name="패스 9791" d="M159.717,489.245c.48,1.346-.448,2.274-1.933,2.538-2.178.388-4.141.75-6.074,1.236-1.189.3-4.348-.737-5.555-.309-1.012.359-.064,2.156-1.144,2.649a39.08,39.08,0,0,0-11.476,8.224.66.66,0,0,1-.863.07h0c-.2-.179-.244-.5.065-.865,7.1-8.475,14.406-13.156,24.614-14.65A1.939,1.939,0,0,1,159.717,489.245Z" transform="translate(-132.513 -488.065)" fill="#f68a53"/>
      </g>
      <path id="패스_9792" data-name="패스 9792" d="M207.069,475.724l.945,2.567a.74.74,0,0,0,.511.461l2.713.693a.265.265,0,0,1,.1.465l-2.231,1.756a.665.665,0,0,0-.252.565l.185,2.875a.244.244,0,0,1-.38.219l-2.4-1.606a.651.651,0,0,0-.6-.064l-2.633,1.047a.271.271,0,0,1-.361-.326l.775-2.74a.625.625,0,0,0-.12-.568l-1.854-2.235a.243.243,0,0,1,.178-.4l2.868-.111a.688.688,0,0,0,.556-.32l1.477-2.334A.3.3,0,0,1,207.069,475.724Z" transform="translate(-173.87 -475.53)" fill="#f68a53"/>
      <g id="그룹_4640" data-name="그룹 4640" transform="translate(9.983 11.17)">
        <path id="패스_9793" data-name="패스 9793" d="M178.617,505.688c-.044.992-.833,1.378-1.866,1.2a33.7,33.7,0,0,0-9.191-.7,27.146,27.146,0,0,0-9.449,2.64.458.458,0,0,1-.58-.16h0c-.088-.164-.041-.382.248-.549a38.384,38.384,0,0,1,4.876-2.406c.882-.354,3.472.5,4.347.247s.038-1.622.917-1.776a24.636,24.636,0,0,1,9.416.223S178.662,504.7,178.617,505.688Z" transform="translate(-157.492 -503.827)" fill="#f68a53"/>
      </g>
      <path id="패스_9794" data-name="패스 9794" d="M165.161,567.829c-2.213-.5-2.291-3.48-2.291-3.48v-5.306l8.3-.36v5.583a1.086,1.086,0,0,1-.524.984,2.928,2.928,0,0,1-1.323.3C167.52,565.549,167.809,568.429,165.161,567.829Z" transform="translate(-150.737 -525.911)" fill="#eb7fa3"/>
      <path id="패스_9795" data-name="패스 9795" d="M165.237,513.93l-4.551-6.728a.275.275,0,0,1,.277-.423l1.024.168a.275.275,0,0,0,.277-.423l-4.689-6.932a.275.275,0,0,1,.253-.427l.387.03a.275.275,0,0,0,.247-.436l-4.031-5.465a.275.275,0,0,1,.225-.436h.434a.275.275,0,0,0,.223-.439l-3.567-4.706a.274.274,0,0,1,.223-.439.274.274,0,0,0,.226-.436s-2.135-2.979-2.533-3.525-.852-.555-1.228,0-2.493,3.525-2.493,3.525a.275.275,0,0,0,.226.436.274.274,0,0,1,.223.439l-3.567,4.706a.274.274,0,0,0,.223.439h.434a.275.275,0,0,1,.225.436l-4.031,5.465a.275.275,0,0,0,.247.436l.387-.03a.275.275,0,0,1,.253.427l-4.689,6.932a.275.275,0,0,0,.277.423l1.024-.168a.275.275,0,0,1,.277.423L132.9,513.93a.275.275,0,0,0,.277.423l5.87-.961-.777,1.148a.275.275,0,0,0,.277.423l6.194-1.014,3.54,2.087a1.4,1.4,0,0,0,1.5-.045l3.124-2.106,6.588,1.079a.275.275,0,0,0,.277-.423l-.789-1.166,5.981.98A.275.275,0,0,0,165.237,513.93ZM153.706,497.8c0,.887-.476,1.606-1.063,1.606s-1.063-.719-1.063-1.606.476-1.605,1.063-1.605S153.706,496.911,153.706,497.8Zm-2.211-7.476,1.124,2.02-.842.456-1.124-2.02Zm-2.87-.1.959.044-.118,2.484-.959-.044Zm-1.98-.015.816.5-1.279,2.035-.816-.5Zm-1.149,5.986c.587,0,1.063.719,1.063,1.605s-.476,1.606-1.063,1.606-1.063-.719-1.063-1.606S144.908,496.193,145.495,496.193Zm-5.81,14.394-.9-.557,2.2-3.48.9.557Zm4.271,1.843-.993-.385,1.35-3.389.993.384Zm5.426-.192-1.067-.011.04-3.565,1.067.011Zm-.142-6.626c-2.346,0-4.5-1.431-5.007-3.329a.683.683,0,0,1,.493-.836.694.694,0,0,1,.848.486,3.76,3.76,0,0,0,3.667,2.312,3.7,3.7,0,0,0,3.344-2.371.7.7,0,0,1,.889-.409.681.681,0,0,1,.414.877A5.067,5.067,0,0,1,149.239,505.611Zm3.924,6.457-.683-3.149,1.043-.22.683,3.149Zm5.44.751-.056-.082h.07Zm-.147-2.023-2.289-3.525.9-.568,2.289,3.525Z" transform="translate(-132.717 -479.954)" fill="#0da84b"/>
    </g>
  </g>
</svg>
