<svg xmlns="http://www.w3.org/2000/svg" width="22" height="22" viewBox="0 0 22 22">
  <g id="login" transform="translate(-307 -684)">
    <rect id="사각형_2566" data-name="사각형 2566" width="22" height="22" transform="translate(307 684)" fill="none"/>
    <rect id="사각형_57" data-name="사각형 57" width="19" height="19" transform="translate(309 686)" fill="none"/>
    <g id="타원_37" data-name="타원 37" transform="translate(314 686)" fill="none" stroke="#666" stroke-width="1.5">
      <circle cx="4.5" cy="4.5" r="4.5" stroke="none"/>
      <circle cx="4.5" cy="4.5" r="3.75" fill="none"/>
    </g>
    <g id="사각형_99" data-name="사각형 99" transform="translate(309 696)" fill="none" stroke="#666" stroke-width="1.5">
      <path d="M5,0h8a5,5,0,0,1,5,5V9a0,0,0,0,1,0,0H0A0,0,0,0,1,0,9V5A5,5,0,0,1,5,0Z" stroke="none"/>
      <path d="M5,.75h8A4.25,4.25,0,0,1,17.25,5V7.5a.75.75,0,0,1-.75.75H1.5A.75.75,0,0,1,.75,7.5V5A4.25,4.25,0,0,1,5,.75Z" fill="none"/>
    </g>
  </g>
</svg>
