<svg xmlns="http://www.w3.org/2000/svg" width="22" height="22" viewBox="0 0 22 22">
  <g id="그룹_4108" data-name="그룹 4108" transform="translate(-908.266 -221.992)">
    <rect id="사각형_2565" data-name="사각형 2565" width="22" height="22" transform="translate(908.266 221.992)" fill="none"/>
    <path id="패스_6539" data-name="패스 6539" d="M928.37,224.287h-1.726v-.822a.842.842,0,0,0-1.684,0v.822h-2.674v-.822a.842.842,0,1,0-1.684,0v.822h-2.674v-.822a.842.842,0,1,0-1.684,0v.822h-2.674v-.822a.842.842,0,1,0-1.684,0v.822h-1.726a.9.9,0,0,0-.9.9V241.6a.9.9,0,0,0,.9.9H928.37a.9.9,0,0,0,.9-.9V225.182A.9.9,0,0,0,928.37,224.287Zm-.9,16.418H911.057V228.912h16.418Z" transform="translate(0 0.369)" fill="#666"/>
    <circle id="타원_81" data-name="타원 81" cx="1" cy="1" r="1" transform="translate(913.266 232.992)" fill="#666"/>
    <circle id="타원_82" data-name="타원 82" cx="1" cy="1" r="1" transform="translate(918.266 232.992)" fill="#666"/>
    <circle id="타원_83" data-name="타원 83" cx="1" cy="1" r="1" transform="translate(923.265 232.992)" fill="#666"/>
    <circle id="타원_84" data-name="타원 84" cx="1" cy="1" r="1" transform="translate(913.266 236.992)" fill="#666"/>
    <circle id="타원_85" data-name="타원 85" cx="1" cy="1" r="1" transform="translate(918.266 236.992)" fill="#666"/>
    <circle id="타원_86" data-name="타원 86" cx="1" cy="1" r="1" transform="translate(923.265 236.992)" fill="#666"/>
  </g>
</svg>
