<svg xmlns="http://www.w3.org/2000/svg" width="22" height="22" viewBox="0 0 22 22">
  <g id="그룹_3847" data-name="그룹 3847" transform="translate(-171 -683)">
    <rect id="사각형_100" data-name="사각형 100" width="22" height="22" transform="translate(171 683)" fill="none"/>
    <path id="패스_9768" data-name="패스 9768" d="M188.97,579.986l-8.333,6.516a1.656,1.656,0,0,0-.637,1.3v11a.831.831,0,0,0,.833.829h5.661a.831.831,0,0,0,.833-.829v-6.744a.831.831,0,0,1,.833-.829h3.679a.831.831,0,0,1,.833.829V598.8a.831.831,0,0,0,.833.829h5.661A.831.831,0,0,0,200,598.8v-11a1.656,1.656,0,0,0-.637-1.3l-8.333-6.516A1.674,1.674,0,0,0,188.97,579.986Z" transform="translate(-8 104.368)" fill="#666"/>
  </g>
</svg>
