<svg xmlns="http://www.w3.org/2000/svg" width="20" height="30" viewBox="0 0 20 30">
  <g id="scroll" transform="translate(-165.035 -585.496)">
    <g id="합치기_5" data-name="합치기 5" transform="translate(165.035 585.496)" fill="none">
      <path d="M.022,20.666H0V10a10,10,0,1,1,20,0V20.666h-.022a10,10,0,0,1-19.956,0Z" stroke="none"/>
      <path d="M 10.00030040740967 29 C 12.29948043823242 29 14.48789024353027 28.13311958312988 16.16242027282715 26.55905914306641 C 17.82967948913574 24.99181938171387 18.83040046691895 22.87575912475586 18.98023986816406 20.60067939758301 L 19 20.30068969726562 L 19 10.00019931793213 C 19 5.037468910217285 14.96275043487549 0.9999990463256836 10.00030040740967 0.9999990463256836 C 5.037519931793213 0.9999990463256836 1 5.037468910217285 1 10.00019931793213 L 1 20.30084037780762 L 1.019749999046326 20.60067939758301 C 1.169589996337891 22.87577819824219 2.170340061187744 24.9918384552002 3.837650060653687 26.55903816223145 C 5.512259960174561 28.13311958312988 7.700860023498535 29 10.00030040740967 29 M 10.00030040740967 30 C 4.701419830322266 30 0.3651799857616425 25.87835884094238 0.02191000059247017 20.6663990020752 L 0 20.6663990020752 L 0 10.00019931793213 C 0 4.477199077606201 4.477250099182129 -9.5367431640625e-07 10.00030040740967 -9.5367431640625e-07 C 15.52274990081787 -9.5367431640625e-07 20 4.477199077606201 20 10.00019931793213 L 20 20.6663990020752 L 19.97808074951172 20.6663990020752 C 19.63480949401855 25.87835884094238 15.29860973358154 30 10.00030040740967 30 Z" stroke="none" fill="#fff"/>
    </g>
    <path id="패스_4682" data-name="패스 4682" d="M0,0,3.133,3.133,0,6.266" transform="translate(177.8 597.987) rotate(90)" fill="none" stroke="#797979" stroke-linecap="round" stroke-linejoin="round" stroke-width="1.5"/>
    <path id="패스_4683" data-name="패스 4683" d="M0,0,3.133,3.133,0,6.266" transform="translate(177.8 602.667) rotate(90)" fill="none" stroke="#b1b1b1" stroke-linecap="round" stroke-linejoin="round" stroke-width="1.5"/>
  </g>
</svg>
