<svg xmlns="http://www.w3.org/2000/svg" width="60" height="60" viewBox="0 0 60 60">
  <g id="그룹_9169" data-name="그룹 9169" transform="translate(-193 -1279)">
    <rect id="사각형_6935" data-name="사각형 6935" width="60" height="60" transform="translate(193 1279)" fill="none"/>
    <g id="그룹_9170" data-name="그룹 9170" transform="translate(123.363 1140.251)">
      <path id="패스_10840" data-name="패스 10840" d="M119.637,169a2.208,2.208,0,1,1-2.207-2.208A2.209,2.209,0,0,1,119.637,169Z" fill="#f68a53"/>
      <path id="패스_10841" data-name="패스 10841" d="M79.637,169a2.208,2.208,0,1,0,2.209-2.208A2.209,2.209,0,0,0,79.637,169Z" fill="#f68a53"/>
      <path id="패스_10842" data-name="패스 10842" d="M99.387,188.749a2.208,2.208,0,1,1,2.209-2.208A2.207,2.207,0,0,1,99.387,188.749Z" fill="#f68a53"/>
      <path id="패스_10843" data-name="패스 10843" d="M99.387,148.749a2.209,2.209,0,1,0,2.209,2.208A2.208,2.208,0,0,0,99.387,148.749Z" fill="#f68a53"/>
      <path id="패스_10844" data-name="패스 10844" d="M109.138,152.249a1.459,1.459,0,1,0,1.458,1.458A1.458,1.458,0,0,0,109.138,152.249Z" fill="#f68a53"/>
      <path id="패스_10845" data-name="패스 10845" d="M115.471,158.5a1.459,1.459,0,1,0,1.458,1.458A1.458,1.458,0,0,0,115.471,158.5Z" fill="#f68a53"/>
      <path id="패스_10846" data-name="패스 10846" d="M115.471,176.416a1.458,1.458,0,1,0,1.458,1.457A1.458,1.458,0,0,0,115.471,176.416Z" fill="#f68a53"/>
      <path id="패스_10847" data-name="패스 10847" d="M109.137,182.749a1.459,1.459,0,1,0,1.459,1.458A1.458,1.458,0,0,0,109.137,182.749Z" fill="#f68a53"/>
      <path id="패스_10848" data-name="패스 10848" d="M90.055,182.916a1.458,1.458,0,1,0,1.457,1.457A1.458,1.458,0,0,0,90.055,182.916Z" fill="#f68a53"/>
      <path id="패스_10849" data-name="패스 10849" d="M83.555,176.333a1.458,1.458,0,1,0,1.457,1.458A1.458,1.458,0,0,0,83.555,176.333Z" fill="#f68a53"/>
      <path id="패스_10850" data-name="패스 10850" d="M83.721,158.583a1.458,1.458,0,1,0,1.459,1.458A1.458,1.458,0,0,0,83.721,158.583Z" fill="#f68a53"/>
      <path id="패스_10851" data-name="패스 10851" d="M90.179,152.041a1.458,1.458,0,1,0,1.458,1.458A1.458,1.458,0,0,0,90.179,152.041Z" fill="#f68a53"/>
      <path id="패스_10852" data-name="패스 10852" d="M100.357,168.624l9.855.844-9.82.844Z" fill="#f68a53"/>
      <path id="패스_10853" data-name="패스 10853" d="M98.7,168.263l.842-12.639.843,12.594Z" fill="#f68a53"/>
      <path id="패스_10854" data-name="패스 10854" d="M101.541,169.664a2.112,2.112,0,1,1-2.111-2.11A2.112,2.112,0,0,1,101.541,169.664Z" fill="#f68a53"/>
    </g>
  </g>
</svg>
