<svg xmlns="http://www.w3.org/2000/svg" xmlns:xlink="http://www.w3.org/1999/xlink" width="327.001" height="160" viewBox="0 0 327.001 160">
  <defs>
    <clipPath id="clip-path">
      <rect id="Rectangle_11_copy_2" data-name="Rectangle 11 copy 2" width="327" height="160" rx="10" transform="translate(0.498)" fill="#dae4ff"/>
    </clipPath>
    <clipPath id="clip-path-2">
      <rect id="crop" width="118" height="168" fill="none"/>
    </clipPath>
    <clipPath id="clip-path-3">
      <rect id="crop-2" data-name="crop" width="157" height="228" fill="none"/>
    </clipPath>
    <clipPath id="clip-path-4">
      <path id="SVGID" d="M532.658,345.637A57.293,57.293,0,0,0,522.3,335.057c-5.662-6.3-14.118-10.192-21.953-12.429A24.283,24.283,0,0,0,481.8,324.99l-42.761-49.877-17.166,20.8L458.458,360a41.066,41.066,0,0,0-.61,7.981c.188,7.205-.794,14.688-1.212,21.88-.157,2.725.9,29.3-1.09,29.473,16.827-1.259,64.221-.993,72.047.5,1.387-5.017.824-2.346,1.569-9.619a50.454,50.454,0,0,0,4.765-3.026C552.662,394.045,544.162,361.123,532.658,345.637Z" transform="translate(-421.874 -275.113)" fill="none"/>
    </clipPath>
  </defs>
  <g id="Rectangle_11_copy_2-2" data-name="Rectangle 11 copy 2" transform="translate(-0.497)">
    <rect id="Rectangle_11_copy_2-3" data-name="Rectangle 11 copy 2" width="327" height="160" rx="10" transform="translate(0.499)" fill="#74a2d6"/>
    <g id="Clip" transform="translate(-0.001)" clip-path="url(#clip-path)">
      <g id="Vector_Smart_Object" data-name="Vector Smart Object" transform="translate(144.144 40)" clip-path="url(#clip-path-2)">
        <path id="패스_381" data-name="패스 381" d="M112.749,475.649l-76-6.339V405.128h67.411Z" transform="translate(-21.033 -295.262)" fill="#f7b669"/>
        <path id="패스_382" data-name="패스 382" d="M93.937,329.274c6.289,6.07,13.445,12.706,19.735,18.778,4.266,4.117,8.486,9.392,13.15,12.919,3.372,2.549,12.454,3.467,12.207,9.432-.243,5.892-11.264,11.134-15.555,12.868-5.15,2.079-21.188,10.158-26.2,4.749-3.331-3.6-.9-16.488-1.09-21.4q-.475-12.57-.946-25.139C95.181,339.844,95.109,330.4,93.937,329.274Z" transform="translate(-21.033 -295.262)" fill="#d8b895"/>
        <g id="그룹_182" data-name="그룹 182" transform="translate(0 3.306)">
          <path id="패스_383" data-name="패스 383" d="M85.355,303.594c5.736-1.314,8.006,6.182,7.053,10.67,6,.3,11.207,8.728,8.676,14.8-2.262,5.429-10.629,8.863-15.731,6.79" transform="translate(-21.033 -298.568)" fill="#fff"/>
          <path id="패스_384" data-name="패스 384" d="M76.842,300.074c-4.4-4.166-9.8,1.168-11.019,5.581-3.786-2.047-8.057-.693-11.026,2.318-3.355,3.4-2.823,6.609-2.342,11.2-2.771.066-5.235,3.551-5.172,6.424.077,3.479,2.9,5.469,5.5,7.161,8.35,5.435,17.982-.906,18.633-11.025" transform="translate(-21.033 -298.568)" fill="#fff"/>
          <path id="패스_385" data-name="패스 385" d="M76.842,300.074c-4.4-4.166-9.8,1.168-11.019,5.581-3.786-2.047-8.057-.693-11.026,2.318-3.355,3.4-2.823,6.609-2.342,11.2-2.771.066-5.235,3.551-5.172,6.424.077,3.479,2.9,5.469,5.5,7.161,8.35,5.435,17.982-.906,18.633-11.025" transform="translate(-21.033 -298.568)" fill="#fff"/>
          <path id="패스_386" data-name="패스 386" d="M53.765,325.6c-12.007,3.687-27.45,15.969-32.024,40.538C19.157,380.011,23.664,394.925,35,402.768S65.851,405.4,69.215,386.9c2.848-15.657-17.876-10.671-28.032-13.4l9.151-44.215Z" transform="translate(-21.033 -298.568)" fill="#d8b895"/>
          <path id="패스_387" data-name="패스 387" d="M67.706,320.642c-8.978.259-21.137,6.447-24.237,17.861-2.451,9.04-4.764,53.168-7.46,68.211h68.624c-.052-.739.052-11.146,0-11.885-.724-10.388-6.73-20.518-7.455-30.9-.435-6.226-.94-12.45-1.3-18.68-.306-5.253,2.715-12.5-2.616-16.162a41.652,41.652,0,0,0-6.8-3.269C80.654,323.25,74.092,320.454,67.706,320.642Z" transform="translate(-21.033 -298.568)" fill="#d8b895"/>
          <path id="패스_388" data-name="패스 388" d="M59.712,321.431,73.4,349.724l10.659-22.891Z" transform="translate(-21.033 -298.568)" fill="#fff"/>
          <line id="선_1" data-name="선 1" x1="1.099" y1="24.228" transform="translate(28.951 57.667)" fill="none" stroke="#222a2c" stroke-linecap="round" stroke-linejoin="round" stroke-width="0.751"/>
          <path id="패스_389" data-name="패스 389" d="M87.075,382.151a2.371,2.371,0,1,1-2.365-2.54A2.456,2.456,0,0,1,87.075,382.151Z" transform="translate(-21.033 -298.568)" fill="#fff"/>
          <path id="패스_390" data-name="패스 390" d="M91.5,358.218a2.37,2.37,0,1,1-2.364-2.54A2.456,2.456,0,0,1,91.5,358.218Z" transform="translate(-21.033 -298.568)" fill="#fff"/>
          <path id="패스_391" data-name="패스 391" d="M98.143,396.415a2.37,2.37,0,1,1-2.364-2.54A2.456,2.456,0,0,1,98.143,396.415Z" transform="translate(-21.033 -298.568)" fill="#fff"/>
          <path id="패스_392" data-name="패스 392" d="M68.626,367.888a2.37,2.37,0,1,1-2.364-2.54A2.455,2.455,0,0,1,68.626,367.888Z" transform="translate(-21.033 -298.568)" fill="#fff"/>
          <path id="패스_393" data-name="패스 393" d="M40.586,352.832a2.37,2.37,0,1,1-2.365-2.539A2.455,2.455,0,0,1,40.586,352.832Z" transform="translate(-21.033 -298.568)" fill="#fff"/>
          <path id="패스_394" data-name="패스 394" d="M45.752,377.234a2.37,2.37,0,1,1-2.365-2.54A2.455,2.455,0,0,1,45.752,377.234Z" transform="translate(-21.033 -298.568)" fill="#fff"/>
          <path id="패스_395" data-name="패스 395" d="M105.522,351.248a2.37,2.37,0,1,1-2.365-2.54A2.455,2.455,0,0,1,105.522,351.248Z" transform="translate(-21.033 -298.568)" fill="#fff"/>
          <path id="패스_396" data-name="패스 396" d="M28.042,374.064a2.37,2.37,0,1,1-2.365-2.54A2.456,2.456,0,0,1,28.042,374.064Z" transform="translate(-21.033 -298.568)" fill="#fff"/>
          <path id="패스_397" data-name="패스 397" d="M61.678,342.774a2.37,2.37,0,1,1-2.365-2.54A2.456,2.456,0,0,1,61.678,342.774Z" transform="translate(-21.033 -298.568)" fill="#fff"/>
          <path id="패스_398" data-name="패스 398" d="M96.731,336.578a2.37,2.37,0,1,1-2.364-2.539A2.457,2.457,0,0,1,96.731,336.578Z" transform="translate(-21.033 -298.568)" fill="#fff"/>
          <path id="패스_399" data-name="패스 399" d="M58.2,311.518c-3.034.4-3.662,5.007-2.975,7.509-2.122.547-5.493,2.316-4.26,5.134" transform="translate(-21.033 -298.568)" fill="none" stroke="#9b9b9b" stroke-linecap="round" stroke-linejoin="round" stroke-width="0.501"/>
          <path id="패스_400" data-name="패스 400" d="M90.413,311.471a7.8,7.8,0,0,1-.832,7.143c3.446,0,7.167,1.538,6.734,6.02" transform="translate(-21.033 -298.568)" fill="none" stroke="#9b9b9b" stroke-linecap="round" stroke-linejoin="round" stroke-width="0.501"/>
          <path id="패스_401" data-name="패스 401" d="M73.4,349.724c-.014,2.7.979,53.821.979,53.821" transform="translate(-21.033 -298.568)" fill="none" stroke="#000" stroke-width="0.376"/>
          <path id="패스_402" data-name="패스 402" d="M80.2,356.567a1.593,1.593,0,1,1-1.589-1.706A1.651,1.651,0,0,1,80.2,356.567Z" transform="translate(-21.033 -298.568)" fill="none" stroke="#000" stroke-width="0.376"/>
          <path id="패스_403" data-name="패스 403" d="M80.879,373.142a1.593,1.593,0,1,1-1.589-1.706A1.652,1.652,0,0,1,80.879,373.142Z" transform="translate(-21.033 -298.568)" fill="none" stroke="#000" stroke-width="0.376"/>
        </g>
        <g id="그룹_186" data-name="그룹 186" transform="translate(36.27 0)">
          <g id="그룹_185" data-name="그룹 185">
            <path id="패스_404" data-name="패스 404" d="M82.29,315.123c.356,2.988,1.792,5.359,3.96,3.554,2.487-2.058,4.011-10.74-.544-10.914C82.875,307.657,81.9,311.778,82.29,315.123Z" transform="translate(-57.303 -295.262)" fill="#eeb7b7"/>
            <g id="그룹_184" data-name="그룹 184">
              <path id="패스_405" data-name="패스 405" d="M84.844,307.087c1.077,8.35,4.293,20.453-6.607,24.513-9.81,3.647-14.98-2.683-16.85-11.722-1.444-6.98-1.634-17.314,5.772-20.667a12.005,12.005,0,0,1,16.669,7.857" transform="translate(-57.303 -295.262)" fill="#eeb7b7"/>
              <path id="패스_406" data-name="패스 406" d="M73.483,295.4c3.9.638,13.283,4.679,12.646,10.349-.481,4.289-7.324,3.812-8.6.1-1.013,3.279-5.13,5.663-7.457,1.849a3.959,3.959,0,0,1-6.252,3.049c1.829,1.359-.592,6.863-2.208,6.691-3.346-.361-4.707-6.527-4.21-8.94C58.946,301.037,66.1,294.2,73.483,295.4Z" transform="translate(-57.303 -295.262)" fill="#fff"/>
              <path id="패스_407" data-name="패스 407" d="M57.313,309.24a4.957,4.957,0,0,1,.09-.739c1.544-7.464,8.7-14.3,16.08-13.1,3.9.638,13.283,4.679,12.646,10.349-.481,4.289-7.324,3.812-8.6.1-1.013,3.279-5.13,5.663-7.457,1.849a3.959,3.959,0,0,1-6.252,3.049c1.829,1.359-.592,6.863-2.208,6.691" transform="translate(-57.303 -295.262)" fill="#fff"/>
              <path id="패스_408" data-name="패스 408" d="M75.5,314.617l2.543,2.367-2.119,1.228" transform="translate(-57.303 -295.262)" fill="none" stroke="#222a2c" stroke-linecap="round" stroke-linejoin="round" stroke-width="0.651"/>
              <g id="그룹_183" data-name="그룹 183" transform="translate(12.337 17.872)">
                <path id="패스_409" data-name="패스 409" d="M79.473,314.422c-.013.7.373,1.243.861,1.229s.9-.594.907-1.284-.371-1.248-.861-1.233S79.486,313.731,79.473,314.422Z" transform="translate(-69.641 -313.134)" fill="#222a2c"/>
                <path id="패스_410" data-name="패스 410" d="M69.641,315.345c-.016.7.374,1.243.857,1.229s.9-.587.91-1.285-.375-1.243-.862-1.23S69.651,314.656,69.641,315.345Z" transform="translate(-69.641 -313.134)" fill="#222a2c"/>
              </g>
              <path id="패스_411" data-name="패스 411" d="M70.941,323.5c2.961,4.321,9.617.57,9.815-1.756" transform="translate(-57.303 -295.262)" fill="none" stroke="#222a2c" stroke-linecap="round" stroke-linejoin="round" stroke-width="0.501"/>
            </g>
            <path id="패스_412" data-name="패스 412" d="M62.206,315.835c-3.885-1.934-5.722,2.474-3.56,5.415,1.291,1.757,4.77,3.461,5.708.414a4.6,4.6,0,0,0,.19-1.189" transform="translate(-57.303 -295.262)" fill="#eeb7b7"/>
            <line id="선_2" data-name="선 2" x1="1.779" y1="1.688" transform="translate(2.615 23.19)" fill="none" stroke="#222a2c" stroke-linecap="round" stroke-linejoin="round" stroke-width="0.376"/>
          </g>
          <path id="패스_413" data-name="패스 413" d="M70.861,320.358a3.582,3.582,0,0,0-1.937,4.855" transform="translate(-57.303 -295.262)" fill="none" stroke="#222a2c" stroke-linecap="round" stroke-linejoin="round" stroke-width="0.501"/>
          <path id="패스_414" data-name="패스 414" d="M83.641,321.249c-.53-.707-1.066-1.4-1.615-2.08" transform="translate(-57.303 -295.262)" fill="none" stroke="#222a2c" stroke-linecap="round" stroke-linejoin="round" stroke-width="0.501"/>
        </g>
        <path id="패스_415" data-name="패스 415" d="M73.817,300.5c.953,4.11-3.286,7.268-5.48,2.927,1.342-2.174,2.922-.363,2.356,1.823-.623,2.413-4.236,2.964-6.069,2.928" transform="translate(-21.033 -295.262)" fill="none" stroke="#9b9b9b" stroke-linecap="round" stroke-linejoin="round" stroke-width="0.501"/>
        <g id="그룹_188" data-name="그룹 188" transform="translate(26.388 53.122)">
          <g id="그룹_187" data-name="그룹 187">
            <path id="패스_416" data-name="패스 416" d="M53.621,369.239c-.2-3.951-.247-6.542-2.6-9.674-1.015-1.354-2.509-2.4-3.147-4.049-1.826-4.717,2.248-4.611,4.929-2.615,3.048,2.264,4.885,6.3,5.82,10.048" transform="translate(-47.42 -348.384)" fill="#f9c2bb"/>
            <path id="패스_417" data-name="패스 417" d="M58.58,351.389c.512-1.887,2.181-3.423,4.057-2.9,5.795,1.6-.677,10.9-.95,14.341.894-1.609,2.139-3.091,3.15-2.435,1.7,1.1,1.728,3.077.985,5.11.128-1.915,1.912-2.122,2.96-1.043a6.121,6.121,0,0,1,1.467,4.528c.5-.587,1.747,1.166,2.071,1.8a5.9,5.9,0,0,1,.178,4.656c-.814,2.755-2.922,5.139-4.319,7.552-1.22,2.113-1.377,4.442-2.411,6.473-2.2,4.328-8.684,4.071-11.533.317C44.809,377.369,55.231,363.834,58.58,351.389Z" transform="translate(-47.42 -348.384)" fill="#f9c2bb"/>
            <line id="선_3" data-name="선 3" x1="1.751" y2="3.902" transform="translate(21.411 20.612)" fill="none" stroke="#222a2c" stroke-linecap="round" stroke-linejoin="round" stroke-width="0.751"/>
            <line id="선_4" data-name="선 4" x1="1.95" y2="4.673" transform="translate(16.734 16.511)" fill="none" stroke="#222a2c" stroke-linecap="round" stroke-linejoin="round" stroke-width="0.751"/>
            <line id="선_5" data-name="선 5" x1="1.125" y2="2.865" transform="translate(13.242 14.424)" fill="none" stroke="#222a2c" stroke-linecap="round" stroke-linejoin="round" stroke-width="0.751"/>
          </g>
          <line id="선_6" data-name="선 6" x1="2.623" y2="6.339" transform="translate(6.585 9.955)" fill="none" stroke="#222a2c" stroke-linecap="round" stroke-linejoin="round" stroke-width="0.751"/>
        </g>
        <path id="패스_418" data-name="패스 418" d="M34.534,402.224c9.051,9.244,32.225,3.716,29.515-8.98" transform="translate(-21.033 -295.262)" fill="none" stroke="#222a2c" stroke-linecap="round" stroke-linejoin="round" stroke-width="0.751"/>
      </g>
      <g id="Vector_Smart_Object-2" data-name="Vector Smart Object" transform="translate(181.144 1)" clip-path="url(#clip-path-3)">
        <g id="그룹_189" data-name="그룹 189" transform="translate(117.644 18.127)">
          <line id="선_7" data-name="선 7" y1="17.92" x2="0.051" transform="translate(0 1.187)" fill="none" stroke="#222a2c" stroke-linecap="round" stroke-linejoin="round" stroke-width="0.779"/>
          <line id="선_8" data-name="선 8" y1="10.314" x2="4.918" transform="translate(3.711 10.703)" fill="none" stroke="#222a2c" stroke-linecap="round" stroke-linejoin="round" stroke-width="0.779"/>
          <line id="선_9" data-name="선 9" y1="12.394" x2="13.725" transform="translate(7.807 12.432)" fill="none" stroke="#222a2c" stroke-linecap="round" stroke-linejoin="round" stroke-width="0.779"/>
          <path id="패스_419" data-name="패스 419" d="M518.422,274.268a1.813,1.813,0,0,1-2.209,1.42A1.978,1.978,0,0,1,514.9,273.3a1.813,1.813,0,0,1,2.21-1.419A1.977,1.977,0,0,1,518.422,274.268Z" transform="translate(-505.56 -271.825)" fill="none" stroke="#222a2c" stroke-linecap="round" stroke-linejoin="round" stroke-width="0.779"/>
        </g>
        <g id="그룹_205" data-name="그룹 205" transform="translate(18.759 0)">
          <g id="그룹_194" data-name="그룹 194" transform="translate(46.948 68.032)">
            <g id="그룹_193" data-name="그룹 193">
              <g id="그룹_192" data-name="그룹 192">
                <g id="그룹_191" data-name="그룹 191">
                  <g id="그룹_190" data-name="그룹 190">
                    <path id="패스_420" data-name="패스 420" d="M500.351,322.628c12.244,3.5,26.012,11.012,28.25,25.5,3.121,20.213,2.689,61.681-2.625,80.909-7.826-1.494-55.526-4.186-72.353-2.927,1.993-.177,2.856-33.527,3.013-36.252.418-7.192,1.4-14.675,1.212-21.88C457.253,345.367,477.948,316.23,500.351,322.628Z" transform="translate(-453.622 -321.73)" fill="#f7b669"/>
                  </g>
                </g>
              </g>
            </g>
          </g>
          <path id="패스_421" data-name="패스 421" d="M531.239,498.656l-71.546-1.118-4.148-78.206,72.047.5Z" transform="translate(-406.675 -253.698)" fill="#7c5c5b"/>
          <g id="그룹_196" data-name="그룹 196">
            <g id="그룹_195" data-name="그룹 195">
              <path id="패스_422" data-name="패스 422" d="M426.785,297.365c-4.343-4.905-8.347-9.594-11.527-12.955-2.43-2.576-6.847-6.345-8.22-9.721-1.191-2.928.684-5.956,3.688-4.015-2.166-2.623.795-6.293,3.276-4.1a4.662,4.662,0,0,1-.472-3.372c.806-1.991,1.993-1.507,3.725-1.044-1.969-.529.424-2.865,1.326-3.135,2.033-.593,3.657,1.376,5.091,2.633,3.6,3.163,1.31,1.047,4.486,4.7,0,0-1.426-13.478,5.55-12.619,2.779.341,1.078,16.978,2.674,19.445a18.806,18.806,0,0,0,2.044,2.174c1.416,1.54,2.8,3.107,4.231,4.638Z" transform="translate(-406.675 -253.698)" fill="#eeb7b7"/>
              <line id="선_10" data-name="선 10" x2="5.383" y2="5.017" transform="translate(10.579 8.46)" fill="none" stroke="#222a2c" stroke-linecap="round" stroke-linejoin="round" stroke-width="0.52"/>
              <line id="선_11" data-name="선 11" x2="5.095" y2="4.786" transform="translate(7.004 12.206)" fill="none" stroke="#222a2c" stroke-linecap="round" stroke-linejoin="round" stroke-width="0.52"/>
              <line id="선_12" data-name="선 12" x2="5.402" y2="4.652" transform="translate(3.388 16.275)" fill="none" stroke="#222a2c" stroke-linecap="round" stroke-linejoin="round" stroke-width="0.52"/>
            </g>
            <path id="패스_423" data-name="패스 423" d="M424.335,263.037a2.242,2.242,0,0,1,.746,2.709c-.587,1.269-2.626,1.425-2.626,1.425s.163,2.23-1.035,3.179a2.657,2.657,0,0,1-3.2.041c-.042-.073-.04-.075.01-.008,1.51,2.182-1.083,4.5-2.892,4.056,1.625,2.43-3.058,5.538-3.923,2.842" transform="translate(-406.675 -253.698)" fill="none" stroke="#222a2c" stroke-linecap="round" stroke-linejoin="round" stroke-width="0.52"/>
          </g>
          <path id="패스_424" data-name="패스 424" d="M483.8,327.328,439.04,275.112l-17.166,20.8,43.716,76.583" transform="translate(-406.675 -253.698)" fill="#f7b669"/>
          <path id="패스_425" data-name="패스 425" d="M505.933,324.864c9.988,5,19.76,11.394,26.725,20.773,11.5,15.486,20,48.407,1.268,61.551-6.177,4.335-11.269,6.926-18.706,4.677" transform="translate(-406.675 -253.698)" fill="#f7b669"/>
          <g id="그룹_200" data-name="그룹 200" transform="translate(15.199 21.415)">
            <g id="그룹_199" data-name="그룹 199" clip-path="url(#clip-path-4)">
              <g id="그룹_197" data-name="그룹 197" transform="translate(48.797 28.391)">
                <path id="패스_426" data-name="패스 426" d="M537.011,325.647c-.8,14.273,0,29.276,0,43.716,0,14.3,2.1,29.5,1.245,43.52" transform="translate(-470.671 -303.503)" fill="none" stroke="#fff" stroke-linecap="round" stroke-linejoin="round" stroke-width="1.039"/>
                <path id="패스_427" data-name="패스 427" d="M522.072,314.91c-.8,14.273,0,29.276,0,43.716,0,14.3,3.34,59.029,2.49,73.046" transform="translate(-470.671 -303.503)" fill="none" stroke="#fff" stroke-linecap="round" stroke-linejoin="round" stroke-width="1.039"/>
                <path id="패스_428" data-name="패스 428" d="M505.264,303.5c-.8,14.273,0,29.275,0,43.715,0,14.3,3.341,59.03,2.49,73.046" transform="translate(-470.671 -303.503)" fill="none" stroke="#fff" stroke-linecap="round" stroke-linejoin="round" stroke-width="1.039"/>
                <path id="패스_429" data-name="패스 429" d="M488.458,304.845c-.8,14.273,0,29.276,0,43.715,0,14.3,3.34,59.029,2.49,73.046" transform="translate(-470.671 -303.503)" fill="none" stroke="#fff" stroke-linecap="round" stroke-linejoin="round" stroke-width="1.039"/>
                <path id="패스_430" data-name="패스 430" d="M471.028,307.529c-.8,14.273,0,29.275,0,43.716,0,14.3,3.341,59.029,2.49,73.045" transform="translate(-470.671 -303.503)" fill="none" stroke="#fff" stroke-linecap="round" stroke-linejoin="round" stroke-width="1.039"/>
              </g>
              <g id="그룹_198" data-name="그룹 198" transform="translate(-33.457 -19.047)">
                <path id="패스_431" data-name="패스 431" d="M454.757,278.209c-.8,14.274,0,29.276,0,43.716,0,14.3,2.1,29.5,1.245,43.52" transform="translate(-388.416 -256.066)" fill="none" stroke="#fff" stroke-linecap="round" stroke-linejoin="round" stroke-width="1.039"/>
                <path id="패스_432" data-name="패스 432" d="M439.818,267.473c-.8,14.273,0,29.276,0,43.716,0,14.3,3.34,59.029,2.49,73.045" transform="translate(-388.416 -256.066)" fill="none" stroke="#fff" stroke-linecap="round" stroke-linejoin="round" stroke-width="1.039"/>
                <path id="패스_433" data-name="패스 433" d="M423.01,256.066c-.8,14.273,0,29.276,0,43.715,0,14.3,3.341,59.03,2.49,73.047" transform="translate(-388.416 -256.066)" fill="none" stroke="#fff" stroke-linecap="round" stroke-linejoin="round" stroke-width="1.039"/>
                <path id="패스_434" data-name="패스 434" d="M406.2,257.407c-.8,14.273,0,29.276,0,43.716,0,14.3,3.34,59.029,2.49,73.046" transform="translate(-388.416 -256.066)" fill="none" stroke="#fff" stroke-linecap="round" stroke-linejoin="round" stroke-width="1.039"/>
                <path id="패스_435" data-name="패스 435" d="M388.774,260.091c-.8,14.273,0,29.276,0,43.716,0,14.3,3.341,59.029,2.49,73.046" transform="translate(-388.416 -256.066)" fill="none" stroke="#fff" stroke-linecap="round" stroke-linejoin="round" stroke-width="1.039"/>
              </g>
            </g>
          </g>
          <line id="선_13" data-name="선 13" x1="1.354" y2="54.991" transform="translate(85.053 80.353)" fill="none" stroke="#222a2c" stroke-linecap="round" stroke-linejoin="round" stroke-width="0.779"/>
          <path id="패스_436" data-name="패스 436" d="M508.665,329.223l-9.107,13.745-6.68-9.163-9.108,6.546,1.214-13.093" transform="translate(-406.675 -253.698)" fill="none" stroke="#222a2c" stroke-linecap="round" stroke-linejoin="round" stroke-width="0.779"/>
          <line id="선_14" data-name="선 14" x1="12.627" y1="2.15" transform="translate(63.539 95.147)" fill="none" stroke="#222a2c" stroke-linecap="round" stroke-linejoin="round" stroke-width="0.779"/>
          <line id="선_15" data-name="선 15" x1="13.359" y2="15.055" transform="translate(21.231 29.051)" fill="none" stroke="#222a2c" stroke-linecap="round" stroke-linejoin="round" stroke-width="0.52"/>
          <g id="그룹_204" data-name="그룹 204" transform="translate(74.832 41.161)">
            <g id="그룹_203" data-name="그룹 203">
              <path id="패스_437" data-name="패스 437" d="M487.165,318.891c-.477,2.259-1.91,4.158-3.8,3.017-2.17-1.3-3.127-7.619,1.048-8.176C487.006,313.388,487.687,316.365,487.165,318.891Z" transform="translate(-481.507 -294.858)" fill="#eeb7b7"/>
              <g id="그룹_202" data-name="그룹 202" transform="translate(1.868)">
                <path id="패스_438" data-name="패스 438" d="M485.918,310.7c-.869,7.9-3.684,19.383,6.632,22.994,9.281,3.247,14.032-2.829,15.632-11.394,1.237-6.615,1.237-16.367-5.782-19.383a11.3,11.3,0,0,0-15.529,7.744" transform="translate(-483.375 -294.858)" fill="#eeb7b7"/>
                <path id="패스_439" data-name="패스 439" d="M498.826,296.324c-4.025-2.638-8.56-1.583-12.07,2.109a11.577,11.577,0,0,0-3.381,6.86c-.045.649,1.49,7.1,2.217,6.3,2.387-2.642,3.541-4,6.707-3.917.388.01,7.377,2.473,7.4,1.164,4.412,9.8,13.255,15.618,12.376,2.479-.24-3.552-1.807-5.519-4.226-7.815-1.641-1.554-3.746-2.066-5.262-3.22-1.088-.829-1.653-2.313-2.843-3.284A11.029,11.029,0,0,0,498.826,296.324Z" transform="translate(-483.375 -294.858)" fill="#fff"/>
                <path id="패스_440" data-name="패스 440" d="M508.712,318.916c2.216.348,3.754-1.743,3.363-7.6-.24-3.552-1.807-5.519-4.226-7.815-1.641-1.554-3.746-2.066-5.262-3.22-1.088-.829-1.653-2.313-2.843-3.284a11.029,11.029,0,0,0-.919-.676c-4.025-2.638-8.56-1.583-12.07,2.109a11.577,11.577,0,0,0-3.381,6.86c-.045.649,1.49,7.1,2.217,6.3" transform="translate(-483.375 -294.858)" fill="none" stroke="#c9c9c9" stroke-linecap="round" stroke-linejoin="round" stroke-width="0.52"/>
                <path id="패스_441" data-name="패스 441" d="M494.832,317.614l-2.348,2.283,2.012,1.117" transform="translate(-483.375 -294.858)" fill="none" stroke="#222a2c" stroke-linecap="round" stroke-linejoin="round" stroke-width="0.675"/>
                <g id="그룹_201" data-name="그룹 201" transform="translate(6.052 21.455)">
                  <path id="패스_442" data-name="패스 442" d="M491.091,317.51c.026.658-.327,1.179-.787,1.177s-.853-.543-.877-1.193.328-1.185.788-1.18S491.068,316.858,491.091,317.51Z" transform="translate(-489.426 -316.313)" fill="#222a2c"/>
                  <path id="패스_443" data-name="패스 443" d="M500.348,318.184c.026.657-.33,1.181-.785,1.176s-.856-.536-.878-1.194.33-1.179.79-1.175S500.327,317.533,500.348,318.184Z" transform="translate(-489.426 -316.313)" fill="#222a2c"/>
                </g>
                <path id="패스_444" data-name="패스 444" d="M499.266,325.9c-2.709,4.136-9.028.73-9.255-1.46" transform="translate(-483.375 -294.858)" fill="none" stroke="#222a2c" stroke-linecap="round" stroke-linejoin="round" stroke-width="0.52"/>
              </g>
              <path id="패스_445" data-name="패스 445" d="M507.344,318.5c3.618-1.9,5.42,2.221,3.438,5.037-1.183,1.685-4.422,3.362-5.357.505a4.355,4.355,0,0,1-.2-1.117" transform="translate(-481.507 -294.858)" fill="#eeb7b7"/>
              <line id="선_16" data-name="선 16" y1="1.628" x2="1.641" transform="translate(26.391 26.063)" fill="none" stroke="#222a2c" stroke-linecap="round" stroke-linejoin="round" stroke-width="0.39"/>
            </g>
            <path id="패스_446" data-name="패스 446" d="M503,328.787c.992-3.576-1.3-5.293-3.643-6.546" transform="translate(-481.507 -294.858)" fill="none" stroke="#222a2c" stroke-linecap="round" stroke-linejoin="round" stroke-width="0.52"/>
            <path id="패스_447" data-name="패스 447" d="M485.894,317.333a3.45,3.45,0,1,0,3.44-3.709A3.582,3.582,0,0,0,485.894,317.333Z" transform="translate(-481.507 -294.858)" fill="none" stroke="#fff" stroke-width="0.52"/>
            <path id="패스_448" data-name="패스 448" d="M495.407,317.333a3.451,3.451,0,1,0,3.44-3.709A3.582,3.582,0,0,0,495.407,317.333Z" transform="translate(-481.507 -294.858)" fill="none" stroke="#fff" stroke-width="0.52"/>
            <line id="선_17" data-name="선 17" x1="2.632" transform="translate(11.268 22.475)" fill="none" stroke="#fff" stroke-width="0.5"/>
          </g>
          <line id="선_18" data-name="선 18" x1="0.64" y2="30.363" transform="translate(53.122 83.495)" fill="none" stroke="#222a2c" stroke-linecap="round" stroke-linejoin="round" stroke-width="0.779"/>
          <path id="패스_449" data-name="패스 449" d="M508.743,314.613a9.017,9.017,0,0,1-4.694-8.74" transform="translate(-406.675 -253.698)" fill="none" stroke="#c9c9c9" stroke-linecap="round" stroke-linejoin="round" stroke-width="0.52"/>
          <path id="패스_450" data-name="패스 450" d="M509.6,313.694c-1.433-1.773-2.908-3.822-2.561-6.441" transform="translate(-406.675 -253.698)" fill="none" stroke="#c9c9c9" stroke-linecap="round" stroke-linejoin="round" stroke-width="0.52"/>
          <path id="패스_451" data-name="패스 451" d="M498.927,305.872c-6.374,3.167-6.1-9.058-13.228-.459" transform="translate(-406.675 -253.698)" fill="none" stroke="#c9c9c9" stroke-linecap="round" stroke-linejoin="round" stroke-width="0.52"/>
          <path id="패스_452" data-name="패스 452" d="M497.646,303.572c-2.8-2.961-7.329-6.969-9.815-1.84" transform="translate(-406.675 -253.698)" fill="none" stroke="#c9c9c9" stroke-linecap="round" stroke-linejoin="round" stroke-width="0.52"/>
          <line id="선_19" data-name="선 19" x1="2.701" y2="5.925" transform="translate(93.024 49.216)" fill="none" stroke="#c9c9c9" stroke-linecap="round" stroke-linejoin="round" stroke-width="0.52"/>
        </g>
      </g>
    </g>
  </g>
</svg>
