<svg xmlns="http://www.w3.org/2000/svg" width="28" height="28" viewBox="0 0 28 28">
  <g id="그룹_4634" data-name="그룹 4634" transform="translate(-1623 -5126)">
    <rect id="사각형_2563" data-name="사각형 2563" width="28" height="28" transform="translate(1623 5126)" fill="none"/>
    <g id="그룹_4631" data-name="그룹 4631" transform="translate(1042.543 4360.631)">
      <path id="패스_9779" data-name="패스 9779" d="M633.218,859.853a.707.707,0,1,0,.707.707A.707.707,0,0,0,633.218,859.853Z" transform="translate(-44.385 -82.454)" fill="#42d31a"/>
      <circle id="타원_94" data-name="타원 94" cx="0.762" cy="0.762" r="0.762" transform="translate(594.544 778.087) rotate(-45)" fill="#42d31a"/>
      <path id="패스_9780" data-name="패스 9780" d="M601.783,770.369H587.133a2.712,2.712,0,0,0-2.675,2.748v8.929a2.712,2.712,0,0,0,2.675,2.748h5.174l1.76,4.258s.121.369.414.369h0c.293,0,.414-.369.414-.369l1.76-4.258h5.127a2.712,2.712,0,0,0,2.675-2.748v-8.929A2.712,2.712,0,0,0,601.783,770.369Zm-11.041,7.893a1.671,1.671,0,0,1-1.652,1.679,1.36,1.36,0,0,1-.994-.433v.294h-1.2v-5.069c-.005,0-.005,0,0,0v0c.074.012,1.2,0,1.2,0v1.939c.281-.493,1.1-.485,1.1-.485C590.963,776.355,590.742,778.262,590.742,778.262Zm2.107-1.921v3.471h-1.171v-3.436c0-.467-.565-.6-.565-.6v-1.212A1.651,1.651,0,0,1,592.848,776.341Zm2.777,3.6a1.859,1.859,0,1,1,1.964-1.857A1.912,1.912,0,0,1,595.625,779.944Zm6.417,0a1.7,1.7,0,0,1-1.728,1.763h-.531v-1.142h.32s.733.069.725-1.091c0,0-.143.47-1.171.47a1.56,1.56,0,0,1-1.458-1.569v-.554a1.7,1.7,0,0,1,1.635-1.636,1.176,1.176,0,0,1,1.02.467v-.372h1.188Z" fill="#42d31a"/>
      <circle id="타원_95" data-name="타원 95" cx="0.744" cy="0.744" r="0.744" transform="translate(599.423 777.343)" fill="#42d31a"/>
    </g>
  </g>
</svg>
