<svg xmlns="http://www.w3.org/2000/svg" xmlns:xlink="http://www.w3.org/1999/xlink" width="28" height="28" viewBox="0 0 28 28">
  <defs>
    <linearGradient id="linear-gradient" x1="0.91" y1="0.08" x2="0.128" y2="0.944" gradientUnits="objectBoundingBox">
      <stop offset="0" stop-color="#6f4396"/>
      <stop offset="0.276" stop-color="#c12a75"/>
      <stop offset="0.527" stop-color="#dc4c46"/>
      <stop offset="0.778" stop-color="#e6734f"/>
      <stop offset="1" stop-color="#ffcd63"/>
    </linearGradient>
  </defs>
  <g id="그룹_4633" data-name="그룹 4633" transform="translate(-1578 -5127)">
    <rect id="사각형_2562" data-name="사각형 2562" width="28" height="28" transform="translate(1578 5127)" fill="none"/>
    <g id="그룹_4630" data-name="그룹 4630" transform="translate(1192.289 4862.43)">
      <g id="그룹_4629" data-name="그룹 4629" transform="translate(390.211 268.57)">
        <g id="그룹_4628" data-name="그룹 4628" transform="translate(0 0)">
          <path id="패스_9776" data-name="패스 9776" d="M330.06,194.9h-7.5a6.019,6.019,0,0,0-6.019,6.019v7.5a6.018,6.018,0,0,0,6.019,6.018h7.5a6.018,6.018,0,0,0,6.018-6.018v-7.5A6.018,6.018,0,0,0,330.06,194.9Zm4.143,12.8a4.863,4.863,0,0,1-4.863,4.863h-6.058a4.863,4.863,0,0,1-4.864-4.863v-6.058a4.864,4.864,0,0,1,4.864-4.863h6.058a4.864,4.864,0,0,1,4.863,4.863Z" transform="translate(-316.545 -194.905)" fill="url(#linear-gradient)"/>
          <path id="패스_9777" data-name="패스 9777" d="M373.456,244.262a5.145,5.145,0,1,0,5.145,5.145A5.145,5.145,0,0,0,373.456,244.262Zm0,8.24a3.1,3.1,0,1,1,3.1-3.1A3.1,3.1,0,0,1,373.456,252.5Z" transform="translate(-363.427 -239.606)" fill="url(#linear-gradient)"/>
          <path id="패스_9778" data-name="패스 9778" d="M462.374,230.841a1.308,1.308,0,1,1-1.309-1.309A1.309,1.309,0,0,1,462.374,230.841Z" transform="translate(-446.247 -226.266)" fill="url(#linear-gradient)"/>
        </g>
      </g>
    </g>
  </g>
</svg>
