<svg xmlns="http://www.w3.org/2000/svg" width="27" height="21" viewBox="0 0 27 21">
  <g id="그룹_5522" data-name="그룹 5522" transform="translate(-153.036 -340.344)">
    <path id="사각형_3177" data-name="사각형 3177" d="M0,0H4.982a0,0,0,0,1,0,0V2.764a0,0,0,0,1,0,0H2.764A2.764,2.764,0,0,1,0,0V0A0,0,0,0,1,0,0Z" transform="translate(153.536 345.006)" fill="none" stroke="#139274" stroke-linecap="round" stroke-linejoin="round" stroke-width="1"/>
    <path id="사각형_3178" data-name="사각형 3178" d="M2.764,0H4.982a0,0,0,0,1,0,0V2.764a0,0,0,0,1,0,0H0a0,0,0,0,1,0,0v0A2.764,2.764,0,0,1,2.764,0Z" transform="translate(179.536 347.77) rotate(-180)" fill="none" stroke="#139274" stroke-linecap="round" stroke-linejoin="round" stroke-width="1"/>
    <rect id="사각형_3179" data-name="사각형 3179" width="24.218" height="8.509" rx="2.116" transform="translate(154.427 348.195)" fill="#fff" stroke="#139274" stroke-linecap="round" stroke-linejoin="round" stroke-width="1"/>
    <path id="패스_10011" data-name="패스 10011" d="M176.314,347.512H157.949l1.644-6.669H174.67Z" transform="translate(-0.596 0)" fill="#fff" stroke="#139274" stroke-linecap="round" stroke-linejoin="round" stroke-width="1"/>
    <line id="선_893" data-name="선 893" x2="1.712" transform="translate(157.582 352.382)" fill="none" stroke="#139274" stroke-linecap="round" stroke-linejoin="round" stroke-width="1"/>
    <line id="선_894" data-name="선 894" x1="1.712" transform="translate(173.779 352.382)" fill="none" stroke="#139274" stroke-linecap="round" stroke-linejoin="round" stroke-width="1"/>
    <path id="사각형_3180" data-name="사각형 3180" d="M0,0H3.756a0,0,0,0,1,0,0V2.575A1.181,1.181,0,0,1,2.575,3.756H1.181A1.181,1.181,0,0,1,0,2.575V0A0,0,0,0,1,0,0Z" transform="translate(156.331 357.088)" fill="none" stroke="#139274" stroke-linecap="round" stroke-linejoin="round" stroke-width="1"/>
    <path id="사각형_3181" data-name="사각형 3181" d="M1.181,0H2.575A1.181,1.181,0,0,1,3.756,1.181V3.756a0,0,0,0,1,0,0H0a0,0,0,0,1,0,0V1.181A1.181,1.181,0,0,1,1.181,0Z" transform="translate(176.74 360.844) rotate(-180)" fill="none" stroke="#139274" stroke-linecap="round" stroke-linejoin="round" stroke-width="1"/>
  </g>
</svg>
