<svg xmlns="http://www.w3.org/2000/svg" width="232" height="140" viewBox="0 0 232 140">
  <g id="그룹_9181" data-name="그룹 9181" transform="translate(-598 -916)">
    <g id="그룹_5569" data-name="그룹 5569" transform="translate(-35 -39)">
      <rect id="사각형_3185" data-name="사각형 3185" width="232" height="126" rx="6" transform="translate(633 955)" fill="#fff"/>
      <path id="패스_10015" data-name="패스 10015" d="M1757.445-13833.723l7.438,16.02,8.01-16.02Z" transform="translate(-1017.066 14912.703)" fill="#fff"/>
    </g>
    <text id="강원특별자치도_양구군_동면_숨골로_310번길_131" data-name="강원특별자치도 양구군 동면
숨골로 310번길 131" transform="translate(714 998)" fill="#222" font-size="14" font-family="NotoSansKR-Regular, Noto Sans KR"><tspan x="-80" y="0">강원특별자치도 양구군 동면</tspan><tspan x="-58" y="20">숨골로 310번길 131</tspan></text>
    <g id="그룹_2955" data-name="그룹 2955" transform="translate(-929 28)">
      <line id="선_107" data-name="선 107" x2="8" y2="8" transform="translate(1735 904)" fill="none" stroke="#222" stroke-width="1"/>
      <line id="선_108" data-name="선 108" x1="8" y2="8" transform="translate(1735 904)" fill="none" stroke="#222" stroke-width="1"/>
    </g>
    <g id="그룹_5618" data-name="그룹 5618" transform="translate(527.52 651.127)">
      <g id="한글" transform="translate(160.239 288.823)">
        <path id="패스_10024" data-name="패스 10024" d="M274.57,306.428a4.93,4.93,0,0,1,.336-1.9,3.184,3.184,0,0,1,.968-1.21,4.256,4.256,0,0,1,1.538-.719,8.117,8.117,0,0,1,2.03-.234,5.836,5.836,0,0,1,3.537.953,3.749,3.749,0,0,1,1.288,3.106v.236a4.134,4.134,0,0,1-.336,1.733,3.137,3.137,0,0,1-.96,1.21,4.251,4.251,0,0,1-1.523.711,8.1,8.1,0,0,1-2.038.234,7.933,7.933,0,0,1-2.015-.234,4.335,4.335,0,0,1-1.523-.711,3.1,3.1,0,0,1-.968-1.21,4.134,4.134,0,0,1-.336-1.733Zm6.419-.17a8.863,8.863,0,0,0-.125-1.632,3.311,3.311,0,0,0-.344-1.023,1.378,1.378,0,0,0-.5-.531,1.25,1.25,0,0,0-1.21,0,1.356,1.356,0,0,0-.508.531,3.415,3.415,0,0,0-.351,1.023,8.351,8.351,0,0,0-.133,1.632v.406a8.351,8.351,0,0,0,.133,1.632,3.273,3.273,0,0,0,.359,1.023,1.4,1.4,0,0,0,.516.531,1.276,1.276,0,0,0,.617.156,1.2,1.2,0,0,0,.593-.156,1.325,1.325,0,0,0,.492-.531,3.461,3.461,0,0,0,.336-1.023,8.863,8.863,0,0,0,.125-1.632Zm5.152,4.888a.264.264,0,0,1-.264-.264v-6.9a1.2,1.2,0,0,0-.1-.617q-.117-.211-.258-.476a1.314,1.314,0,0,1-.226-.555q-.008-.195.3-.2h2.849a1,1,0,0,1,.547.148.7.7,0,0,1,.234.633v.935a.363.363,0,0,0,.363.363h1.865a.019.019,0,0,1,.019.019v.975a.019.019,0,0,1-.019.019h-1.829a.4.4,0,0,0-.4.4v1.6a.421.421,0,0,0,.421.421h1.807a.019.019,0,0,1,.019.018v.976a.019.019,0,0,1-.019.019h-1.829a.4.4,0,0,0-.4.4v1.3a.7.7,0,0,1-.234.633,1,1,0,0,1-.547.148Z" transform="translate(-274.57 -302.134)" fill="#139274"/>
        <path id="패스_10025" data-name="패스 10025" d="M361.028,317.763v-5.985a.918.918,0,0,0-.918-.918H355.2a.019.019,0,0,1-.019-.019v-.976a.019.019,0,0,1,.019-.019h8.427a.02.02,0,0,0,.011,0,4.335,4.335,0,0,0,1.081-1.13,5.073,5.073,0,0,0,.586-1.586,13.678,13.678,0,0,0,.2-1.444q.055-.7.055-1.257v-.143a.453.453,0,0,0-.452-.453h-8.6a.019.019,0,0,1-.019-.019v-.975a.019.019,0,0,1,.019-.019h11.663a1,1,0,0,1,.547.148.7.7,0,0,1,.234.632v.953a15.96,15.96,0,0,1-.078,1.6,5.571,5.571,0,0,1-.265,1.468,3.3,3.3,0,0,1-.885,1.326,5.742,5.742,0,0,1-1.328.867.018.018,0,0,0,.008.035h3.746a.019.019,0,0,1,.019.019v.976a.019.019,0,0,1-.019.019h-4.881a.846.846,0,0,0-.846.846v5.084a1.552,1.552,0,0,1-.143.788,1.129,1.129,0,0,1-.706.41c-.181.03-1.423.133-2.1.184a.409.409,0,0,1-.439-.409" transform="translate(-336.684 -302.66)" fill="#139274"/>
        <path id="패스_10026" data-name="패스 10026" d="M291.406,341.338c4.067,0,5.359,1.925,5.359,3.1v.258c0,1.177-1.292,3.1-5.359,3.1h-1.017c-4.067,0-5.38-1.925-5.38-3.1v-.258c0-1.177,1.313-3.1,5.38-3.1Zm2.027,3.242a2.712,2.712,0,0,0-1.626-2.383,2.472,2.472,0,0,0-1.818,0,2.543,2.543,0,0,0,0,4.744,2.472,2.472,0,0,0,1.818,0,2.733,2.733,0,0,0,1.626-2.361" transform="translate(-282.617 -332.769)" fill="#139274"/>
        <path id="패스_10027" data-name="패스 10027" d="M443.792,340.345H428.1a.019.019,0,0,0-.019.019v.975a.019.019,0,0,0,.019.019h5.662a.834.834,0,0,1,.834.834v3.51h0v1a.409.409,0,0,0,.439.409c.678-.051,1.919-.154,2.1-.184a1.129,1.129,0,0,0,.706-.41,1.553,1.553,0,0,0,.143-.788v-3.595a.774.774,0,0,1,.774-.774h5.033a.019.019,0,0,0,.019-.019v-.975a.019.019,0,0,0-.019-.019" transform="translate(-392.849 -332.001)" fill="#139274"/>
        <path id="패스_10028" data-name="패스 10028" d="M437.395,307.777a12.855,12.855,0,0,0,1.56-1.549.016.016,0,0,1,.016-.006,3.5,3.5,0,0,1,1.38.779,9.578,9.578,0,0,1,2.356,2.524c.4.639.791.414,1.478-.044,1.15-.767,1.7-.947.731-2.121a5.545,5.545,0,0,0-2.73-1.809h0a10.71,10.71,0,0,0-1.357-.273c-.414-.056-.7-.1-1.051-.123a.105.105,0,0,1-.1-.138,2.814,2.814,0,0,0,.371-1.5v-.755a.616.616,0,0,0-.168-.5.731.731,0,0,0-.527-.138h-3.2c-.212,0-.315.067-.309.2,0,.1.092.169.226.325a2.768,2.768,0,0,1,.208.256c.144.224.088.348.088,1.086a4.318,4.318,0,0,1-.615,2.045,6.125,6.125,0,0,1-1.117,1.26,7.473,7.473,0,0,1-1.723,1.06,7.036,7.036,0,0,1-1.873.564l.013.975a19.4,19.4,0,0,0,3.318-.615,10.6,10.6,0,0,0,3.02-1.51" transform="translate(-395.134 -302.13)" fill="#139274"/>
        <path id="패스_10029" data-name="패스 10029" d="M587.636,308.242a4.576,4.576,0,0,0,1.507.625,8.705,8.705,0,0,0,2,.211,6.357,6.357,0,0,0,3.537-.836,2.678,2.678,0,0,0,1.257-2.366v-.062a2.684,2.684,0,0,0-1.25-2.366,6.287,6.287,0,0,0-3.514-.836,8.577,8.577,0,0,0-2.022.219,4.812,4.812,0,0,0-1.515.625,2.836,2.836,0,0,0-.945,1,2.763,2.763,0,0,0-.328,1.359v.063a2.762,2.762,0,0,0,.328,1.359,2.9,2.9,0,0,0,.945,1.007m1.976-2.428a5.71,5.71,0,0,1,.117-1.257,2.457,2.457,0,0,1,.328-.82,1.244,1.244,0,0,1,.492-.445,1.374,1.374,0,0,1,.593-.133,1.41,1.41,0,0,1,.609.133,1.142,1.142,0,0,1,.476.445,2.706,2.706,0,0,1,.313.82,5.706,5.706,0,0,1,.117,1.257v.063a5.706,5.706,0,0,1-.117,1.257,2.7,2.7,0,0,1-.313.82,1.154,1.154,0,0,1-.469.445,1.321,1.321,0,0,1-.586.133,1.457,1.457,0,0,1-.617-.133,1.222,1.222,0,0,1-.5-.445,2.452,2.452,0,0,1-.328-.82,5.71,5.71,0,0,1-.117-1.257Z" transform="translate(-514.806 -302.502)" fill="#139274"/>
        <path id="패스_10030" data-name="패스 10030" d="M596.54,351.545a.7.7,0,0,0-.234-.632,1,1,0,0,0-.547-.149H592.87q-.312,0-.3.2a1.31,1.31,0,0,0,.226.554q.14.265.258.476a1.2,1.2,0,0,1,.1.617v1.384c0,.323-.094.607.234.864a1.7,1.7,0,0,0,.981.148H605.55a.019.019,0,0,0,.019-.019v-.976a.019.019,0,0,0-.019-.019h-8.524a.486.486,0,0,1-.486-.486Z" transform="translate(-519.587 -340.067)" fill="#139274"/>
        <path id="패스_10031" data-name="패스 10031" d="M598.158,302.916a.7.7,0,0,0-.234-.632,1,1,0,0,0-.547-.149h-2.889q-.313,0-.3.2a1.3,1.3,0,0,0,.226.554q.14.266.258.476a1.2,1.2,0,0,1,.1.617v4.371h0v1a.019.019,0,0,1-.018.019H583.095a.019.019,0,0,0-.019.019v.976a.019.019,0,0,0,.019.019h3.457a.57.57,0,0,1,.571.57v1.526a.217.217,0,0,0,.217.217h1.923a1,1,0,0,0,.547-.148q.234-.148.234-.632v-1.073a.459.459,0,0,1,.46-.459h4.247a.019.019,0,0,1,.018.019v.658a.477.477,0,0,1-.477.477h-2.754a.019.019,0,0,0-.019.019v1a.019.019,0,0,0,.019.019h2.634a.571.571,0,0,1,.6.586v1.752a.409.409,0,0,0,.439.409c.678-.051,1.919-.154,2.1-.184a1.129,1.129,0,0,0,.705-.41,1.555,1.555,0,0,0,.143-.788v-.7c0-.006,0-.011,0-.017Z" transform="translate(-512.271 -302.134)" fill="#139274"/>
        <path id="패스_10032" data-name="패스 10032" d="M524.546,346.438a.7.7,0,0,0-.234-.632,1,1,0,0,0-.547-.149h-11.48a.019.019,0,0,0-.019.019v.976a.019.019,0,0,0,.019.019h8.24a.615.615,0,0,1,.615.615v3.076h0v.42a.41.41,0,0,0,.44.41c.68-.051,1.928-.154,2.111-.184a1.135,1.135,0,0,0,.709-.411,1.552,1.552,0,0,0,.144-.789v-3.315h0Z" transform="translate(-457.72 -336.114)" fill="#139274"/>
        <path id="패스_10033" data-name="패스 10033" d="M514.73,310.18a.5.5,0,0,1-.5-.5v-1.2h3.857a1,1,0,0,0,.546-.148.7.7,0,0,0,.234-.633v-4.15a.7.7,0,0,0-.234-.633,1,1,0,0,0-.546-.148H506.339q-.312,0-.3.2a1.308,1.308,0,0,0,.226.554q.141.266.258.476a1.2,1.2,0,0,1,.1.617V307.7a.7.7,0,0,0,.234.633,1,1,0,0,0,.547.148h3.417a.019.019,0,0,1,.019.019v1.129a.555.555,0,0,1-.555.555h-5.345a.019.019,0,0,0-.019.019v.976a.019.019,0,0,0,.019.019h15.451a.019.019,0,0,0,.019-.019V310.2a.018.018,0,0,0-.019-.019Zm-4.709-2.734v-3.6a.019.019,0,0,1,.019-.019h5.4a.019.019,0,0,1,.019.019v3.6a.019.019,0,0,1-.019.019h-5.4a.019.019,0,0,1-.019-.019" transform="translate(-452.006 -302.62)" fill="#139274"/>
      </g>
      <path id="패스_10034" data-name="패스 10034" d="M147.056,302.318c.363,1.019-.339,1.72-1.462,1.92-1.647.293-3.133.567-4.594.935-.9.226-3.289-.557-4.2-.234-.766.271-.048,1.631-.865,2a29.56,29.56,0,0,0-8.68,6.22.5.5,0,0,1-.653.052c-.15-.135-.184-.376.049-.654,5.374-6.41,10.9-9.951,18.617-11.081a1.467,1.467,0,0,1,1.79.837" transform="translate(0 -12.764)" fill="#f68a53"/>
      <path id="패스_10035" data-name="패스 10035" d="M221.732,285.02l.715,1.942a.56.56,0,0,0,.386.348l2.052.524a.2.2,0,0,1,.074.352l-1.687,1.328a.5.5,0,0,0-.191.427l.14,2.174a.185.185,0,0,1-.287.166l-1.815-1.215a.493.493,0,0,0-.456-.048l-1.991.792a.205.205,0,0,1-.273-.247l.586-2.073a.472.472,0,0,0-.091-.43l-1.4-1.691a.184.184,0,0,1,.135-.3l2.169-.084a.521.521,0,0,0,.42-.242l1.117-1.765a.225.225,0,0,1,.4.043" transform="translate(-70.136 0)" fill="#f68a53"/>
      <path id="패스_10036" data-name="패스 10036" d="M175.443,323.647c-.034.751-.63,1.042-1.411.906a25.482,25.482,0,0,0-6.952-.532,20.538,20.538,0,0,0-7.147,2,.346.346,0,0,1-.439-.121c-.066-.124-.031-.289.188-.415a29.029,29.029,0,0,1,3.688-1.82c.667-.268,2.626.38,3.288.187s.028-1.227.693-1.344a18.634,18.634,0,0,1,7.122.169s1,.222.97.973" transform="translate(-25.432 -29.452)" fill="#f68a53"/>
      <path id="패스_10037" data-name="패스 10037" d="M168.3,401.592c-1.674-.379-1.733-2.632-1.733-2.632v-4.013l6.277-.272V398.9a.822.822,0,0,1-.4.745,2.214,2.214,0,0,1-1,.225c-1.363,0-1.144,2.178-3.147,1.725" transform="translate(-30.907 -86.781)" fill="#ec7fa4"/>
      <path id="패스_10038" data-name="패스 10038" d="M151.424,316.43l-3.442-4.732a.2.2,0,0,1,.21-.3l.775.118a.2.2,0,0,0,.21-.3l-3.547-4.876a.194.194,0,0,1,.191-.3l.293.021a.194.194,0,0,0,.187-.306l-3.049-3.844a.193.193,0,0,1,.17-.307h.328a.193.193,0,0,0,.169-.309l-2.7-3.31a.193.193,0,0,1,.169-.309.193.193,0,0,0,.171-.306s-1.615-2.1-1.916-2.479-.644-.39-.929,0-1.886,2.48-1.886,2.48a.193.193,0,0,0,.171.306.193.193,0,0,1,.169.309l-2.7,3.31a.193.193,0,0,0,.169.309h.328a.193.193,0,0,1,.17.307l-3.049,3.844a.194.194,0,0,0,.187.306l.293-.021a.194.194,0,0,1,.191.3l-3.547,4.876a.2.2,0,0,0,.21.3l.775-.118a.2.2,0,0,1,.21.3l-3.442,4.732a.2.2,0,0,0,.21.3l4.44-.676-.587.807a.2.2,0,0,0,.21.3l4.685-.713,2.678,1.468a1.13,1.13,0,0,0,1.131-.032l2.363-1.481,4.983.759a.2.2,0,0,0,.21-.3l-.6-.82,4.524.689a.2.2,0,0,0,.21-.3M142.7,305.083c0,.624-.36,1.129-.8,1.129s-.8-.505-.8-1.129.36-1.129.8-1.129.8.505.8,1.129m-1.672-5.258.85,1.421-.636.321-.85-1.421Zm-2.171-.071.725.031-.089,1.747-.725-.031Zm-1.5-.011.617.351-.967,1.431-.617-.351Zm-.869,4.211c.444,0,.8.505.8,1.129s-.36,1.129-.8,1.129-.8-.505-.8-1.129.36-1.129.8-1.129M132.1,314.078l-.684-.392,1.667-2.447.684.392Zm3.231,1.3-.751-.271,1.021-2.384.751.271Zm4.1-.135-.807-.008.03-2.507.807.008Zm-.108-4.661a3.873,3.873,0,0,1-3.787-2.342.478.478,0,0,1,.373-.588.53.53,0,0,1,.641.342,2.859,2.859,0,0,0,2.773,1.626,2.792,2.792,0,0,0,2.53-1.667.539.539,0,0,1,.672-.287.471.471,0,0,1,.313.617,3.82,3.82,0,0,1-3.515,2.3m2.968,4.541-.516-2.215.789-.155.516,2.215Zm4.115.528-.042-.058h.053Zm-.112-1.423-1.731-2.479.679-.4,1.731,2.479Z" transform="translate(-0.346 -7.504)" fill="#009174"/>
      <g id="영문" transform="translate(161.251 305.737)">
        <path id="패스_10039" data-name="패스 10039" d="M283.789,387.67a1.659,1.659,0,0,0-.4,1.306,3.627,3.627,0,0,0,.118,1.272c.118.244.564.194.564.589,0,.606-1.331.606-1.743.606-1.33,0-1.7-.3-1.7-.53,0-.455.342-.272.494-.618.155-.125.1-.672.1-1.489a1.316,1.316,0,0,0-.37-1.019l-.952-1.1c-.413-.48-.893-.535-.893-.853,0-.194.259-.573,1.649-.573,1.112,0,1.714.1,1.714.381,0,.219-.278.356-.278.533s.55,1.192.718,1.065a2.787,2.787,0,0,0,.718-1c0-.236-.242-.278-.242-.486,0-.5.659-.5,1.3-.5.613,0,1.145.127,1.145.5,0,.449-.305.407-.679.616a1.285,1.285,0,0,0-.321.261Z" transform="translate(-279.014 -385.26)" fill="#139274"/>
        <path id="패스_10040" data-name="패스 10040" d="M308.391,395.358c0,1.482.505.674.505,1.128,0,.48-.657,1-1.272,1-.665,0-.682-.429-.893-.429-.1,0-.211.109-.4.21a1.539,1.539,0,0,1-.825.219,1.247,1.247,0,0,1-1.4-1.2c0-.6.573-1.339,2.055-1.339.261,0,.379.017.379-.286,0-.278-.008-.859-.4-.859-.505,0-.556.91-1.305.91a.454.454,0,0,1-.472-.463c0-.716,1.423-1.179,2.223-1.179.48,0,1.794.185,1.794,1.448Zm-2.527.741c0,.219.118.455.362.455.32,0,.345-.345.345-.6,0-.185.008-.4-.227-.4a.515.515,0,0,0-.48.539" transform="translate(-298.355 -391.28)" fill="#139274"/>
        <path id="패스_10041" data-name="패스 10041" d="M329.022,396.05c0,.817.286.674.286.994,0,.522-1.12.505-1.465.505s-1.2,0-1.2-.505c0-.4.387-.042.413-.867l.034-1.263c.017-.623-.5-.421-.5-.867s1.937-.867,2.105-.867a.313.313,0,0,1,.3.328c0,.051-.008.1-.008.152,0,.1.042.219.168.219s.211-.177.379-.354a1.171,1.171,0,0,1,.9-.345c1.743,0,1.448,1.709,1.533,2.99.042.665.387.514.387.876,0,.152.034.505-1.55.505-.3,0-1.111.017-1.111-.455,0-.3.278-.16.32-.707.042-.6.278-1.945-.514-1.945-.539,0-.489.581-.489.96Z" transform="translate(-315.679 -391.365)" fill="#139274"/>
        <path id="패스_10042" data-name="패스 10042" d="M355.891,398.286c-1.558,0-2.147-.59-2.147-1.128,0-.488.463-.5.463-.623,0-.11-.455-.345-.455-.716,0-.6.682-.775.682-.893,0-.1-.573-.488-.573-1.111,0-1.019,1.272-1.491,2.122-1.491.429,0,1.011.16,1.305.16.64,0,.96-.446,1.086-.446.194,0,.278.253.278.413,0,.472-.472.809-.472.9s.025.177.025.261c0,1.137-1.322,1.524-2.249,1.524-.143,0-.286-.025-.438-.025a.212.212,0,0,0-.227.227c0,.261.37.312.564.312.261,0,1.238-.143,1.575-.143.876,0,1.247.5,1.247,1,0,.758-.724,1.777-2.788,1.777m.084-.724c.278,0,.91-.042.91-.43,0-.177-.168-.253-.328-.253-.126,0-.455.051-.724.051-.194,0-.649-.067-.741-.067-.076,0-.1.076-.1.135,0,.446.657.564.985.564m.051-4.624c-.329,0-.472.312-.472.606,0,.32.084,1.019.514,1.019.379,0,.505-.328.505-.657,0-.345-.076-.968-.547-.968" transform="translate(-336.598 -390.485)" fill="#139274"/>
        <path id="패스_10043" data-name="패스 10043" d="M379.163,398.286c-1.558,0-2.147-.59-2.147-1.128,0-.488.463-.5.463-.623,0-.11-.455-.345-.455-.716,0-.6.682-.775.682-.893,0-.1-.573-.488-.573-1.111,0-1.019,1.272-1.491,2.122-1.491.43,0,1.011.16,1.305.16.64,0,.96-.446,1.086-.446.194,0,.278.253.278.413,0,.472-.472.809-.472.9s.025.177.025.261c0,1.137-1.322,1.524-2.249,1.524-.143,0-.286-.025-.438-.025a.212.212,0,0,0-.227.227c0,.261.37.312.564.312.261,0,1.238-.143,1.575-.143.876,0,1.247.5,1.247,1,0,.758-.724,1.777-2.788,1.777m.084-.724c.278,0,.91-.042.91-.43,0-.177-.169-.253-.328-.253-.126,0-.455.051-.724.051-.194,0-.649-.067-.741-.067-.076,0-.1.076-.1.135,0,.446.657.564.985.564m.051-4.624c-.329,0-.472.312-.472.606,0,.32.084,1.019.514,1.019.379,0,.505-.328.505-.657,0-.345-.076-.968-.547-.968" transform="translate(-354.53 -390.485)" fill="#139274"/>
        <path id="패스_10044" data-name="패스 10044" d="M401.28,395.636c0,.337.025.859.48.859.606,0,.522-.792.522-1.2a6.517,6.517,0,0,0-.034-.909c-.067-.421-.48-.278-.48-.632,0-.5,1.692-.581,2.013-.581.3,0,.43.177.43.472,0,.27-.017.531-.017.8v1.693c0,.505.463.269.463.674,0,.573-1.491.733-1.954.733-.649,0-.219-.505-.556-.505-.093,0-.227.126-.429.253a1.538,1.538,0,0,1-.842.253c-1.6,0-1.465-1.263-1.465-2.527,0-1.288-.581-.724-.581-1.28,0-.539,2.122-.564,2.19-.564.236,0,.261.109.261.32Z" transform="translate(-371.337 -391.364)" fill="#139274"/>
        <path id="패스_10045" data-name="패스 10045" d="M434.066,388.459a5.3,5.3,0,0,0,.606-1.987.91.91,0,0,1,1.019-1.019c.733,0,1,.792,1.326,1.348.143.244,1.124,2.748,1.451,3.428.238.494.547.355.578.741.037.462-.393.622-1,.622-1.2,0-1.929,0-1.929-.53,0-.4.514-.253.514-.548,0-.379-.211-.413-1.566-.413-.438,0-.7.017-.7.429,0,.329.539.11.539.548,0,.505-.515.514-1.247.514-1.2,0-1.314-.227-1.314-.5,0-.4.455-.278.7-.581a4.891,4.891,0,0,0,.488-.9Zm1.768.606c.084,0,.337.017.337-.109a4.142,4.142,0,0,0-.267-.729c-.1-.255-.214-.516-.4-.516-.2,0-.394.621-.428.714a2.925,2.925,0,0,0-.177.522c0,.143.21.118.3.118Z" transform="translate(-397.163 -385.409)" fill="#139274"/>
        <path id="패스_10046" data-name="패스 10046" d="M463.264,394.9c0-.825-.522-.362-.522-.876,0-.665,1.971-.85,2.046-.85.32,0,.329.084.362.371.009.1,0,.295.143.295.2,0,.328-.665,1.053-.665a.918.918,0,0,1,.935.977,1.03,1.03,0,0,1-1.036,1.011c-.547,0-.7-.48-.918-.48-.236,0-.194.564-.194.716a7.728,7.728,0,0,0,.068.926c.05.37.69.143.69.649,0,.53-.741.573-1.667.573-.388,0-1.464.067-1.464-.514,0-.354.318-.4.411-.7a4.155,4.155,0,0,0,.093-.926Z" transform="translate(-420.586 -391.365)" fill="#139274"/>
        <path id="패스_10047" data-name="패스 10047" d="M484.8,388.065c0,.042-.008.135.059.135.042,0,.177-.135.4-.261a1.668,1.668,0,0,1,.884-.261,1.726,1.726,0,0,1,1.651,1.861,2.494,2.494,0,0,1-2.527,2.56,3.261,3.261,0,0,1-1.693-.547c-.135,0-.269.126-.547.126-.118,0-.253-.034-.253-.168a5.514,5.514,0,0,0,.169-1.5v-2.24c0-.489-.632-.27-.632-.75,0-.564,1.634-.943,2.333-.943.227,0,.219.177.211.362Zm.43.91c-.371,0-.413.3-.413.59,0,1.634.092,1.768.43,1.768.556,0,.648-.632.648-1.061,0-.4-.109-1.3-.665-1.3" transform="translate(-435.664 -385.89)" fill="#139274"/>
        <path id="패스_10048" data-name="패스 10048" d="M507.933,395.425a2.484,2.484,0,0,1,2.712-2.358,2.241,2.241,0,0,1,2.316,2.2c0,1.381-1.482,2.223-2.72,2.223a2.094,2.094,0,0,1-2.307-2.063m2.35-1.364a.442.442,0,0,0-.413.505c.034.531.185,1.828.766,1.861.32.017.387-.253.387-.522,0-.379-.168-1.844-.741-1.844" transform="translate(-455.406 -391.28)" fill="#139274"/>
        <path id="패스_10049" data-name="패스 10049" d="M531.129,394.9c0-.825-.522-.362-.522-.876,0-.665,1.971-.85,2.047-.85.32,0,.328.084.362.371.008.1,0,.295.143.295.2,0,.328-.665,1.053-.665a.918.918,0,0,1,.935.977,1.03,1.03,0,0,1-1.036,1.011c-.547,0-.7-.48-.918-.48-.236,0-.194.564-.194.716a7.721,7.721,0,0,0,.068.926c.05.37.69.143.69.649,0,.53-.741.573-1.667.573-.388,0-1.533.017-1.533-.564,0-.354.387-.354.48-.648a4.156,4.156,0,0,0,.093-.926Z" transform="translate(-472.84 -391.365)" fill="#139274"/>
        <path id="패스_10050" data-name="패스 10050" d="M552.83,395.434c-.092,0-.227-.025-.227.118,0,.421.547.775.943.775.632,0,.943-.379,1.12-.379s.328.261.328.421c0,.649-1.187,1.12-1.946,1.12a2.163,2.163,0,0,1-2.3-2.181,2.3,2.3,0,0,1,2.367-2.24,1.942,1.942,0,0,1,2.063,1.735c0,.556-.253.632-.522.632Zm.733-1.061a.494.494,0,0,0-.5-.539.559.559,0,0,0-.506.556c0,.3.286.236.506.236s.5.051.5-.253" transform="translate(-488.357 -391.28)" fill="#139274"/>
        <path id="패스_10051" data-name="패스 10051" d="M572.767,392.027c0,.564.236.7.463.7.261,0,.413-.194.564-.194.168,0,.286.236.286.387,0,.556-.96,1.044-1.811,1.044a1.42,1.42,0,0,1-1.508-1.524V390.7c0-.152,0-.211-.042-.236a1.086,1.086,0,0,0-.328-.009c-.219,0-.328.009-.37-.034-.059-.059-.042-.143-.042-.337,0-.118-.026-.211.076-.278l1.92-1.221c.194-.118.185-.093.438-.093.337,0,.354-.034.354.354a2.594,2.594,0,0,0,.025.623c.025.067.084.067.3.067h.59c.362,0,.362.025.362.4,0,.48-.059.514-.388.514h-.581c-.295,0-.312.009-.312.312Z" transform="translate(-503.182 -387.755)" fill="#139274"/>
        <path id="패스_10052" data-name="패스 10052" d="M591.209,395.605c0,.337.025.859.48.859.606,0,.522-.792.522-1.2a6.508,6.508,0,0,0-.034-.909c-.067-.421-.48-.278-.48-.632,0-.5,1.693-.581,2.013-.581.3,0,.43.177.43.472,0,.27-.017.531-.017.8v1.693c0,.505.311.334.311.738,0,.573-1.338.669-1.8.669-.649,0-.219-.505-.556-.505-.093,0-.227.126-.429.253a1.538,1.538,0,0,1-.842.253c-1.6,0-1.385-1.4-1.385-2.664,0-1.471-.382-.822-.375-1.278.009-.539,1.835-.429,1.9-.429.236,0,.261.109.261.32Z" transform="translate(-517.886 -391.333)" fill="#139274"/>
        <path id="패스_10053" data-name="패스 10053" d="M614.48,395.107c0-.539-.109-.691-.194-.766-.109-.092-.227-.084-.227-.3,0-.623,2.089-.859,2.105-.859.211,0,.228.185.228.362,0,.1-.034.387.143.387.084,0,.219-.185.455-.379a1.664,1.664,0,0,1,1.07-.371c1,0,1.011.75,1.188.75.067,0,.219-.185.463-.379a1.706,1.706,0,0,1,1.019-.371,1.166,1.166,0,0,1,1.3,1.263v1.777c0,.488.312.53.312.775,0,.53-.96.556-1.289.556-.278,0-1.255-.059-1.255-.5,0-.312.295-.3.295-.791V395.5c0-.354.042-1.061-.438-1.061s-.43.573-.43.884v.522c0,1.036.3.859.3,1.171,0,.522-1.011.531-1.314.531-1.271,0-1.339-.236-1.331-.472.008-.446.429-.093.4-1.095v-.48c0-.3.042-1.061-.438-1.061s-.429.573-.429.884v.682c0,.775.227.724.227,1.027,0,.219-.194.514-1.347.514-.328,0-1.322.008-1.322-.438,0-.379.505-.177.505-1.23Z" transform="translate(-537.109 -391.365)" fill="#139274"/>
      </g>
    </g>
  </g>
</svg>
