<svg xmlns="http://www.w3.org/2000/svg" width="18" height="20" viewBox="0 0 18 20">
  <g id="그룹_4783" data-name="그룹 4783" transform="translate(-1867.47 -123.658)">
    <g id="그룹_4625" data-name="그룹 4625" transform="translate(1867.47 123.658)">
      <path id="패스_9771" data-name="패스 9771" d="M1885.393,140.5a3.311,3.311,0,0,1-6.615,0,3.029,3.029,0,0,1,.292-1.3l-5.689-3.293a3.357,3.357,0,0,1-2.6,1.211,3.165,3.165,0,1,1,0-6.324,3.36,3.36,0,0,1,2.561,1.161l5.867-3.713a3.031,3.031,0,0,1-.351-1.418,3.311,3.311,0,1,1,3.308,3.162,3.362,3.362,0,0,1-2.534-1.129l-5.875,3.718a3.043,3.043,0,0,1,.028,2.705l5.684,3.289a3.357,3.357,0,0,1,2.619-1.23A3.237,3.237,0,0,1,1885.393,140.5Z" transform="translate(-1867.47 -123.658)" fill="#fff"/>
    </g>
  </g>
</svg>
