<svg xmlns="http://www.w3.org/2000/svg" width="103.621" height="78" viewBox="0 0 103.621 78">
  <g id="그룹_8765" data-name="그룹 8765" transform="translate(-468.5 -511.5)">
    <g id="그룹_8762" data-name="그룹 8762" transform="translate(470 513)">
      <path id="패스_10158" data-name="패스 10158" d="M776.621,460.1h60.236a6.486,6.486,0,0,0,6.121-6.456H781.764a6.133,6.133,0,1,1-12.264.021V391.5" transform="translate(-757.134 -385.096)" fill="none" stroke="#666" stroke-linecap="round" stroke-linejoin="round" stroke-width="3"/>
      <path id="패스_10159" data-name="패스 10159" d="M762.5,383.5h60.264a6.154,6.154,0,0,1,6.114,6.194v18.189" transform="translate(-755.738 -383.5)" fill="none" stroke="#666" stroke-linecap="round" stroke-linejoin="round" stroke-width="3"/>
      <path id="패스_10160" data-name="패스 10160" d="M766.419,389.9a6.559,6.559,0,0,0-6.4-6.4,6.184,6.184,0,0,0-5.961,6.4h11.565" transform="translate(-754.053 -383.5)" fill="none" stroke="#666" stroke-linecap="round" stroke-linejoin="round" stroke-width="3"/>
      <line id="선_931" data-name="선 931" y2="11.236" transform="translate(72.904 56.391)" fill="none" stroke="#666" stroke-linecap="round" stroke-linejoin="round" stroke-width="3"/>
      <line id="선_932" data-name="선 932" x2="28.819" transform="translate(34.654 14.81)" fill="none" stroke="#666" stroke-linecap="round" stroke-linejoin="round" stroke-width="2"/>
      <line id="선_933" data-name="선 933" x2="4.003" transform="translate(22.93 14.81)" fill="none" stroke="#666" stroke-linecap="round" stroke-linejoin="round" stroke-width="2"/>
      <line id="선_934" data-name="선 934" x2="14.409" transform="translate(34.759 31.048)" fill="none" stroke="#666" stroke-linecap="round" stroke-linejoin="round" stroke-width="2"/>
      <line id="선_935" data-name="선 935" x2="4.003" transform="translate(22.93 31.048)" fill="none" stroke="#666" stroke-linecap="round" stroke-linejoin="round" stroke-width="2"/>
      <line id="선_936" data-name="선 936" x2="8.806" transform="translate(34.79 47.984)" fill="none" stroke="#666" stroke-linecap="round" stroke-linejoin="round" stroke-width="2"/>
      <line id="선_937" data-name="선 937" x2="4.003" transform="translate(22.93 47.984)" fill="none" stroke="#666" stroke-linecap="round" stroke-linejoin="round" stroke-width="2"/>
    </g>
    <g id="그룹_8764" data-name="그룹 8764" transform="translate(533.176 527.62)">
      <g id="그룹_8763" data-name="그룹 8763">
        <path id="패스_10161" data-name="패스 10161" d="M546.028,220.38l4.282,4.282,4.281,4.283" transform="translate(-517.768 -220.38)" fill="none" stroke="#666" stroke-linecap="round" stroke-linejoin="round" stroke-width="3"/>
        <path id="패스_10162" data-name="패스 10162" d="M532.894,254.77l-9.854,1.438,1.439-9.855L535.5,235.331l11.021-11.022,4.21,4.209,4.208,4.209-11.021,11.021Z" transform="translate(-523.04 -219.383)" fill="none" stroke="#666" stroke-linecap="round" stroke-linejoin="round" stroke-width="3"/>
      </g>
    </g>
  </g>
</svg>
