<svg xmlns="http://www.w3.org/2000/svg" width="26" height="26" viewBox="0 0 26 26">
  <g id="그룹_4782" data-name="그룹 4782" transform="translate(-1607.256 -316.256)">
    <rect id="사각형_2559" data-name="사각형 2559" width="26" height="26" transform="translate(1607.256 316.256)" fill="none"/>
    <g id="그룹_4627" data-name="그룹 4627" transform="translate(1315.653 96.401)">
      <path id="패스_9772" data-name="패스 9772" d="M298.574,244.664h-1.716a2.252,2.252,0,0,1-1.595-.661,2.276,2.276,0,0,1-.483-.717,2.244,2.244,0,0,1-.178-.878v-5.351a2.244,2.244,0,0,1,.178-.878,2.251,2.251,0,0,1,2.078-1.378h15.885A2.254,2.254,0,0,1,315,237.058v5.351a2.255,2.255,0,0,1-2.256,2.256h-1.716" transform="translate(0 -5.433)" fill="none" stroke="#fff" stroke-linecap="round" stroke-linejoin="round" stroke-width="2"/>
      <rect id="사각형_2560" data-name="사각형 2560" width="10.31" height="7.621" transform="translate(299.646 235.645)" fill="none" stroke="#fff" stroke-linecap="round" stroke-linejoin="round" stroke-width="2"/>
      <path id="패스_9773" data-name="패스 9773" d="M303.6,228.712v-6.267h10.31v6.267" transform="translate(-3.956)" fill="none" stroke="#fff" stroke-linecap="round" stroke-linejoin="round" stroke-width="2"/>
    </g>
  </g>
</svg>
