<svg xmlns="http://www.w3.org/2000/svg" width="23.5" height="23.5" viewBox="0 0 23.5 23.5">
  <g id="그룹_9127" data-name="그룹 9127" transform="translate(-297.932 -325.077)">
    <g id="그룹_9125" data-name="그룹 9125" transform="translate(298.682 325.827)">
      <g id="그룹_9124" data-name="그룹 9124">
        <line id="선_942" data-name="선 942" y2="16.599" transform="translate(16.621 2.7)" fill="none" stroke="#fff" stroke-linecap="round" stroke-linejoin="round" stroke-width="1.5"/>
        <path id="패스_10833" data-name="패스 10833" d="M315.372,328.527a2.7,2.7,0,1,1,2.7,2.7h-2.7" transform="translate(-298.774 -325.827)" fill="none" stroke="#fff" stroke-linecap="round" stroke-linejoin="round" stroke-width="1.5"/>
        <path id="패스_10834" data-name="패스 10834" d="M315.372,345.651a2.7,2.7,0,1,0,2.7-2.7h-2.7" transform="translate(-298.774 -326.352)" fill="none" stroke="#fff" stroke-linecap="round" stroke-linejoin="round" stroke-width="1.5"/>
        <path id="패스_10835" data-name="패스 10835" d="M304.826,347.827h-3.457a2.664,2.664,0,0,1-2.687-2.638V328.464a2.663,2.663,0,0,1,2.687-2.637h16.612" transform="translate(-298.682 -325.827)" fill="none" stroke="#fff" stroke-linecap="round" stroke-linejoin="round" stroke-width="1.5"/>
      </g>
      <line id="선_943" data-name="선 943" x1="9.55" transform="translate(9.749 22)" fill="none" stroke="#fff" stroke-linecap="round" stroke-linejoin="round" stroke-width="1.5"/>
      <line id="선_944" data-name="선 944" x2="8.082" transform="translate(3.937 3.464)" fill="none" stroke="#fff" stroke-linecap="round" stroke-linejoin="round" stroke-width="1.5"/>
      <line id="선_945" data-name="선 945" x2="5.503" transform="translate(5.224 6.611)" fill="none" stroke="#fff" stroke-linecap="round" stroke-linejoin="round" stroke-width="1.5"/>
    </g>
  </g>
</svg>
