<svg xmlns="http://www.w3.org/2000/svg" width="60" height="60" viewBox="0 0 60 60">
  <g id="그룹_5650" data-name="그룹 5650" transform="translate(-669 -1007)">
    <rect id="사각형_3222" data-name="사각형 3222" width="60" height="60" transform="translate(669 1007)" fill="none"/>
    <g id="그룹_5647" data-name="그룹 5647" transform="translate(-6 -3.073)">
      <path id="패스_10069" data-name="패스 10069" d="M1048.135,843.2h-.2v-.146a4.234,4.234,0,0,0-4.227-4.232h-4.119l-.026-.005c-.007-.051-.015-.121-.022-.217a13.234,13.234,0,0,1,1.489-7.175,25.951,25.951,0,0,0,2.406-6.081,7.947,7.947,0,0,0-1.215-6.252,9.066,9.066,0,0,0-6.075-3.823,8.762,8.762,0,0,0-2.768,0,9.067,9.067,0,0,0-6.075,3.823,7.949,7.949,0,0,0-1.215,6.252,25.959,25.959,0,0,0,2.406,6.081,13.231,13.231,0,0,1,1.489,7.175c-.007.1-.014.166-.022.217l-.026.005h-4.119a4.234,4.234,0,0,0-4.227,4.232v.146h-.2a2.013,2.013,0,0,0-2.009,2.012v3.2a2.013,2.013,0,0,0,2.009,2.012h26.749a2.013,2.013,0,0,0,2.01-2.012v-3.2A2.013,2.013,0,0,0,1048.135,843.2Zm-19.84-18.353a5.705,5.705,0,0,1,.88-4.484,6.8,6.8,0,0,1,4.559-2.856,6.494,6.494,0,0,1,2.053,0,6.8,6.8,0,0,1,4.559,2.856,5.7,5.7,0,0,1,.88,4.484,23.918,23.918,0,0,1-2.208,5.538,15.437,15.437,0,0,0-1.737,8.372c0,.022,0,.044.005.066h-5.052c0-.022,0-.044,0-.066a15.437,15.437,0,0,0-1.736-8.372A23.916,23.916,0,0,1,1028.294,824.846Zm-4.444,18.207a1.967,1.967,0,0,1,1.964-1.966h17.891a1.967,1.967,0,0,1,1.964,1.966v.146h-21.82Zm24.031,5.1h-26.242v-2.693h26.242Z" transform="translate(-331.376 205.913)"/>
      <g id="타원_119" data-name="타원 119" transform="translate(704.941 1042.013)" fill="#fff" stroke="#139274" stroke-width="2">
        <circle cx="8.529" cy="8.529" r="8.529" stroke="none"/>
        <circle cx="8.529" cy="8.529" r="7.529" fill="none"/>
      </g>
      <g id="타원_120" data-name="타원 120" transform="translate(708.495 1045.567)" fill="#fff" stroke="#139274" stroke-width="2">
        <circle cx="4.975" cy="4.975" r="4.975" stroke="none"/>
        <circle cx="4.975" cy="4.975" r="3.975" fill="none"/>
      </g>
    </g>
  </g>
</svg>
