<svg xmlns="http://www.w3.org/2000/svg" width="38" height="38" viewBox="0 0 38 38">
  <g id="그룹_5622" data-name="그룹 5622" transform="translate(-1607.256 -316.256)">
    <rect id="사각형_2559" data-name="사각형 2559" width="38" height="38" transform="translate(1607.256 316.256)" fill="none"/>
    <g id="그룹_4627" data-name="그룹 4627" transform="translate(1611.64 320.041)">
      <path id="패스_9772" data-name="패스 9772" d="M300.407,249.215H297.9a3.291,3.291,0,0,1-2.331-.966,3.327,3.327,0,0,1-.706-1.048,3.28,3.28,0,0,1-.26-1.283V238.1a3.28,3.28,0,0,1,.26-1.283A3.29,3.29,0,0,1,297.9,234.8h23.216a3.294,3.294,0,0,1,3.3,3.3v7.82a3.3,3.3,0,0,1-3.3,3.3h-2.508" transform="translate(-294.603 -224.681)" fill="none" stroke="#222" stroke-linecap="round" stroke-linejoin="round" stroke-width="2"/>
      <rect id="사각형_2560" data-name="사각형 2560" width="15.068" height="11.138" transform="translate(7.371 19.293)" fill="none" stroke="#222" stroke-linecap="round" stroke-linejoin="round" stroke-width="2"/>
      <path id="패스_9773" data-name="패스 9773" d="M303.6,231.6v-9.16h15.068v9.16" transform="translate(-296.232 -222.444)" fill="none" stroke="#222" stroke-linecap="round" stroke-linejoin="round" stroke-width="2"/>
    </g>
  </g>
</svg>
