<svg xmlns="http://www.w3.org/2000/svg" width="130.567" height="130.809" viewBox="0 0 130.567 130.809">
  <g id="그룹_9155" data-name="그룹 9155" transform="translate(-156.473 -145.708)">
    <g id="그룹_9154" data-name="그룹 9154">
      <path id="패스_10167" data-name="패스 10167" d="M230.156,155.993l-.992-3.255-3.995-.3-1.456,3.073-1.172-.088,4.645-9.717,1.043.078,3.126,10.3Zm-1.263-4.31-.932-3.23c-.021-.083-.055-.221-.1-.412s-.1-.389-.145-.593-.089-.37-.12-.5c-.06.183-.122.364-.188.545s-.13.346-.192.5-.114.282-.159.389l-1.42,3.054Z" fill="#666"/>
      <path id="패스_10168" data-name="패스 10168" d="M241.654,150.788a4.609,4.609,0,0,1,.448.149,4.07,4.07,0,0,1,.4.18l-.421.976a3.127,3.127,0,0,0-.375-.183,3.384,3.384,0,0,0-.4-.14,2.028,2.028,0,0,0-.868-.054,2.086,2.086,0,0,0-.815.312,2.466,2.466,0,0,0-.672.658,3.092,3.092,0,0,0-.449.971l-1.078,3.872-1.1-.306,2.011-7.218.909.254-.252,1.363.046.013a3.752,3.752,0,0,1,.744-.584,2.545,2.545,0,0,1,.882-.326A2.23,2.23,0,0,1,241.654,150.788Z" fill="#666"/>
      <path id="패스_10169" data-name="패스 10169" d="M251.236,151.267l-1.2,2.374q-.207.408-.422.782l-.336.581.055.028a2.553,2.553,0,0,1,1.179-.363,2.857,2.857,0,0,1,1.481.357,2.814,2.814,0,0,1,1.566,1.882,4.335,4.335,0,0,1-.556,2.962,5.28,5.28,0,0,1-1.3,1.732,2.894,2.894,0,0,1-1.556.685,2.992,2.992,0,0,1-1.67-.346,2.883,2.883,0,0,1-1.154-.953,2.523,2.523,0,0,1-.419-1.119l-.08-.04-.66.792-.732-.369,4.791-9.5Zm.167,4.525a2.3,2.3,0,0,0-1.3-.3,1.753,1.753,0,0,0-1.044.545,5.263,5.263,0,0,0-.914,1.349l-.028.055a4.092,4.092,0,0,0-.554,2.144,1.871,1.871,0,0,0,1.2,1.441,1.774,1.774,0,0,0,1.746.023,3.857,3.857,0,0,0,1.452-1.717,3.775,3.775,0,0,0,.521-2.18A1.8,1.8,0,0,0,251.4,155.792Z" fill="#666"/>
      <path id="패스_10170" data-name="패스 10170" d="M263.546,167.6a5.208,5.208,0,0,1-1.227,1.125,3.383,3.383,0,0,1-1.308.512,2.993,2.993,0,0,1-1.327-.1,3.782,3.782,0,0,1-1.287-.71,3.514,3.514,0,0,1-.9-1.075,3.033,3.033,0,0,1-.355-1.273,3.452,3.452,0,0,1,.228-1.394,5.042,5.042,0,0,1,.848-1.434,4.8,4.8,0,0,1,1.648-1.36,2.988,2.988,0,0,1,1.758-.268,3.6,3.6,0,0,1,1.72.817,3.436,3.436,0,0,1,1.1,1.49,3.094,3.094,0,0,1,.091,1.781A4.681,4.681,0,0,1,263.546,167.6Zm-4.417-3.6a4.607,4.607,0,0,0-.8,1.365,2.11,2.11,0,0,0-.076,1.261,2.454,2.454,0,0,0,1.988,1.623,2.105,2.105,0,0,0,1.223-.326,4.583,4.583,0,0,0,1.175-1.062,4.492,4.492,0,0,0,.794-1.35,2.076,2.076,0,0,0,.065-1.248,2.18,2.18,0,0,0-.776-1.093,1.949,1.949,0,0,0-1.815-.483A3.657,3.657,0,0,0,259.129,164Z" fill="#666"/>
      <path id="패스_10171" data-name="패스 10171" d="M273.244,172.485q.144.174.284.378a3.966,3.966,0,0,1,.23.378l-.9.563a3.129,3.129,0,0,0-.2-.363,3.386,3.386,0,0,0-.25-.343,2.051,2.051,0,0,0-1.531-.744,2.46,2.46,0,0,0-.927.158,3.083,3.083,0,0,0-.921.545l-3.089,2.572-.73-.877,5.756-4.795.6.725-.982.978.031.037a3.734,3.734,0,0,1,.944-.057,2.545,2.545,0,0,1,.911.234A2.22,2.22,0,0,1,273.244,172.485Z" fill="#666"/>
      <path id="패스_10172" data-name="패스 10172" d="M279.031,181.244a3.05,3.05,0,0,1,.426,1.64,2.759,2.759,0,0,1-.529,1.491,4.107,4.107,0,0,1-1.382,1.18l-.615.342-2.512-4.524a2.941,2.941,0,0,0-1.439,1.549,2.319,2.319,0,0,0,.266,1.9,5.439,5.439,0,0,0,.724,1.036,6.993,6.993,0,0,0,.885.807l-.872.484a5.557,5.557,0,0,1-.869-.8,6.613,6.613,0,0,1-.74-1.094,3.857,3.857,0,0,1-.528-1.86,3.034,3.034,0,0,1,.527-1.72,4.483,4.483,0,0,1,1.613-1.4,4.983,4.983,0,0,1,2.03-.661,3.022,3.022,0,0,1,3.015,1.637Zm-.819.439a1.861,1.861,0,0,0-1.224-.978,2.8,2.8,0,0,0-1.764.244l1.924,3.467a3.274,3.274,0,0,0,.93-.755,1.693,1.693,0,0,0,.4-.92A1.825,1.825,0,0,0,278.212,181.683Z" fill="#666"/>
      <path id="패스_10173" data-name="패스 10173" d="M277.563,195.083a3.655,3.655,0,0,0,.228.529,2.625,2.625,0,0,0,.262.416l-.836.281a2.445,2.445,0,0,1-.318-.475,4.035,4.035,0,0,1-.276-.631,2.712,2.712,0,0,1-.145-1.091,1.627,1.627,0,0,1,.424-.96,2.753,2.753,0,0,1,1.217-.714l4.214-1.412-.339-1.011.525-.176.762.877,1.686-.089.217.648-1.646.552.7,2.08-.842.282-.7-2.08-4.181,1.4a1.5,1.5,0,0,0-.9.643A1.126,1.126,0,0,0,277.563,195.083Z" fill="#666"/>
      <path id="패스_10174" data-name="패스 10174" d="M286.706,206.709l-7.426,1-.124-.921,1.022-.3-.009-.061a2.185,2.185,0,0,1-.731-.509,2.674,2.674,0,0,1-.506-.769,3.487,3.487,0,0,1-.264-.955,3.451,3.451,0,0,1,.086-1.515,1.909,1.909,0,0,1,.76-1.016,3.413,3.413,0,0,1,1.49-.508l4.864-.655.153,1.138-4.782.644a2,2,0,0,0-1.329.607,1.672,1.672,0,0,0-.285,1.342,2.451,2.451,0,0,0,.489,1.275,1.755,1.755,0,0,0,1.013.585,4.5,4.5,0,0,0,1.517.016l3.909-.526Z" fill="#666"/>
      <path id="패스_10175" data-name="패스 10175" d="M286.208,222.847a2.5,2.5,0,0,1-.864,1.777,2.9,2.9,0,0,1-2.135.376l-4.873-.583.133-1.114,4.819.578a2.039,2.039,0,0,0,1.4-.228,1.455,1.455,0,0,0,.59-1.1,1.885,1.885,0,0,0-.436-1.643,2.97,2.97,0,0,0-1.781-.709l-4.161-.5.135-1.12,4.818.578a2.538,2.538,0,0,0,1.026-.053,1.248,1.248,0,0,0,.662-.443,1.7,1.7,0,0,0,.3-.842,2.087,2.087,0,0,0-.162-1.224,1.726,1.726,0,0,0-.829-.757,4.762,4.762,0,0,0-1.452-.377l-3.937-.472.135-1.127,7.439.892-.109.91-1.072.043-.007.061a2.27,2.27,0,0,1,.584.642,2.465,2.465,0,0,1,.309.808,3.25,3.25,0,0,1-.458,2.3,1.845,1.845,0,0,1-1.06.716l-.007.062a2.338,2.338,0,0,1,.84,1.119A3.148,3.148,0,0,1,286.208,222.847Z" fill="#666"/>
      <path id="패스_10176" data-name="패스 10176" d="M273.781,244.794a5.261,5.261,0,0,1-1.321-1.014,3.388,3.388,0,0,1-.73-1.2,2.984,2.984,0,0,1-.132-1.324,3.764,3.764,0,0,1,.477-1.39,3.53,3.53,0,0,1,.9-1.073,3.038,3.038,0,0,1,1.193-.57,3.463,3.463,0,0,1,1.412-.016,5.041,5.041,0,0,1,1.559.586,4.8,4.8,0,0,1,1.625,1.388,2.992,2.992,0,0,1,.568,1.686,3.586,3.586,0,0,1-.507,1.835,3.448,3.448,0,0,1-1.276,1.342,3.082,3.082,0,0,1-1.739.4A4.682,4.682,0,0,1,273.781,244.794Zm2.785-4.974a4.588,4.588,0,0,0-1.482-.556,2.1,2.1,0,0,0-1.255.143,2.451,2.451,0,0,0-1.255,2.239,2.11,2.11,0,0,0,.532,1.148,4.654,4.654,0,0,0,1.249.974,4.512,4.512,0,0,0,1.469.548,2.071,2.071,0,0,0,1.24-.152,2.17,2.17,0,0,0,.941-.954,1.948,1.948,0,0,0,.163-1.871A3.661,3.661,0,0,0,276.566,239.82Z" fill="#666"/>
      <path id="패스_10177" data-name="패스 10177" d="M269.935,254.467l1.2-1.434-5.073-4.227.726-.872,5.073,4.228.85-1.019.419.35-.56,1.259.384.32a3.6,3.6,0,0,1,1,1.2,1.84,1.84,0,0,1,.149,1.183,2.761,2.761,0,0,1-.616,1.177,3.886,3.886,0,0,1-.563.558,5.108,5.108,0,0,1-.536.376l-.5-.8q.207-.132.442-.313a2.7,2.7,0,0,0,.429-.412,1.115,1.115,0,0,0,.291-1.007,2.223,2.223,0,0,0-.811-1.082l-.42-.35-1.195,1.434Z" fill="#666"/>
      <path id="패스_10178" data-name="패스 10178" d="M255.557,264.489l.425,5.657-1.057.668-.451-6.951-2.069-3.278.983-.62,2.04,3.232,6.115,3.439-1.075.678Z" fill="#666"/>
      <path id="패스_10179" data-name="패스 10179" d="M245.04,272.61a2.845,2.845,0,0,1-2.075.131,2.5,2.5,0,0,1-1.279-1.573l-1.779-4.772.775-.289.592.961.051-.019a4.068,4.068,0,0,1,.375-.873,2.368,2.368,0,0,1,.594-.666,3.679,3.679,0,0,1,.979-.514,2.91,2.91,0,0,1,1.221-.2,1.865,1.865,0,0,1,1.034.388,2.267,2.267,0,0,1,.715,1.046,1.957,1.957,0,0,1-.231,1.925,5.175,5.175,0,0,1-2.307,1.56l-1.192.5.16.429a1.816,1.816,0,0,0,.866,1.129,1.657,1.657,0,0,0,1.238-.046,3.662,3.662,0,0,0,.991-.551,7.687,7.687,0,0,0,.807-.732l.628.685a6.214,6.214,0,0,1-.934.823A5.1,5.1,0,0,1,245.04,272.61Zm-2.793-3.147,1.053-.443a3.859,3.859,0,0,0,1.691-1.119,1.314,1.314,0,0,0,.139-1.271,1.139,1.139,0,0,0-.7-.754,1.621,1.621,0,0,0-1.075.073,2.4,2.4,0,0,0-1.337,1.089,2.084,2.084,0,0,0-.015,1.778Z" fill="#666"/>
      <path id="패스_10180" data-name="패스 10180" d="M231.524,276.017a2.381,2.381,0,0,1-3.066-2.332l-.7-4.831,1.11-.161.689,4.756a2.01,2.01,0,0,0,.623,1.326,1.691,1.691,0,0,0,1.362.272,2.007,2.007,0,0,0,1.631-.947,3.477,3.477,0,0,0,.208-2.1l-.562-3.883,1.123-.163,1.074,7.416-.907.131-.324-1.045-.061.009a2.276,2.276,0,0,1-.506.747,2.759,2.759,0,0,1-.76.524A3.273,3.273,0,0,1,231.524,276.017Z" fill="#666"/>
      <path id="패스_10181" data-name="패스 10181" d="M219.682,265.547a3.986,3.986,0,0,1,2.235.7,1.762,1.762,0,0,1,.7,1.589,1.742,1.742,0,0,1-.525,1.172,2.207,2.207,0,0,1-1.281.581,1.336,1.336,0,0,1,.475.442,1.011,1.011,0,0,1,.167.641,1.185,1.185,0,0,1-.276.7,2.4,2.4,0,0,1-.738.552,2.013,2.013,0,0,1,.9.87,2.4,2.4,0,0,1,.279,1.35,2.671,2.671,0,0,1-.423,1.353,2.171,2.171,0,0,1-1.026.807,3.568,3.568,0,0,1-1.554.2c-.132-.008-.264-.023-.4-.043s-.261-.044-.382-.072a2.553,2.553,0,0,1-.316-.093l-2.565-.167.048-.73,1.389-.08a2.416,2.416,0,0,1-.382-1.505,2.238,2.238,0,0,1,.872-1.728,3.077,3.077,0,0,1,2.124-.523,3.931,3.931,0,0,1,.638.1,1.63,1.63,0,0,0,.534-.377.824.824,0,0,0,.208-.507.468.468,0,0,0-.111-.357.791.791,0,0,0-.373-.212,2.769,2.769,0,0,0-.6-.1l-1.317-.085a2.986,2.986,0,0,1-1.839-.633,1.793,1.793,0,0,1-.555-1.537,2.146,2.146,0,0,1,1.134-1.837A5.35,5.35,0,0,1,219.682,265.547Zm-.092.884a5.325,5.325,0,0,0-1.55.088,1.925,1.925,0,0,0-.95.48,1.241,1.241,0,0,0-.358.815.994.994,0,0,0,.161.692,1.062,1.062,0,0,0,.58.347,5.154,5.154,0,0,0,.964.141l1.3.084a2.3,2.3,0,0,0,.89-.1,1.237,1.237,0,0,0,.606-.427,1.357,1.357,0,0,0,.251-.751,1.024,1.024,0,0,0-.451-.958A2.8,2.8,0,0,0,219.59,266.431Zm-.682,5.957a1.66,1.66,0,0,0-1.247.33,1.619,1.619,0,0,0-.487,1.167,1.722,1.722,0,0,0,.334,1.286,1.661,1.661,0,0,0,1.2.5,1.592,1.592,0,0,0,1.226-.356,1.756,1.756,0,0,0,.5-1.237,1.566,1.566,0,0,0-.347-1.2A1.67,1.67,0,0,0,218.908,272.388Z" fill="#666"/>
      <path id="패스_10182" data-name="패스 10182" d="M209.052,263.872A3.988,3.988,0,0,1,211.1,265a1.768,1.768,0,0,1,.364,1.7,1.737,1.737,0,0,1-.75,1.042,2.213,2.213,0,0,1-1.372.312,1.332,1.332,0,0,1,.376.528,1.007,1.007,0,0,1,.035.662,1.186,1.186,0,0,1-.411.635,2.4,2.4,0,0,1-.834.391,2.02,2.02,0,0,1,.705,1.034,2.412,2.412,0,0,1,0,1.379,2.688,2.688,0,0,1-.688,1.24,2.176,2.176,0,0,1-1.166.584,3.581,3.581,0,0,1-1.563-.117c-.128-.035-.255-.076-.381-.122s-.247-.1-.36-.148a2.919,2.919,0,0,1-.291-.154l-2.479-.68.193-.7,1.377.2a2.358,2.358,0,0,1-.159-.71,2.437,2.437,0,0,1,.088-.841,2.245,2.245,0,0,1,1.2-1.517,3.077,3.077,0,0,1,2.185-.085,3.959,3.959,0,0,1,.605.223,1.616,1.616,0,0,0,.6-.261.825.825,0,0,0,.305-.455.465.465,0,0,0-.036-.371.8.8,0,0,0-.323-.284,2.758,2.758,0,0,0-.572-.217l-1.272-.348a2.98,2.98,0,0,1-1.674-.991,1.785,1.785,0,0,1-.234-1.616,2.144,2.144,0,0,1,1.48-1.572A5.342,5.342,0,0,1,209.052,263.872Zm-2.135,6.545a1.664,1.664,0,0,0-1.288.072,1.624,1.624,0,0,0-.712,1.046,1.721,1.721,0,0,0,.069,1.326,1.66,1.66,0,0,0,1.076.731,1.6,1.6,0,0,0,1.271-.1,1.753,1.753,0,0,0,.741-1.112,1.561,1.561,0,0,0-.1-1.246A1.669,1.669,0,0,0,206.917,270.417Zm1.867-5.7a5.3,5.3,0,0,0-1.536-.226,1.933,1.933,0,0,0-1.027.278,1.241,1.241,0,0,0-.514.728.982.982,0,0,0,.018.709,1.05,1.05,0,0,0,.5.457,5.182,5.182,0,0,0,.915.332l1.253.343a2.253,2.253,0,0,0,.892.081,1.232,1.232,0,0,0,.679-.295,1.367,1.367,0,0,0,.4-.685,1.025,1.025,0,0,0-.249-1.029A2.784,2.784,0,0,0,208.784,264.72Z" fill="#666"/>
      <path id="패스_10183" data-name="패스 10183" d="M190.414,267.875l3.451-6.65.825.428-.339,1.01.055.029a2.191,2.191,0,0,1,.836-.306,2.683,2.683,0,0,1,.922.028,3.5,3.5,0,0,1,.931.334,3.448,3.448,0,0,1,1.191.941,1.913,1.913,0,0,1,.394,1.206,3.411,3.411,0,0,1-.442,1.512l-2.261,4.356-1.019-.529,2.224-4.284a2.005,2.005,0,0,0,.267-1.436,1.671,1.671,0,0,0-.934-1.005,2.456,2.456,0,0,0-1.325-.333,1.757,1.757,0,0,0-1.061.493,4.5,4.5,0,0,0-.885,1.231l-1.817,3.5Z" fill="#666"/>
      <path id="패스_10184" data-name="패스 10184" d="M175.132,259.475a.7.7,0,0,1-.211-.47.882.882,0,0,1,.8-.792.732.732,0,0,1,.684.689.91.91,0,0,1-.8.792A.688.688,0,0,1,175.132,259.475Zm1.6-2.368,5.318-5.277.8.806-5.319,5.277Z" fill="#666"/>
      <path id="패스_10185" data-name="패스 10185" d="M169.56,248.566a2.38,2.38,0,0,1,.718-3.785L174.287,242l.64.921-3.948,2.74a2.013,2.013,0,0,0-.908,1.15,1.7,1.7,0,0,0,.365,1.341,2.012,2.012,0,0,0,1.576,1.036,3.48,3.48,0,0,0,1.967-.75L177.2,246.2l.647.932L171.7,251.4l-.522-.753.79-.756-.035-.051a2.278,2.278,0,0,1-.895-.119,2.758,2.758,0,0,1-.808-.446A3.255,3.255,0,0,1,169.56,248.566Z" fill="#666"/>
      <path id="패스_10186" data-name="패스 10186" d="M169.671,234.584a3.588,3.588,0,0,0-.277-.505,2.564,2.564,0,0,0-.3-.39l.805-.358a2.369,2.369,0,0,1,.361.442,4.014,4.014,0,0,1,.336.6,2.733,2.733,0,0,1,.248,1.071,1.641,1.641,0,0,1-.332,1,2.757,2.757,0,0,1-1.144.826l-4.061,1.8.433.974-.506.225-.842-.8-1.67.248-.277-.625,1.587-.7-.891-2.005.812-.361.891,2.005,4.029-1.79a1.5,1.5,0,0,0,.831-.724A1.129,1.129,0,0,0,169.671,234.584Z" fill="#666"/>
      <path id="패스_10187" data-name="패스 10187" d="M159.973,226.745a4.549,4.549,0,0,1-.1-.463,4.186,4.186,0,0,1-.047-.439l1.055-.125a3.012,3.012,0,0,0,.031.416,3.555,3.555,0,0,0,.079.417,2.044,2.044,0,0,0,1.067,1.327,2.451,2.451,0,0,0,.9.253,3.08,3.08,0,0,0,1.066-.1l3.891-1.006.286,1.106-7.254,1.875-.236-.914,1.306-.464-.012-.046a3.77,3.77,0,0,1-.878-.353,2.514,2.514,0,0,1-.723-.6A2.222,2.222,0,0,1,159.973,226.745Z" fill="#666"/>
      <path id="패스_10188" data-name="패스 10188" d="M162.137,212.486a5.279,5.279,0,0,1,1.659.141,3.37,3.37,0,0,1,1.262.617,2.967,2.967,0,0,1,.826,1.043,3.778,3.778,0,0,1,.348,1.428,3.5,3.5,0,0,1-.181,1.39,3.039,3.039,0,0,1-.7,1.124,3.448,3.448,0,0,1-1.179.775,5.058,5.058,0,0,1-1.63.347,4.8,4.8,0,0,1-2.116-.292,2.99,2.99,0,0,1-1.388-1.113,3.589,3.589,0,0,1-.563-1.819,3.439,3.439,0,0,1,.35-1.818,3.092,3.092,0,0,1,1.25-1.273A4.675,4.675,0,0,1,162.137,212.486Zm.338,5.691a4.574,4.574,0,0,0,1.548-.332,2.1,2.1,0,0,0,.98-.8,2.453,2.453,0,0,0-.152-2.563,2.1,2.1,0,0,0-1.067-.679,4.609,4.609,0,0,0-1.577-.146,4.5,4.5,0,0,0-1.532.33,2.08,2.08,0,0,0-.963.8,2.178,2.178,0,0,0-.277,1.311,1.946,1.946,0,0,0,.872,1.664A3.671,3.671,0,0,0,162.475,218.177Z" fill="#666"/>
      <path id="패스_10189" data-name="패스 10189" d="M166.75,203.872a2.809,2.809,0,0,1-1.308,2.074,4.333,4.333,0,0,1-2.979.374,4.381,4.381,0,0,1-2.755-1.29,2.822,2.822,0,0,1-.626-2.382,3.108,3.108,0,0,1,.315-1,2.527,2.527,0,0,1,.535-.691,2.646,2.646,0,0,1,.674-.441l.013-.081c-.142,0-.337-.016-.582-.036s-.446-.043-.6-.066l-2.965-.465.176-1.121,10.508,1.648-.142.9-1.08,0-.007.048a2.646,2.646,0,0,1,.518.624,2.515,2.515,0,0,1,.309.83A3.144,3.144,0,0,1,166.75,203.872Zm-.9-.322a1.97,1.97,0,0,0-.412-1.788,3.43,3.43,0,0,0-1.929-.807l-.2-.032a4.177,4.177,0,0,0-2.241.129,1.866,1.866,0,0,0-1.024,1.587,1.738,1.738,0,0,0,.551,1.671,4,4,0,0,0,2.084.853,3.743,3.743,0,0,0,2.187-.18A1.775,1.775,0,0,0,165.846,203.55Z" fill="#666"/>
      <path id="패스_10190" data-name="패스 10190" d="M164.089,185.878l6.97,2.749-.341.865-1.04-.234-.022.057a2.164,2.164,0,0,1,.389.8,2.651,2.651,0,0,1,.068.919,3.515,3.515,0,0,1-.236.962,3.436,3.436,0,0,1-.814,1.281,1.908,1.908,0,0,1-1.159.516,3.425,3.425,0,0,1-1.549-.283l-4.565-1.8.421-1.068,4.49,1.77a2.006,2.006,0,0,0,1.455.119,1.672,1.672,0,0,0,.9-1.033,2.455,2.455,0,0,0,.2-1.352,1.756,1.756,0,0,0-.6-1,4.45,4.45,0,0,0-1.315-.754l-3.67-1.448Z" fill="#666"/>
      <path id="패스_10191" data-name="패스 10191" d="M175.779,180.67a3.7,3.7,0,0,1-1.325,1.266,2.87,2.87,0,0,1-1.723.311,5.63,5.63,0,0,1-3.651-2.417,2.939,2.939,0,0,1-.387-1.751,3.876,3.876,0,0,1,.646-1.75,5.1,5.1,0,0,1,.688-.845,3.527,3.527,0,0,1,.707-.563l.608.806a5.891,5.891,0,0,0-.638.526,3.526,3.526,0,0,0-.55.641,2.332,2.332,0,0,0-.428,1.268,2.012,2.012,0,0,0,.4,1.185,4.4,4.4,0,0,0,1.2,1.09,4.287,4.287,0,0,0,1.436.64,2.041,2.041,0,0,0,1.228-.086,2.157,2.157,0,0,0,.963-.854,4.223,4.223,0,0,0,.481-.967,5.964,5.964,0,0,0,.226-.89l.847.554a3.51,3.51,0,0,1-.212.862A5.114,5.114,0,0,1,175.779,180.67Z" fill="#666"/>
      <path id="패스_10192" data-name="패스 10192" d="M181.409,172.263a3.612,3.612,0,0,0,.356-.453,2.694,2.694,0,0,0,.242-.429l.644.6a2.374,2.374,0,0,1-.265.505,3.9,3.9,0,0,1-.424.545,2.683,2.683,0,0,1-.889.647,1.63,1.63,0,0,1-1.047.085,2.75,2.75,0,0,1-1.207-.729L175.57,170l-.728.78-.4-.378.407-1.088-.882-1.439.466-.5,1.27,1.185,1.5-1.605.649.606-1.5,1.6,3.223,3.008a1.5,1.5,0,0,0,.991.481A1.129,1.129,0,0,0,181.409,172.263Z" fill="#666"/>
      <path id="패스_10193" data-name="패스 10193" d="M180.838,159.978a.7.7,0,0,1,.489-.16.884.884,0,0,1,.7.877.728.728,0,0,1-.757.607.908.908,0,0,1-.7-.877A.692.692,0,0,1,180.838,159.978Zm2.184,1.841,4.685,5.847-.886.709-4.684-5.847Z" fill="#666"/>
      <path id="패스_10194" data-name="패스 10194" d="M196.707,157.578a5.237,5.237,0,0,1,.582,1.56,3.377,3.377,0,0,1-.018,1.4,2.98,2.98,0,0,1-.59,1.192,3.765,3.765,0,0,1-1.142.926,3.516,3.516,0,0,1-1.334.43,3.034,3.034,0,0,1-1.314-.149,3.464,3.464,0,0,1-1.205-.735,5.046,5.046,0,0,1-1.01-1.325,4.794,4.794,0,0,1-.641-2.038,2.99,2.99,0,0,1,.412-1.73,3.589,3.589,0,0,1,1.4-1.287,3.447,3.447,0,0,1,1.794-.461,3.089,3.089,0,0,1,1.684.586A4.679,4.679,0,0,1,196.707,157.578Zm-5,2.739a4.593,4.593,0,0,0,.962,1.258,2.11,2.11,0,0,0,1.14.545,2.456,2.456,0,0,0,2.251-1.233,2.1,2.1,0,0,0,.158-1.256,4.609,4.609,0,0,0-.542-1.488,4.514,4.514,0,0,0-.954-1.243,2.07,2.07,0,0,0-1.132-.53,2.174,2.174,0,0,0-1.3.309,1.949,1.949,0,0,0-1.131,1.5A3.663,3.663,0,0,0,191.707,160.317Z" fill="#666"/>
      <path id="패스_10195" data-name="패스 10195" d="M205.179,150.377a2.38,2.38,0,0,1,3.358,1.888l1.359,4.688-1.076.312-1.339-4.616a2.007,2.007,0,0,0-.8-1.227,1.7,1.7,0,0,0-1.387-.082,2.008,2.008,0,0,0-1.484,1.164,3.467,3.467,0,0,0,.083,2.1l1.092,3.769-1.089.316-2.087-7.2.88-.256.465.99.059-.017a2.257,2.257,0,0,1,.4-.81,2.765,2.765,0,0,1,.68-.624A3.255,3.255,0,0,1,205.179,150.377Z" fill="#666"/>
      <path id="패스_10196" data-name="패스 10196" d="M215.391,151.137a.856.856,0,0,1,.16-.7.833.833,0,0,1,.543-.26.879.879,0,0,1,.606.139.844.844,0,0,1,.309.651.882.882,0,0,1-.167.709.845.845,0,0,1-.562.275.8.8,0,0,1-.587-.155A.894.894,0,0,1,215.391,151.137Z" fill="#666"/>
    </g>
  </g>
</svg>
