<svg xmlns="http://www.w3.org/2000/svg" width="60" height="60" viewBox="0 0 60 60">
  <g id="그룹_5649" data-name="그룹 5649" transform="translate(-493 -1014)">
    <rect id="사각형_3221" data-name="사각형 3221" width="60" height="60" transform="translate(493 1014)" fill="none"/>
    <g id="그룹_5630" data-name="그룹 5630" transform="translate(110.229 458.695)">
      <path id="패스_10065" data-name="패스 10065" d="M1400.529,584.939a20.506,20.506,0,0,0-5.861-14.327,1.089,1.089,0,0,0-1.515,0,1.031,1.031,0,0,0,0,1.481c7.019,6.868,7.025,19.225.012,26.444a1.031,1.031,0,0,0,.039,1.481,1.089,1.089,0,0,0,1.515-.038,20.2,20.2,0,0,0,4.452-7.07A21.781,21.781,0,0,0,1400.529,584.939Z" transform="translate(-965.76)" fill="#139274"/>
      <path id="패스_10066" data-name="패스 10066" d="M1279.141,692.041a15.419,15.419,0,0,0-1.209-5.777,13.684,13.684,0,0,0-3.335-4.752,1.1,1.1,0,0,0-1.515.047,1.017,1.017,0,0,0,.049,1.468,12.4,12.4,0,0,1,3.866,9.041,12.738,12.738,0,0,1-3.927,9.481,1.017,1.017,0,0,0-.009,1.469,1.1,1.1,0,0,0,1.515.009,14.632,14.632,0,0,0,3.5-5.186A15.052,15.052,0,0,0,1279.141,692.041Z" transform="translate(-849.964 -106.964)" fill="#139274"/>
      <path id="패스_10067" data-name="패스 10067" d="M1161.112,805.543a9.279,9.279,0,0,0-.858-3.666,7.394,7.394,0,0,0-2.408-2.919,1.071,1.071,0,0,0-1.24,1.747,6.174,6.174,0,0,1,2.364,4.9,6.785,6.785,0,0,1-2.339,5.521,1.071,1.071,0,1,0,1.342,1.671A8.932,8.932,0,0,0,1161.112,805.543Z" transform="translate(-737.401 -220.641)" fill="#139274"/>
      <path id="패스_10068" data-name="패스 10068" d="M415.046,571.713a3.4,3.4,0,0,0-3.8.317c-2.252,1.612-8.322,5.678-8.559,5.968-.361,0-6.059-.028-7.794.025a3.049,3.049,0,0,0-2.254,1.237,3.994,3.994,0,0,0-.856,2.387c-.014,1.651-.014,7.536,0,9.187a3.994,3.994,0,0,0,.856,2.387,3.049,3.049,0,0,0,2.254,1.237c1,.031,7.433.027,7.794.025.237.289,6.306,4.356,8.559,5.968a3.62,3.62,0,0,0,2.127.754,3.66,3.66,0,0,0,1.675-.437,3.392,3.392,0,0,0,2.034-3.29c-.033-2.691-.033-19.784,0-22.475A3.393,3.393,0,0,0,415.046,571.713Zm-20.087,20.652c-.394-.012-1.027-.725-1.034-1.548-.014-1.645-.014-7.507,0-9.153.007-.823.64-1.536,1.034-1.548,1.7-.052,6.973-.028,7.164-.027.016,1.966.016,10.336,0,12.3C401.932,592.392,396.655,592.417,394.959,592.365Zm19.094,6.548a1.244,1.244,0,0,1-1.542-.151c-2.282-1.633-7.575-5.159-7.891-5.37-.254-.17-.3-.264-.317-.308l0-.013c-.024-.069-.024-13.592,0-13.66l0-.012c.017-.044.061-.138.317-.308.316-.211,5.61-3.737,7.891-5.37a1.244,1.244,0,0,1,1.542-.151,1.341,1.341,0,0,1,.884,1.409c-.033,2.705-.033,19.819,0,22.525A1.341,1.341,0,0,1,414.052,598.912Z" transform="translate(0 -0.936)"/>
    </g>
  </g>
</svg>
