<svg xmlns="http://www.w3.org/2000/svg" width="54" height="46" viewBox="0 0 54 46">
  <g id="그룹_5722" data-name="그룹 5722" transform="translate(-441.339 -875.195)">
    <path id="패스_10156" data-name="패스 10156" d="M495.339,921.2H442.764l-1.424-1.388V883.7l1.424-1.388h12.085l2.808-6.286,1.306-.834h18.753l1.306.834,2.808,6.286h12.085l1.424,1.388v36.1H492.49V885.092H480.9l-1.306-.834-2.808-6.286H459.9l-2.808,6.286-1.306.834H444.188v33.328h51.151Z" transform="translate(0 0)" fill="#999"/>
    <path id="패스_10157" data-name="패스 10157" d="M474.445,918.321a11.869,11.869,0,1,1,5.573-1.386A11.9,11.9,0,0,1,474.445,918.321Zm0-20.925a9.038,9.038,0,1,0,9.038,9.038A9.048,9.048,0,0,0,474.445,897.4Z" transform="translate(-6.106 -5.281)" fill="#999"/>
    <rect id="사각형_3262" data-name="사각형 3262" width="6.052" height="2.849" transform="translate(448.031 889.217)" fill="#999"/>
  </g>
</svg>
