<svg xmlns="http://www.w3.org/2000/svg" width="84" height="84" viewBox="0 0 84 84">
  <g id="그룹_3019" data-name="그룹 3019" transform="translate(-920 -865)">
    <g id="그룹_3018" data-name="그룹 3018" transform="translate(756 647)">
      <circle id="타원_37" data-name="타원 37" cx="42" cy="42" r="42" transform="translate(164 218)" fill="#fff"/>
      <path id="패스_4690" data-name="패스 4690" d="M198.417,273.781a20.663,20.663,0,0,1-9.646-2.35,1.2,1.2,0,0,1,1.109-2.129c8.7,4.536,17.31.128,17.4.084,11.144-5.43,11.364-23.414,10.994-30.484-5.347,5.1-13.981,5.058-14.393,5.052-10.476-.39-14.7,4.373-14.743,4.422-6.949,7.213-2.3,17.275-2.254,17.376a1.2,1.2,0,0,1-2.17,1.027c-.223-.473-5.392-11.675,2.644-20.014.14-.172,4.86-5.639,16.585-5.21.067,0,10.192.042,14.285-6.337a1.2,1.2,0,0,1,2.2.5c.145,1.152,3.349,28.3-12.065,35.808A22.987,22.987,0,0,1,198.417,273.781Z" transform="translate(3.774 2.729)" fill="#222"/>
      <path id="패스_4691" data-name="패스 4691" d="M181.866,271.363a1.2,1.2,0,0,1-1.058-1.763c.208-.394,5.257-9.714,17.792-16.272a1.2,1.2,0,1,1,1.112,2.128c-11.84,6.193-16.738,15.18-16.786,15.271A1.2,1.2,0,0,1,181.866,271.363Z" transform="translate(3.333 6.208)" fill="#222"/>
      <circle id="타원_38" data-name="타원 38" cx="15" cy="15" r="15" transform="translate(218 272)" fill="#f68a53"/>
    </g>
    <path id="패스_4692" data-name="패스 4692" d="M-10851.815-13945.219l4.725,4.548,7.275-7" transform="translate(11834.815 14878.671)" fill="none" stroke="#fff" stroke-linecap="round" stroke-linejoin="round" stroke-width="3"/>
  </g>
</svg>
