<svg xmlns="http://www.w3.org/2000/svg" width="60" height="60" viewBox="0 0 60 60">
  <g id="그룹_5648" data-name="그룹 5648" transform="translate(-310 -1013)">
    <rect id="사각형_3220" data-name="사각형 3220" width="60" height="60" transform="translate(310 1013)" fill="none"/>
    <g id="그룹_5629" data-name="그룹 5629" transform="translate(241.113 730.514)">
      <path id="패스_10056" data-name="패스 10056" d="M79.867,320.358c-6.1-1.083-10.244-3.206-10.244-5.648,0-2.474,4.257-4.622,10.492-5.692" transform="translate(10.264 -1.833)" fill="none" stroke="#212121" stroke-linecap="round" stroke-linejoin="round" stroke-width="2"/>
      <path id="패스_10057" data-name="패스 10057" d="M113.512,309.508c5.457,1.136,9.081,3.141,9.081,5.424,0,3.542-8.72,6.414-19.477,6.414-1.1,0-1.228.058-2.278,0" transform="translate(-3.925 -2.059)" fill="none" stroke="#212121" stroke-linecap="round" stroke-linejoin="round" stroke-width="2"/>
      <path id="패스_10058" data-name="패스 10058" d="M94.158,297c.858-7.69,3.254-13.225,6.076-13.225,2.2,0,4.134,3.352,5.29,8.464" transform="translate(-0.953 9.706)" fill="none" stroke="#212121" stroke-linecap="round" stroke-linejoin="round" stroke-width="2"/>
      <path id="패스_10059" data-name="패스 10059" d="M105.9,333.737c-1.077,6.157-3.211,10.351-5.667,10.351-2.825,0-5.224-5.548-6.079-13.252" transform="translate(-0.952 -11.82)" fill="none" stroke="#212121" stroke-linecap="round" stroke-linejoin="round" stroke-width="2"/>
      <path id="패스_10060" data-name="패스 10060" d="M125.964,311.188l-1.7-3.12,3.12-1.7" transform="translate(-15.221 -0.607)" fill="none" stroke="#212121" stroke-linecap="round" stroke-linejoin="round" stroke-width="2"/>
      <path id="패스_10061" data-name="패스 10061" d="M114.313,293.727l-1.855,3.03-3.03-1.855" transform="translate(-7.909 5.192)" fill="none" stroke="#212121" stroke-linecap="round" stroke-linejoin="round" stroke-width="2"/>
      <text id="_360" data-name="360" transform="translate(89.623 316.223)" fill="#139274" font-size="10" font-family="Roboto-Bold, Roboto" font-weight="700"><tspan x="0" y="0">360</tspan></text>
      <g id="타원_118" data-name="타원 118" transform="translate(106.623 306.223)" fill="none" stroke="#139274" stroke-width="1">
        <circle cx="1.5" cy="1.5" r="1.5" stroke="none"/>
        <circle cx="1.5" cy="1.5" r="1" fill="none"/>
      </g>
    </g>
  </g>
</svg>
