<svg xmlns="http://www.w3.org/2000/svg" width="10" height="11" viewBox="0 0 10 11">
  <g id="그룹_4783" data-name="그룹 4783" transform="translate(-1867.47 -123.658)">
    <g id="그룹_4625" data-name="그룹 4625" transform="translate(1867.47 123.658)">
      <path id="패스_9771" data-name="패스 9771" d="M1877.427,132.919a1.84,1.84,0,0,1-3.675,0,1.652,1.652,0,0,1,.162-.715l-3.161-1.811a1.872,1.872,0,0,1-1.446.666,1.742,1.742,0,1,1,0-3.478,1.874,1.874,0,0,1,1.422.639l3.26-2.042a1.653,1.653,0,0,1-.195-.78,1.84,1.84,0,1,1,1.837,1.739,1.877,1.877,0,0,1-1.408-.621l-3.264,2.045a1.658,1.658,0,0,1,.016,1.488l3.158,1.809a1.872,1.872,0,0,1,1.455-.677A1.79,1.79,0,0,1,1877.427,132.919Z" transform="translate(-1867.47 -123.658)" fill="#222"/>
    </g>
  </g>
</svg>
