<svg xmlns="http://www.w3.org/2000/svg" width="20" height="20" viewBox="0 0 20 20">
  <path id="패스_9768" data-name="패스 9768" d="M188.97,579.986l-8.333,6.516a1.656,1.656,0,0,0-.637,1.3v11a.831.831,0,0,0,.833.829h5.661a.831.831,0,0,0,.833-.829v-6.744a.831.831,0,0,1,.833-.829h3.679a.831.831,0,0,1,.833.829V598.8a.831.831,0,0,0,.833.829h5.661A.831.831,0,0,0,200,598.8v-11a1.656,1.656,0,0,0-.637-1.3l-8.333-6.516A1.674,1.674,0,0,0,188.97,579.986Z" transform="translate(-180 -579.632)" fill="#fff"/>
</svg>
