<svg xmlns="http://www.w3.org/2000/svg" width="16" height="16" viewBox="0 0 16 16">
  <path id="패스_9970" data-name="패스 9970" d="M187.176,579.915l-6.667,5.213a1.325,1.325,0,0,0-.509,1.043v8.8a.665.665,0,0,0,.667.663H185.2a.665.665,0,0,0,.667-.663v-5.4a.665.665,0,0,1,.667-.663h2.943a.665.665,0,0,1,.667.663v5.4a.665.665,0,0,0,.667.663h4.528a.665.665,0,0,0,.667-.663v-8.8a1.324,1.324,0,0,0-.509-1.043l-6.667-5.213A1.339,1.339,0,0,0,187.176,579.915Z" transform="translate(-180 -579.632)" fill="#fff"/>
</svg>
