<svg xmlns="http://www.w3.org/2000/svg" width="19" height="22" viewBox="0 0 19 22">
  <path id="패스_6144" data-name="패스 6144" d="M378,828.463l-6.844,7.081a4.051,4.051,0,0,1-5.861,0,4.4,4.4,0,0,1,0-6.064l10.6-10.964a2.488,2.488,0,0,1,3.6,0,2.7,2.7,0,0,1,0,3.723l-9.971,10.316a.939.939,0,0,1-1.358,0,1.02,1.02,0,0,1,0-1.405l6.621-6.85-1.008-1.043-6.621,6.85a2.532,2.532,0,0,0,0,3.49,2.332,2.332,0,0,0,3.373,0l9.971-10.316a4.213,4.213,0,0,0,0-5.808,3.88,3.88,0,0,0-5.614,0l-10.6,10.964a5.911,5.911,0,0,0,0,8.15,5.445,5.445,0,0,0,7.877,0l6.844-7.081Z" transform="translate(-362.656 -816.272)" fill="#727272"/>
</svg>
