<svg xmlns="http://www.w3.org/2000/svg" width="192" height="50" viewBox="0 0 192 50">
  <g id="logo_c" transform="translate(-126.48 -284.873)">
    <g id="한글">
      <path id="패스_10024" data-name="패스 10024" d="M274.57,308.99a7.874,7.874,0,0,1,.536-3.027,5.085,5.085,0,0,1,1.546-1.932,6.8,6.8,0,0,1,2.457-1.148,12.963,12.963,0,0,1,3.242-.374A9.32,9.32,0,0,1,288,304.031a5.988,5.988,0,0,1,2.058,4.96v.377a6.6,6.6,0,0,1-.536,2.768,5.011,5.011,0,0,1-1.534,1.933,6.791,6.791,0,0,1-2.432,1.135,12.93,12.93,0,0,1-3.255.374,12.669,12.669,0,0,1-3.217-.374,6.924,6.924,0,0,1-2.432-1.135,4.958,4.958,0,0,1-1.546-1.933,6.6,6.6,0,0,1-.536-2.768Zm10.25-.271a14.152,14.152,0,0,0-.2-2.606,5.285,5.285,0,0,0-.549-1.634,2.2,2.2,0,0,0-.8-.848,2,2,0,0,0-1.933,0,2.164,2.164,0,0,0-.811.848,5.453,5.453,0,0,0-.561,1.634,13.333,13.333,0,0,0-.212,2.606v.649a13.333,13.333,0,0,0,.212,2.606,5.225,5.225,0,0,0,.574,1.634,2.241,2.241,0,0,0,.823.848,2.037,2.037,0,0,0,.985.249,1.921,1.921,0,0,0,.948-.249,2.116,2.116,0,0,0,.786-.848,5.527,5.527,0,0,0,.536-1.634,14.153,14.153,0,0,0,.2-2.606Zm8.228,7.806a.422.422,0,0,1-.422-.422V305.078a1.919,1.919,0,0,0-.162-.985q-.187-.337-.412-.76a2.1,2.1,0,0,1-.362-.886q-.013-.311.486-.311h4.549a1.6,1.6,0,0,1,.873.237,1.119,1.119,0,0,1,.374,1.01v1.493a.58.58,0,0,0,.58.58h2.978a.03.03,0,0,1,.03.03v1.558a.03.03,0,0,1-.03.03H298.61a.636.636,0,0,0-.636.637v2.561a.672.672,0,0,0,.672.672h2.886a.03.03,0,0,1,.03.03v1.558a.03.03,0,0,1-.03.03H298.61a.636.636,0,0,0-.636.636v2.082a1.119,1.119,0,0,1-.374,1.01,1.594,1.594,0,0,1-.873.237Z" transform="translate(-93.811 -10.951)" fill="#139274"/>
      <path id="패스_10025" data-name="패스 10025" d="M364.516,326.685v-9.558a1.466,1.466,0,0,0-1.466-1.466h-7.836a.03.03,0,0,1-.03-.03v-1.558a.03.03,0,0,1,.03-.03h13.457a.032.032,0,0,0,.018-.005,6.921,6.921,0,0,0,1.727-1.8,8.1,8.1,0,0,0,.935-2.533,21.831,21.831,0,0,0,.311-2.307q.087-1.11.087-2.008v-.228a.723.723,0,0,0-.722-.723H357.29a.03.03,0,0,1-.03-.03v-1.558a.03.03,0,0,1,.03-.03h18.625a1.6,1.6,0,0,1,.873.237,1.119,1.119,0,0,1,.374,1.01v1.522a25.5,25.5,0,0,1-.125,2.556,8.9,8.9,0,0,1-.424,2.345A5.273,5.273,0,0,1,375.2,312.6a9.171,9.171,0,0,1-2.12,1.384.029.029,0,0,0,.012.056h5.982a.03.03,0,0,1,.03.03v1.558a.03.03,0,0,1-.03.03h-7.795a1.351,1.351,0,0,0-1.351,1.352v8.119a2.479,2.479,0,0,1-.229,1.259,1.8,1.8,0,0,1-1.127.655c-.29.048-2.272.212-3.355.294a.653.653,0,0,1-.7-.653" transform="translate(-144.881 -11.384)" fill="#139274"/>
      <path id="패스_10026" data-name="패스 10026" d="M295.225,341.338c6.5,0,8.559,3.075,8.559,4.953v.412c0,1.879-2.063,4.953-8.559,4.953H293.6c-6.495,0-8.592-3.075-8.592-4.953v-.412c0-1.879,2.1-4.953,8.592-4.953Zm3.236,5.176a4.331,4.331,0,0,0-2.6-3.8,3.948,3.948,0,0,0-2.9,0,4.06,4.06,0,0,0,0,7.575,3.948,3.948,0,0,0,2.9,0,4.364,4.364,0,0,0,2.6-3.77" transform="translate(-100.43 -36.472)" fill="#139274"/>
      <path id="패스_10027" data-name="패스 10027" d="M453.171,340.345H428.11a.03.03,0,0,0-.03.03v1.558a.03.03,0,0,0,.03.03h9.041a1.332,1.332,0,0,1,1.332,1.332V348.9h0v1.592a.653.653,0,0,0,.7.653c1.083-.082,3.065-.245,3.355-.294a1.8,1.8,0,0,0,1.127-.655,2.479,2.479,0,0,0,.229-1.259V343.2a1.236,1.236,0,0,1,1.236-1.236h8.038a.03.03,0,0,0,.03-.03v-1.558a.03.03,0,0,0-.03-.03" transform="translate(-191.059 -35.838)" fill="#139274"/>
      <path id="패스_10028" data-name="패스 10028" d="M441.186,311.148a20.515,20.515,0,0,0,2.492-2.473.026.026,0,0,1,.026-.01,5.594,5.594,0,0,1,2.2,1.245,15.3,15.3,0,0,1,3.763,4.031c.638,1.02,1.263.661,2.36-.07,1.837-1.225,2.717-1.512,1.167-3.387a8.856,8.856,0,0,0-4.36-2.888h0a17.091,17.091,0,0,0-2.167-.436c-.661-.09-1.116-.159-1.679-.2a.168.168,0,0,1-.152-.221,4.493,4.493,0,0,0,.592-2.394v-1.206a.984.984,0,0,0-.268-.791,1.167,1.167,0,0,0-.842-.221h-5.1c-.338,0-.5.107-.494.32.006.155.147.271.361.519a4.424,4.424,0,0,1,.332.408c.23.357.14.555.14,1.735a6.9,6.9,0,0,1-.982,3.266,9.786,9.786,0,0,1-1.784,2.013,11.936,11.936,0,0,1-2.752,1.693,11.234,11.234,0,0,1-2.991.9l.02,1.556a30.976,30.976,0,0,0,5.3-.982,16.924,16.924,0,0,0,4.822-2.411" transform="translate(-192.939 -10.948)" fill="#139274"/>
      <path id="패스_10029" data-name="패스 10029" d="M588.4,311.6a7.307,7.307,0,0,0,2.407,1,13.9,13.9,0,0,0,3.192.336,10.151,10.151,0,0,0,5.649-1.334,4.277,4.277,0,0,0,2.008-3.778v-.1a4.286,4.286,0,0,0-2-3.778,10.041,10.041,0,0,0-5.612-1.334,13.7,13.7,0,0,0-3.23.349,7.684,7.684,0,0,0-2.419,1,4.527,4.527,0,0,0-1.509,1.6,4.414,4.414,0,0,0-.524,2.17v.1a4.412,4.412,0,0,0,.524,2.17A4.626,4.626,0,0,0,588.4,311.6m3.155-3.878a9.118,9.118,0,0,1,.187-2.008,3.924,3.924,0,0,1,.523-1.309,1.986,1.986,0,0,1,.786-.711,2.195,2.195,0,0,1,.948-.212,2.251,2.251,0,0,1,.972.212,1.824,1.824,0,0,1,.761.711,4.323,4.323,0,0,1,.5,1.309,9.114,9.114,0,0,1,.187,2.008v.1a9.114,9.114,0,0,1-.187,2.008,4.314,4.314,0,0,1-.5,1.309,1.843,1.843,0,0,1-.748.711,2.11,2.11,0,0,1-.935.212,2.326,2.326,0,0,1-.985-.212,1.953,1.953,0,0,1-.8-.711,3.915,3.915,0,0,1-.523-1.309,9.118,9.118,0,0,1-.187-2.008Z" transform="translate(-291.332 -11.254)" fill="#139274"/>
      <path id="패스_10030" data-name="패스 10030" d="M598.912,352.011a1.119,1.119,0,0,0-.374-1.01,1.6,1.6,0,0,0-.873-.237h-4.614q-.5,0-.486.312a2.092,2.092,0,0,0,.362.885q.224.423.412.76a1.919,1.919,0,0,1,.162.985v2.211c0,.516-.151.97.374,1.38a2.715,2.715,0,0,0,1.567.237H613.3a.03.03,0,0,0,.03-.03v-1.558a.03.03,0,0,0-.03-.03H599.689a.777.777,0,0,1-.776-.777Z" transform="translate(-295.266 -42.5)" fill="#139274"/>
      <path id="패스_10031" data-name="패스 10031" d="M607.161,303.382a1.118,1.118,0,0,0-.374-1.01,1.6,1.6,0,0,0-.873-.237H601.3q-.5,0-.486.312a2.082,2.082,0,0,0,.362.885q.224.424.411.76a1.918,1.918,0,0,1,.162.985v6.98h0v1.595a.03.03,0,0,1-.03.03H583.106a.03.03,0,0,0-.03.03v1.558a.03.03,0,0,0,.03.03h5.521a.911.911,0,0,1,.911.911v2.436a.346.346,0,0,0,.347.347h3.07a1.594,1.594,0,0,0,.873-.237q.374-.236.374-1.01v-1.714a.734.734,0,0,1,.734-.734h6.782a.03.03,0,0,1,.03.03v1.051a.762.762,0,0,1-.762.762h-4.4a.03.03,0,0,0-.03.03v1.6a.03.03,0,0,0,.03.03h4.207a.912.912,0,0,1,.953.935v2.8a.653.653,0,0,0,.7.653c1.083-.082,3.065-.245,3.355-.294a1.8,1.8,0,0,0,1.126-.655,2.484,2.484,0,0,0,.229-1.259V319.87c0-.01,0-.018,0-.028Z" transform="translate(-289.246 -10.951)" fill="#139274"/>
      <path id="패스_10032" data-name="패스 10032" d="M531.876,346.9a1.119,1.119,0,0,0-.374-1.01,1.594,1.594,0,0,0-.873-.237H512.3a.03.03,0,0,0-.03.03v1.558a.03.03,0,0,0,.03.03h13.159a.983.983,0,0,1,.983.983v4.912h0v.671a.654.654,0,0,0,.7.654c1.087-.082,3.079-.246,3.371-.294a1.813,1.813,0,0,0,1.132-.656,2.478,2.478,0,0,0,.23-1.261v-5.294h0Z" transform="translate(-244.4 -39.236)" fill="#139274"/>
      <path id="패스_10033" data-name="패스 10033" d="M520.588,314.606a.806.806,0,0,1-.806-.806v-1.912h6.16a1.6,1.6,0,0,0,.873-.237,1.118,1.118,0,0,0,.374-1.01v-6.628a1.119,1.119,0,0,0-.374-1.01,1.6,1.6,0,0,0-.873-.237H507.187q-.5,0-.486.312a2.089,2.089,0,0,0,.362.885q.225.424.412.761a1.919,1.919,0,0,1,.162.985v4.932a1.119,1.119,0,0,0,.374,1.01,1.6,1.6,0,0,0,.873.237h5.457a.03.03,0,0,1,.03.03v1.8a.886.886,0,0,1-.886.886h-8.536a.03.03,0,0,0-.03.03v1.558a.03.03,0,0,0,.03.03h24.674a.03.03,0,0,0,.03-.03v-1.558a.03.03,0,0,0-.03-.03Zm-7.52-4.366v-5.75a.03.03,0,0,1,.03-.03h8.625a.03.03,0,0,1,.03.03v5.75a.03.03,0,0,1-.03.03H513.1a.03.03,0,0,1-.03-.03" transform="translate(-239.662 -11.352)" fill="#139274"/>
    </g>
    <path id="패스_10034" data-name="패스 10034" d="M159.339,302.851c.58,1.627-.541,2.746-2.335,3.066-2.631.468-5,.906-7.337,1.493-1.436.361-5.252-.89-6.71-.374-1.223.433-.077,2.6-1.382,3.2a47.2,47.2,0,0,0-13.862,9.934.8.8,0,0,1-1.042.084c-.24-.216-.294-.6.078-1.045,8.582-10.237,17.4-15.891,29.73-17.7,0,0,2.168-.6,2.859,1.337" transform="translate(0 -10.501)" fill="#f68a53"/>
    <path id="패스_10035" data-name="패스 10035" d="M224.29,285.107l1.141,3.1a.893.893,0,0,0,.617.556l3.276.836a.321.321,0,0,1,.119.562l-2.694,2.121a.8.8,0,0,0-.3.683l.223,3.472a.3.3,0,0,1-.459.264l-2.9-1.94a.788.788,0,0,0-.728-.077l-3.18,1.264a.328.328,0,0,1-.437-.394l.936-3.31a.754.754,0,0,0-.145-.686l-2.24-2.7a.294.294,0,0,1,.215-.481l3.464-.134a.832.832,0,0,0,.671-.387l1.784-2.819a.359.359,0,0,1,.639.068" transform="translate(-57.632)" fill="#f68a53"/>
    <path id="패스_10036" data-name="패스 10036" d="M184.981,324.487c-.054,1.2-1.006,1.665-2.254,1.447a40.691,40.691,0,0,0-11.1-.85,32.8,32.8,0,0,0-11.413,3.189.553.553,0,0,1-.7-.193c-.106-.2-.05-.462.3-.663a46.355,46.355,0,0,1,5.889-2.906c1.065-.428,4.193.607,5.251.3s.045-1.959,1.107-2.146a29.756,29.756,0,0,1,11.373.27s1.6.355,1.549,1.553" transform="translate(-20.925 -24.095)" fill="#f68a53"/>
    <path id="패스_10037" data-name="패스 10037" d="M169.332,405.721c-2.673-.606-2.768-4.2-2.768-4.2v-6.409l10.024-.435v6.744a1.312,1.312,0,0,1-.633,1.189,3.536,3.536,0,0,1-1.6.36c-2.176,0-1.828,3.479-5.026,2.754" transform="translate(-25.429 -70.948)" fill="#ec7fa4"/>
    <path id="패스_10038" data-name="패스 10038" d="M166.045,331.405l-5.5-7.979a.327.327,0,0,1,.335-.5l1.238.2a.327.327,0,0,0,.335-.5l-5.664-8.221a.326.326,0,0,1,.306-.505l.467.035a.326.326,0,0,0,.3-.517l-4.869-6.481a.325.325,0,0,1,.272-.517h.524a.325.325,0,0,0,.269-.521l-4.309-5.582a.325.325,0,0,1,.269-.521.325.325,0,0,0,.273-.517s-2.579-3.533-3.06-4.18-1.029-.658-1.483,0-3.011,4.181-3.011,4.181a.325.325,0,0,0,.273.517.325.325,0,0,1,.269.521l-4.309,5.582a.325.325,0,0,0,.269.521h.524a.325.325,0,0,1,.272.517l-4.869,6.481a.326.326,0,0,0,.3.517l.468-.035a.326.326,0,0,1,.306.505l-5.664,8.221a.327.327,0,0,0,.335.5l1.238-.2a.327.327,0,0,1,.335.5l-5.5,7.979a.327.327,0,0,0,.335.5l7.09-1.14-.938,1.361a.327.327,0,0,0,.335.5l7.482-1.2,4.276,2.475a1.723,1.723,0,0,0,1.806-.053l3.773-2.5,7.957,1.279a.327.327,0,0,0,.335-.5l-.953-1.383,7.225,1.162a.327.327,0,0,0,.335-.5m-13.929-19.132c0,1.052-.575,1.9-1.284,1.9s-1.284-.852-1.284-1.9.575-1.9,1.284-1.9,1.284.852,1.284,1.9m-2.67-8.866,1.358,2.4-1.016.541-1.358-2.4Zm-3.467-.119,1.158.053-.143,2.946-1.158-.053Zm-2.392-.018.985.592-1.544,2.413-.986-.592Zm-1.389,7.1c.709,0,1.284.852,1.284,1.9s-.575,1.9-1.284,1.9-1.284-.852-1.284-1.9.575-1.9,1.284-1.9m-7.018,17.071-1.093-.661,2.662-4.126,1.093.661Zm5.159,2.186-1.2-.456,1.63-4.02,1.2.456Zm6.553-.228-1.288-.014.048-4.228,1.288.014Zm-.172-7.858c-2.833,0-5.433-1.7-6.048-3.949a.809.809,0,0,1,.6-.991.839.839,0,0,1,1.024.576c.42,1.537,2.365,2.741,4.429,2.741a4.466,4.466,0,0,0,4.039-2.811.845.845,0,0,1,1.074-.484.8.8,0,0,1,.5,1.04,6.112,6.112,0,0,1-5.613,3.879m4.739,7.657-.825-3.735,1.26-.261.824,3.734Zm6.571.891-.067-.1h.084Zm-.178-2.4-2.765-4.181,1.085-.673,2.765,4.181Z" transform="translate(-0.285 -6.174)" fill="#009174"/>
    <g id="영문">
      <path id="패스_10039" data-name="패스 10039" d="M286.64,389.109a2.649,2.649,0,0,0-.632,2.085,5.793,5.793,0,0,0,.188,2.031c.188.39.9.309.9.941,0,.968-2.125.968-2.784.968-2.124,0-2.715-.483-2.715-.846,0-.726.547-.435.789-.986.248-.2.165-1.073.165-2.377a2.1,2.1,0,0,0-.591-1.627l-1.52-1.762c-.659-.767-1.426-.854-1.426-1.361,0-.31.414-.915,2.633-.915,1.775,0,2.737.165,2.737.608,0,.35-.444.568-.444.851s.878,1.9,1.147,1.7a4.45,4.45,0,0,0,1.146-1.59c0-.377-.387-.444-.387-.777,0-.794,1.053-.794,2.071-.794.979,0,1.829.2,1.829.794,0,.717-.488.65-1.084.983a2.05,2.05,0,0,0-.513.416Z" transform="translate(-96.639 -64.976)" fill="#139274"/>
      <path id="패스_10040" data-name="패스 10040" d="M310.945,396.725c0,2.367.807,1.076.807,1.8,0,.767-1.049,1.6-2.031,1.6-1.062,0-1.089-.686-1.425-.686-.161,0-.336.175-.632.336a2.458,2.458,0,0,1-1.318.35,1.992,1.992,0,0,1-2.232-1.923c0-.955.914-2.138,3.281-2.138.417,0,.605.027.605-.457,0-.444-.014-1.372-.632-1.372-.807,0-.888,1.453-2.085,1.453a.724.724,0,0,1-.753-.74c0-1.143,2.273-1.883,3.55-1.883.767,0,2.865.3,2.865,2.313Zm-4.035,1.183c0,.349.188.726.578.726.511,0,.551-.551.551-.955,0-.3.013-.632-.363-.632a.823.823,0,0,0-.767.861" transform="translate(-112.543 -69.929)" fill="#139274"/>
      <path id="패스_10041" data-name="패스 10041" d="M330.47,397.764c0,1.3.457,1.076.457,1.587,0,.834-1.789.807-2.34.807s-1.91,0-1.91-.807c0-.646.619-.067.659-1.385l.054-2.017c.027-1-.793-.672-.793-1.385s3.093-1.385,3.362-1.385a.5.5,0,0,1,.484.524c0,.081-.013.162-.013.242,0,.161.067.349.269.349s.336-.283.605-.565a1.87,1.87,0,0,1,1.439-.551c2.784,0,2.313,2.73,2.448,4.774.067,1.062.619.82.619,1.4,0,.242.054.807-2.475.807-.484,0-1.775.027-1.775-.726,0-.484.444-.256.511-1.13.068-.955.444-3.106-.82-3.106-.861,0-.78.928-.78,1.533Z" transform="translate(-126.787 -69.999)" fill="#139274"/>
      <path id="패스_10042" data-name="패스 10042" d="M357.173,402.016c-2.488,0-3.429-.941-3.429-1.8,0-.78.74-.794.74-1,0-.175-.726-.551-.726-1.143,0-.955,1.089-1.238,1.089-1.426,0-.161-.914-.78-.914-1.775,0-1.627,2.031-2.38,3.389-2.38.686,0,1.614.255,2.085.255,1.022,0,1.533-.713,1.735-.713.309,0,.444.4.444.659,0,.753-.753,1.291-.753,1.439s.041.282.041.417c0,1.815-2.112,2.434-3.591,2.434-.229,0-.457-.04-.7-.04a.339.339,0,0,0-.363.363c0,.417.592.5.9.5.417,0,1.977-.228,2.515-.228,1.4,0,1.991.793,1.991,1.6,0,1.21-1.157,2.838-4.452,2.838m.135-1.156c.444,0,1.452-.067,1.452-.686,0-.282-.269-.4-.524-.4-.2,0-.726.081-1.157.081-.309,0-1.036-.107-1.183-.107-.121,0-.162.121-.162.215,0,.713,1.049.9,1.574.9m.081-7.384c-.525,0-.753.5-.753.968,0,.511.135,1.627.82,1.627.605,0,.807-.525.807-1.049,0-.551-.121-1.546-.874-1.546" transform="translate(-143.988 -69.274)" fill="#139274"/>
      <path id="패스_10043" data-name="패스 10043" d="M380.445,402.016c-2.488,0-3.429-.941-3.429-1.8,0-.78.74-.794.74-1,0-.175-.726-.551-.726-1.143,0-.955,1.089-1.238,1.089-1.426,0-.161-.914-.78-.914-1.775,0-1.627,2.031-2.38,3.389-2.38.686,0,1.614.255,2.085.255,1.022,0,1.533-.713,1.735-.713.309,0,.444.4.444.659,0,.753-.753,1.291-.753,1.439s.041.282.041.417c0,1.815-2.112,2.434-3.591,2.434-.229,0-.457-.04-.7-.04a.339.339,0,0,0-.363.363c0,.417.592.5.9.5.417,0,1.977-.228,2.515-.228,1.4,0,1.991.793,1.991,1.6,0,1.21-1.157,2.838-4.452,2.838m.135-1.156c.444,0,1.453-.067,1.453-.686,0-.282-.269-.4-.524-.4-.2,0-.726.081-1.157.081-.309,0-1.036-.107-1.183-.107-.121,0-.162.121-.162.215,0,.713,1.049.9,1.574.9m.081-7.384c-.525,0-.753.5-.753.968,0,.511.135,1.627.82,1.627.605,0,.807-.525.807-1.049,0-.551-.121-1.546-.874-1.546" transform="translate(-158.732 -69.274)" fill="#139274"/>
      <path id="패스_10044" data-name="패스 10044" d="M402.743,397.1c0,.538.04,1.372.767,1.372.968,0,.833-1.264.833-1.91a10.411,10.411,0,0,0-.054-1.452c-.107-.673-.766-.444-.766-1.009,0-.793,2.7-.928,3.214-.928.484,0,.686.283.686.753,0,.431-.027.847-.027,1.278v2.7c0,.807.74.43.74,1.076,0,.914-2.38,1.17-3.12,1.17-1.036,0-.35-.807-.888-.807-.148,0-.363.2-.686.4a2.457,2.457,0,0,1-1.345.4c-2.555,0-2.34-2.017-2.34-4.035,0-2.058-.928-1.156-.928-2.044,0-.861,3.389-.9,3.5-.9.377,0,.417.175.417.511Z" transform="translate(-172.551 -69.998)" fill="#139274"/>
      <path id="패스_10045" data-name="패스 10045" d="M435.091,390.254a8.464,8.464,0,0,0,.968-3.174,1.454,1.454,0,0,1,1.627-1.627c1.17,0,1.593,1.265,2.118,2.153.228.39,1.794,4.389,2.317,5.474.381.789.874.567.923,1.183.059.737-.627.994-1.593.994-1.923,0-3.08-.008-3.08-.847,0-.646.82-.4.82-.875,0-.605-.336-.659-2.5-.659-.7,0-1.117.027-1.117.685,0,.525.861.175.861.875,0,.807-.823.82-1.991.82-1.923,0-2.1-.363-2.1-.793,0-.632.726-.444,1.116-.928a7.807,7.807,0,0,0,.78-1.439Zm2.824.968c.135,0,.538.027.538-.175a6.613,6.613,0,0,0-.427-1.164c-.166-.407-.342-.823-.638-.823-.323,0-.63.992-.684,1.14a4.674,4.674,0,0,0-.282.834c0,.229.336.188.484.188Z" transform="translate(-193.785 -65.098)" fill="#139274"/>
      <path id="패스_10046" data-name="패스 10046" d="M463.576,395.935c0-1.318-.834-.578-.834-1.4,0-1.062,3.147-1.358,3.268-1.358.511,0,.525.134.578.592.014.161,0,.471.229.471.322,0,.524-1.062,1.681-1.062a1.466,1.466,0,0,1,1.493,1.56,1.645,1.645,0,0,1-1.654,1.614c-.874,0-1.116-.767-1.466-.767-.377,0-.31.9-.31,1.143a12.348,12.348,0,0,0,.108,1.479c.08.591,1.1.229,1.1,1.036,0,.847-1.184.914-2.663.914-.619,0-2.338.107-2.338-.821,0-.565.509-.645.656-1.115a6.636,6.636,0,0,0,.148-1.48Z" transform="translate(-213.047 -69.999)" fill="#139274"/>
      <path id="패스_10047" data-name="패스 10047" d="M486.293,389.251c0,.067-.013.215.094.215.067,0,.283-.215.632-.417a2.663,2.663,0,0,1,1.412-.417,2.756,2.756,0,0,1,2.636,2.972,3.983,3.983,0,0,1-4.035,4.088,5.208,5.208,0,0,1-2.7-.874c-.215,0-.43.2-.874.2-.188,0-.4-.054-.4-.269a8.806,8.806,0,0,0,.269-2.394v-3.577c0-.78-1.009-.431-1.009-1.2,0-.9,2.609-1.506,3.725-1.506.363,0,.349.283.336.578Zm.686,1.452c-.592,0-.659.484-.659.941,0,2.609.148,2.824.686,2.824.888,0,1.035-1.009,1.035-1.695,0-.632-.175-2.071-1.062-2.071" transform="translate(-225.443 -65.494)" fill="#139274"/>
      <path id="패스_10048" data-name="패스 10048" d="M507.933,396.833c0-2.407,2.111-3.766,4.331-3.766a3.579,3.579,0,0,1,3.7,3.51c0,2.206-2.367,3.551-4.344,3.551s-3.685-1.17-3.685-3.3m3.752-2.179a.707.707,0,0,0-.659.807c.054.847.3,2.919,1.224,2.972.511.027.619-.4.619-.834,0-.605-.269-2.945-1.183-2.945" transform="translate(-241.676 -69.929)" fill="#139274"/>
      <path id="패스_10049" data-name="패스 10049" d="M531.47,395.935c0-1.318-.834-.578-.834-1.4,0-1.062,3.147-1.358,3.268-1.358.511,0,.525.134.578.592.014.161,0,.471.229.471.323,0,.525-1.062,1.681-1.062a1.466,1.466,0,0,1,1.493,1.56,1.645,1.645,0,0,1-1.654,1.614c-.874,0-1.116-.767-1.466-.767-.377,0-.31.9-.31,1.143a12.348,12.348,0,0,0,.108,1.479c.08.591,1.1.229,1.1,1.036,0,.847-1.183.914-2.663.914-.619,0-2.448.027-2.448-.9,0-.565.619-.565.766-1.035a6.64,6.64,0,0,0,.148-1.48Z" transform="translate(-256.012 -69.999)" fill="#139274"/>
      <path id="패스_10050" data-name="패스 10050" d="M554.072,396.846c-.148,0-.363-.04-.363.188,0,.672.874,1.238,1.506,1.238,1.009,0,1.506-.605,1.789-.605s.525.417.525.672c0,1.036-1.9,1.789-3.107,1.789a3.454,3.454,0,0,1-3.672-3.483,3.664,3.664,0,0,1,3.779-3.577,3.1,3.1,0,0,1,3.3,2.77c0,.888-.4,1.009-.834,1.009Zm1.17-1.695a.788.788,0,0,0-.793-.861.892.892,0,0,0-.807.887c0,.484.457.377.807.377s.793.081.793-.4" transform="translate(-268.738 -69.929)" fill="#139274"/>
      <path id="패스_10051" data-name="패스 10051" d="M574.433,394.134c0,.9.377,1.116.74,1.116.417,0,.659-.309.9-.309.269,0,.457.377.457.619,0,.888-1.533,1.668-2.892,1.668a2.268,2.268,0,0,1-2.407-2.434v-2.77c0-.242,0-.336-.067-.377a1.737,1.737,0,0,0-.525-.014c-.35,0-.524.014-.592-.054-.094-.094-.067-.229-.067-.538,0-.188-.041-.336.121-.444l3.066-1.95c.309-.188.3-.148.7-.148.538,0,.565-.054.565.565a4.147,4.147,0,0,0,.04,1c.041.107.135.107.484.107h.941c.578,0,.578.04.578.646,0,.767-.094.82-.619.82h-.928c-.471,0-.5.014-.5.5Z" transform="translate(-280.936 -67.028)" fill="#139274"/>
      <path id="패스_10052" data-name="패스 10052" d="M592.5,397.079c0,.538.04,1.372.767,1.372.968,0,.834-1.264.834-1.91a10.407,10.407,0,0,0-.054-1.452c-.107-.673-.766-.444-.766-1.009,0-.793,2.7-.928,3.214-.928.484,0,.686.283.686.753,0,.431-.027.847-.027,1.278v2.7c0,.807.5.533.5,1.178,0,.915-2.137,1.068-2.877,1.068-1.036,0-.35-.807-.888-.807-.148,0-.363.2-.686.4a2.456,2.456,0,0,1-1.345.4c-2.555,0-2.212-2.237-2.212-4.254,0-2.349-.61-1.313-.6-2.04.015-.861,2.931-.685,3.039-.685.377,0,.417.175.417.511Z" transform="translate(-293.033 -69.973)" fill="#139274"/>
      <path id="패스_10053" data-name="패스 10053" d="M614.782,396.258c0-.861-.175-1.1-.309-1.224-.175-.148-.363-.134-.363-.484,0-1,3.335-1.372,3.362-1.372.336,0,.363.3.363.578,0,.161-.054.619.229.619.135,0,.35-.3.726-.605a2.657,2.657,0,0,1,1.708-.592c1.6,0,1.614,1.2,1.9,1.2.107,0,.349-.3.74-.605a2.724,2.724,0,0,1,1.627-.592,1.862,1.862,0,0,1,2.071,2.017v2.838c0,.78.5.847.5,1.237,0,.847-1.533.888-2.058.888-.444,0-2-.094-2-.794,0-.5.471-.484.471-1.264v-1.21c0-.565.067-1.695-.7-1.695s-.686.914-.686,1.412v.834c0,1.654.484,1.372.484,1.869,0,.834-1.614.847-2.1.847-2.031,0-2.138-.377-2.125-.753.013-.713.686-.148.646-1.748v-.767c0-.484.067-1.695-.7-1.695s-.686.914-.686,1.412V397.7c0,1.237.363,1.157.363,1.641,0,.35-.309.82-2.152.82-.524,0-2.111.014-2.111-.7,0-.605.807-.283.807-1.964Z" transform="translate(-308.85 -69.999)" fill="#139274"/>
    </g>
  </g>
</svg>
